Pragati-Bold.ufo
<glyph name="exclam" format="1">
  <advance width="159"/>
  <unicode hex="0021"/>
  <outline>
    <contour>
      <point x="124" y="399" type="line"/>
      <point x="103" y="115" type="line"/>
      <point x="55" y="115" type="line"/>
      <point x="52" y="163"/>
      <point x="48" y="210"/>
      <point x="45" y="257" type="curve" smooth="yes"/>
      <point x="42" y="304"/>
      <point x="39" y="352"/>
      <point x="35" y="399" type="curve"/>
    </contour>
    <contour>
      <point x="120" y="0" type="line"/>
      <point x="40" y="0" type="line"/>
      <point x="40" y="80" type="line"/>
      <point x="120" y="80" type="line"/>
    </contour>
  </outline>
</glyph>
<glyph name="quotedbl" format="1">
  <advance width="227"/>
  <unicode hex="0022"/>
  <outline>
    <contour>
      <point x="98" y="314" type="line"/>
      <point x="85" y="237" type="line"/>
      <point x="39" y="237" type="line"/>
      <point x="26" y="314" type="line"/>
      <point x="26" y="399" type="line"/>
      <point x="98" y="399" type="line"/>
    </contour>
    <contour>
      <point x="203" y="314" type="line"/>
      <point x="190" y="237" type="line"/>
      <point x="144" y="237" type="line"/>
      <point x="132" y="314" type="line"/>
      <point x="132" y="399" type="line"/>
      <point x="203" y="399" type="line"/>
    </contour>
  </outline>
</glyph>
<glyph name="numbersign" format="1">
  <advance width="266"/>
  <unicode hex="0023"/>
  <outline>
    <contour>
      <point x="262" y="294" type="line"/>
      <point x="262" y="244" type="line"/>
      <point x="215" y="244" type="line"/>
      <point x="197" y="163" type="line"/>
      <point x="239" y="163" type="line"/>
      <point x="239" y="113" type="line"/>
      <point x="186" y="113" type="line"/>
      <point x="160" y="0" type="line"/>
      <point x="109" y="0" type="line"/>
      <point x="134" y="113" type="line"/>
      <point x="91" y="113" type="line"/>
      <point x="65" y="0" type="line"/>
      <point x="14" y="0" type="line"/>
      <point x="40" y="113" type="line"/>
      <point x="3" y="113" type="line"/>
      <point x="3" y="163" type="line"/>
      <point x="51" y="163" type="line"/>
      <point x="69" y="244" type="line"/>
      <point x="26" y="244" type="line"/>
      <point x="26" y="294" type="line"/>
      <point x="80" y="294" type="line"/>
      <point x="105" y="407" type="line"/>
      <point x="157" y="407" type="line"/>
      <point x="131" y="294" type="line"/>
      <point x="175" y="294" type="line"/>
      <point x="200" y="407" type="line"/>
      <point x="252" y="407" type="line"/>
      <point x="226" y="294" type="line"/>
    </contour>
    <contour>
      <point x="102" y="163" type="line"/>
      <point x="146" y="163" type="line"/>
      <point x="163" y="244" type="line"/>
      <point x="120" y="244" type="line"/>
    </contour>
  </outline>
</glyph>
<glyph name="ampersand" format="1">
  <advance width="345"/>
  <unicode hex="0026"/>
  <outline>
    <contour>
      <point x="163" y="407" type="curve" smooth="yes"/>
      <point x="238" y="407"/>
      <point x="290" y="364"/>
      <point x="290" y="297" type="curve" smooth="yes"/>
      <point x="290" y="281" type="line"/>
      <point x="220" y="281" type="line"/>
      <point x="220" y="292" type="line" smooth="yes"/>
      <point x="220" y="329"/>
      <point x="200" y="348"/>
      <point x="161" y="348" type="curve" smooth="yes"/>
      <point x="124" y="348"/>
      <point x="102" y="328"/>
      <point x="102" y="294" type="curve" smooth="yes"/>
      <point x="102" y="256"/>
      <point x="126" y="233"/>
      <point x="159" y="233" type="curve" smooth="yes"/>
      <point x="183" y="233" type="line"/>
      <point x="183" y="173" type="line"/>
      <point x="161" y="173" type="line" smooth="yes"/>
      <point x="125" y="173"/>
      <point x="94" y="161"/>
      <point x="94" y="111" type="curve" smooth="yes"/>
      <point x="94" y="71"/>
      <point x="119" y="52"/>
      <point x="158" y="52" type="curve" smooth="yes"/>
      <point x="200" y="52"/>
      <point x="220" y="73"/>
      <point x="220" y="111" type="curve" smooth="yes"/>
      <point x="220" y="233" type="line"/>
      <point x="336" y="233" type="line"/>
      <point x="336" y="173" type="line"/>
      <point x="290" y="173" type="line"/>
      <point x="290" y="113" type="line" smooth="yes"/>
      <point x="290" y="40"/>
      <point x="244" y="-7"/>
      <point x="157" y="-7" type="curve" smooth="yes"/>
      <point x="78" y="-7"/>
      <point x="21" y="36"/>
      <point x="21" y="107" type="curve" smooth="yes"/>
      <point x="21" y="160"/>
      <point x="50" y="192"/>
      <point x="89" y="205" type="curve"/>
      <point x="89" y="208" type="line"/>
      <point x="55" y="224"/>
      <point x="29" y="250"/>
      <point x="29" y="297" type="curve" smooth="yes"/>
      <point x="29" y="368"/>
      <point x="83" y="407"/>
    </contour>
  </outline>
</glyph>
<glyph name="quotesingle" format="1">
  <advance width="113"/>
  <unicode hex="0027"/>
  <outline>
    <contour>
      <point x="93" y="314" type="line"/>
      <point x="80" y="237" type="line"/>
      <point x="34" y="237" type="line"/>
      <point x="22" y="314" type="line"/>
      <point x="22" y="399" type="line"/>
      <point x="93" y="399" type="line"/>
    </contour>
  </outline>
</glyph>
<glyph name="parenright" format="1">
  <advance width="159"/>
  <unicode hex="0029"/>
  <outline>
    <contour>
      <point x="55" y="428" type="line"/>
      <point x="111" y="357"/>
      <point x="142" y="264"/>
      <point x="142" y="168" type="curve" smooth="yes"/>
      <point x="142" y="72"/>
      <point x="111" y="-20"/>
      <point x="55" y="-92" type="curve"/>
      <point x="9" y="-92" type="line"/>
      <point x="47" y="-20"/>
      <point x="78" y="78"/>
      <point x="78" y="169" type="curve" smooth="yes"/>
      <point x="78" y="260"/>
      <point x="47" y="357"/>
      <point x="9" y="428" type="curve"/>
    </contour>
  </outline>
</glyph>
<glyph name="asterisk" format="1">
  <advance width="186"/>
  <unicode hex="002A"/>
  <outline>
    <contour>
      <point x="159" y="374" type="line"/>
      <point x="182" y="336" type="line"/>
      <point x="128" y="310" type="line"/>
      <point x="182" y="286" type="line"/>
      <point x="159" y="246" type="line"/>
      <point x="110" y="281" type="line"/>
      <point x="116" y="222" type="line"/>
      <point x="71" y="222" type="line"/>
      <point x="76" y="281" type="line"/>
      <point x="28" y="246" type="line"/>
      <point x="5" y="286" type="line"/>
      <point x="59" y="310" type="line"/>
      <point x="5" y="336" type="line"/>
      <point x="28" y="374" type="line"/>
      <point x="76" y="340" type="line"/>
      <point x="71" y="399" type="line"/>
      <point x="116" y="399" type="line"/>
      <point x="110" y="341" type="line"/>
    </contour>
  </outline>
</glyph>
<glyph name="plus" format="1">
  <advance width="279"/>
  <unicode hex="002B"/>
  <outline>
    <contour>
      <point x="259" y="179" type="line"/>
      <point x="259" y="118" type="line"/>
      <point x="169" y="118" type="line"/>
      <point x="169" y="0" type="line"/>
      <point x="109" y="0" type="line"/>
      <point x="109" y="118" type="line"/>
      <point x="19" y="118" type="line"/>
      <point x="19" y="179" type="line"/>
      <point x="109" y="179" type="line"/>
      <point x="109" y="298" type="line"/>
      <point x="169" y="298" type="line"/>
      <point x="169" y="179" type="line"/>
    </contour>
  </outline>
</glyph>
<glyph name="hyphen" format="1">
  <advance width="159"/>
  <unicode hex="002D"/>
  <outline>
    <contour>
      <point x="9" y="123" type="line"/>
      <point x="9" y="192" type="line"/>
      <point x="150" y="192" type="line"/>
      <point x="150" y="123" type="line"/>
    </contour>
  </outline>
</glyph>
<glyph name="zero" format="1">
  <advance width="266"/>
  <unicode hex="0030"/>
  <outline>
    <contour>
      <point x="133" y="407" type="curve" smooth="yes"/>
      <point x="204" y="407"/>
      <point x="248" y="362"/>
      <point x="248" y="200" type="curve" smooth="yes"/>
      <point x="248" y="38"/>
      <point x="204" y="-7"/>
      <point x="133" y="-7" type="curve" smooth="yes"/>
      <point x="61" y="-7"/>
      <point x="18" y="38"/>
      <point x="18" y="200" type="curve" smooth="yes"/>
      <point x="18" y="362"/>
      <point x="61" y="407"/>
    </contour>
    <contour>
      <point x="133" y="348" type="curve" smooth="yes"/>
      <point x="98" y="348"/>
      <point x="90" y="308"/>
      <point x="90" y="220" type="curve" smooth="yes"/>
      <point x="90" y="179" type="line" smooth="yes"/>
      <point x="90" y="92"/>
      <point x="98" y="52"/>
      <point x="133" y="52" type="curve" smooth="yes"/>
      <point x="168" y="52"/>
      <point x="175" y="92"/>
      <point x="175" y="179" type="curve" smooth="yes"/>
      <point x="175" y="220" type="line" smooth="yes"/>
      <point x="175" y="308"/>
      <point x="168" y="348"/>
    </contour>
  </outline>
</glyph>
<glyph name="four" format="1">
  <advance width="266"/>
  <unicode hex="0034"/>
  <outline>
    <contour>
      <point x="175" y="407" type="line"/>
      <point x="153" y="303"/>
      <point x="88" y="181"/>
      <point x="65" y="149" type="curve"/>
      <point x="148" y="149" type="line"/>
      <point x="148" y="239" type="line"/>
      <point x="163" y="269"/>
      <point x="180" y="316"/>
      <point x="188" y="347" type="curve"/>
      <point x="218" y="347" type="line"/>
      <point x="218" y="149" type="line"/>
      <point x="259" y="149" type="line"/>
      <point x="259" y="90" type="line"/>
      <point x="218" y="90" type="line"/>
      <point x="218" y="0" type="line"/>
      <point x="148" y="0" type="line"/>
      <point x="148" y="90" type="line"/>
      <point x="5" y="90" type="line"/>
      <point x="5" y="146" type="line"/>
      <point x="47" y="220"/>
      <point x="82" y="318"/>
      <point x="105" y="407" type="curve"/>
    </contour>
  </outline>
</glyph>
<glyph name="five" format="1">
  <advance width="266"/>
  <unicode hex="0035"/>
  <outline>
    <contour>
      <point x="103" y="334" type="line"/>
      <point x="98" y="240" type="line"/>
      <point x="109" y="249"/>
      <point x="127" y="260"/>
      <point x="155" y="260" type="curve" smooth="yes"/>
      <point x="209" y="260"/>
      <point x="252" y="218"/>
      <point x="252" y="130" type="curve" smooth="yes"/>
      <point x="252" y="43"/>
      <point x="208" y="-7"/>
      <point x="135" y="-7" type="curve" smooth="yes"/>
      <point x="64" y="-7"/>
      <point x="18" y="43"/>
      <point x="18" y="124" type="curve"/>
      <point x="90" y="124" type="line"/>
      <point x="90" y="80"/>
      <point x="107" y="51"/>
      <point x="135" y="51" type="curve" smooth="yes"/>
      <point x="162" y="51"/>
      <point x="180" y="78"/>
      <point x="180" y="130" type="curve" smooth="yes"/>
      <point x="180" y="177"/>
      <point x="163" y="203"/>
      <point x="139" y="203" type="curve" smooth="yes"/>
      <point x="118" y="203"/>
      <point x="105" y="188"/>
      <point x="96" y="169" type="curve"/>
      <point x="28" y="179" type="line"/>
      <point x="42" y="399" type="line"/>
      <point x="235" y="399" type="line"/>
      <point x="235" y="334" type="line"/>
    </contour>
  </outline>
</glyph>
<glyph name="colon" format="1">
  <advance width="159"/>
  <unicode hex="003A"/>
  <outline>
    <contour>
      <point x="32" y="227" type="line"/>
      <point x="32" y="306" type="line"/>
      <point x="113" y="306" type="line"/>
      <point x="113" y="227" type="line"/>
    </contour>
    <contour>
      <point x="32" y="0" type="line"/>
      <point x="32" y="80" type="line"/>
      <point x="113" y="80" type="line"/>
      <point x="113" y="0" type="line"/>
    </contour>
  </outline>
</glyph>
<glyph name="semicolon" format="1">
  <advance width="159"/>
  <unicode hex="003B"/>
  <outline>
    <contour>
      <point x="32" y="227" type="line"/>
      <point x="32" y="306" type="line"/>
      <point x="113" y="306" type="line"/>
      <point x="113" y="227" type="line"/>
    </contour>
    <contour>
      <point x="73" y="-91" type="line"/>
      <point x="32" y="-91" type="line"/>
      <point x="63" y="0" type="line"/>
      <point x="32" y="0" type="line"/>
      <point x="32" y="80" type="line"/>
      <point x="112" y="80" type="line"/>
      <point x="112" y="7" type="line"/>
    </contour>
  </outline>
</glyph>
<glyph name="less" format="1">
  <advance width="279"/>
  <unicode hex="003C"/>
  <outline>
    <contour>
      <point x="78" y="152" type="line"/>
      <point x="260" y="63" type="line"/>
      <point x="260" y="-5" type="line"/>
      <point x="20" y="115" type="line"/>
      <point x="20" y="188" type="line"/>
      <point x="260" y="309" type="line"/>
      <point x="260" y="241" type="line"/>
    </contour>
  </outline>
</glyph>
<glyph name="equal" format="1">
  <advance width="279"/>
  <unicode hex="003D"/>
  <outline>
    <contour>
      <point x="19" y="179" type="line"/>
      <point x="19" y="240" type="line"/>
      <point x="259" y="240" type="line"/>
      <point x="259" y="179" type="line"/>
    </contour>
    <contour>
      <point x="19" y="56" type="line"/>
      <point x="19" y="116" type="line"/>
      <point x="259" y="116" type="line"/>
      <point x="259" y="56" type="line"/>
    </contour>
  </outline>
</glyph>
<glyph name="question" format="1">
  <advance width="292"/>
  <unicode hex="003F"/>
  <outline>
    <contour>
      <point x="152" y="407" type="curve" smooth="yes"/>
      <point x="221" y="407"/>
      <point x="264" y="364"/>
      <point x="264" y="303" type="curve" smooth="yes"/>
      <point x="264" y="246"/>
      <point x="242" y="220"/>
      <point x="222" y="197" type="curve" smooth="yes"/>
      <point x="206" y="179"/>
      <point x="191" y="161"/>
      <point x="191" y="131" type="curve" smooth="yes"/>
      <point x="191" y="115" type="line"/>
      <point x="118" y="115" type="line"/>
      <point x="118" y="140" type="line" smooth="yes"/>
      <point x="118" y="174"/>
      <point x="135" y="194"/>
      <point x="152" y="215" type="curve" smooth="yes"/>
      <point x="170" y="236"/>
      <point x="188" y="258"/>
      <point x="188" y="297" type="curve" smooth="yes"/>
      <point x="188" y="308"/>
      <point x="183" y="344"/>
      <point x="147" y="344" type="curve" smooth="yes"/>
      <point x="108" y="344"/>
      <point x="102" y="304"/>
      <point x="102" y="283" type="curve" smooth="yes"/>
      <point x="102" y="273"/>
      <point x="103" y="268"/>
      <point x="103" y="268" type="curve"/>
      <point x="29" y="268" type="line"/>
      <point x="29" y="268"/>
      <point x="28" y="281"/>
      <point x="28" y="288" type="curve" smooth="yes"/>
      <point x="28" y="353"/>
      <point x="68" y="407"/>
    </contour>
    <contour>
      <point x="115" y="0" type="line"/>
      <point x="115" y="80" type="line"/>
      <point x="195" y="80" type="line"/>
      <point x="195" y="0" type="line"/>
    </contour>
  </outline>
</glyph>
<glyph name="B" format="1">
  <advance width="345"/>
  <unicode hex="0042"/>
  <outline>
    <contour>
      <point x="207" y="399" type="line" smooth="yes"/>
      <point x="270" y="399"/>
      <point x="316" y="359"/>
      <point x="316" y="301" type="curve" smooth="yes"/>
      <point x="316" y="254"/>
      <point x="289" y="222"/>
      <point x="254" y="210" type="curve"/>
      <point x="254" y="208" type="line"/>
      <point x="294" y="195"/>
      <point x="325" y="158"/>
      <point x="325" y="107" type="curve" smooth="yes"/>
      <point x="325" y="40"/>
      <point x="271" y="0"/>
      <point x="207" y="0" type="curve" smooth="yes"/>
      <point x="35" y="0" type="line"/>
      <point x="35" y="399" type="line"/>
    </contour>
    <contour>
      <point x="109" y="238" type="line"/>
      <point x="186" y="238" type="line" smooth="yes"/>
      <point x="222" y="238"/>
      <point x="239" y="260"/>
      <point x="239" y="287" type="curve" smooth="yes"/>
      <point x="239" y="318"/>
      <point x="219" y="333"/>
      <point x="190" y="333" type="curve" smooth="yes"/>
      <point x="109" y="333" type="line"/>
    </contour>
    <contour>
      <point x="109" y="67" type="line"/>
      <point x="194" y="67" type="line" smooth="yes"/>
      <point x="225" y="67"/>
      <point x="248" y="84"/>
      <point x="248" y="117" type="curve" smooth="yes"/>
      <point x="248" y="148"/>
      <point x="230" y="172"/>
      <point x="191" y="172" type="curve" smooth="yes"/>
      <point x="109" y="172" type="line"/>
    </contour>
  </outline>
</glyph>
<glyph name="C" format="1">
  <advance width="345"/>
  <unicode hex="0043"/>
  <outline>
    <contour>
      <point x="173" y="0" type="move" name="Anchor-1"/>
    </contour>
    <contour>
      <point x="173" y="399" type="move" name="Anchor-0"/>
    </contour>
    <contour>
      <point x="179" y="407" type="curve" smooth="yes"/>
      <point x="262" y="407"/>
      <point x="326" y="359"/>
      <point x="326" y="251" type="curve"/>
      <point x="249" y="251" type="line"/>
      <point x="249" y="313"/>
      <point x="221" y="343"/>
      <point x="179" y="343" type="curve" smooth="yes"/>
      <point x="123" y="343"/>
      <point x="97" y="294"/>
      <point x="97" y="214" type="curve" smooth="yes"/>
      <point x="97" y="185" type="line" smooth="yes"/>
      <point x="97" y="105"/>
      <point x="124" y="57"/>
      <point x="181" y="57" type="curve" smooth="yes"/>
      <point x="224" y="57"/>
      <point x="253" y="86"/>
      <point x="253" y="148" type="curve"/>
      <point x="326" y="148" type="line"/>
      <point x="326" y="43"/>
      <point x="264" y="-7"/>
      <point x="179" y="-7" type="curve" smooth="yes"/>
      <point x="78" y="-7"/>
      <point x="20" y="59"/>
      <point x="20" y="200" type="curve" smooth="yes"/>
      <point x="20" y="341"/>
      <point x="78" y="407"/>
    </contour>
  </outline>
</glyph>
<glyph name="F" format="1">
  <advance width="292"/>
  <unicode hex="0046"/>
  <outline>
    <contour>
      <point x="35" y="399" type="line"/>
      <point x="270" y="399" type="line"/>
      <point x="270" y="333" type="line"/>
      <point x="109" y="333" type="line"/>
      <point x="109" y="233" type="line"/>
      <point x="246" y="233" type="line"/>
      <point x="246" y="166" type="line"/>
      <point x="109" y="166" type="line"/>
      <point x="109" y="0" type="line"/>
      <point x="35" y="0" type="line"/>
    </contour>
  </outline>
</glyph>
<glyph name="I" format="1">
  <advance width="133"/>
  <unicode hex="0049"/>
  <outline>
    <contour>
      <point x="0" y="0" type="move" name="Anchor-1"/>
    </contour>
    <contour>
      <point x="67" y="399" type="move" name="Anchor-0"/>
    </contour>
    <contour>
      <point x="29" y="0" type="line"/>
      <point x="29" y="399" type="line"/>
      <point x="103" y="399" type="line"/>
      <point x="103" y="0" type="line"/>
    </contour>
  </outline>
</glyph>
<glyph name="P" format="1">
  <advance width="319"/>
  <unicode hex="0050"/>
  <outline>
    <contour>
      <point x="109" y="0" type="line"/>
      <point x="35" y="0" type="line"/>
      <point x="35" y="399" type="line"/>
      <point x="178" y="399" type="line" smooth="yes"/>
      <point x="260" y="399"/>
      <point x="303" y="349"/>
      <point x="303" y="279" type="curve" smooth="yes"/>
      <point x="303" y="204"/>
      <point x="253" y="155"/>
      <point x="178" y="155" type="curve" smooth="yes"/>
      <point x="109" y="155" type="line"/>
    </contour>
    <contour>
      <point x="109" y="221" type="line"/>
      <point x="170" y="221" type="line" smooth="yes"/>
      <point x="206" y="221"/>
      <point x="226" y="243"/>
      <point x="226" y="279" type="curve" smooth="yes"/>
      <point x="226" y="312"/>
      <point x="206" y="333"/>
      <point x="170" y="333" type="curve" smooth="yes"/>
      <point x="109" y="333" type="line"/>
    </contour>
  </outline>
</glyph>
<glyph name="R" format="1">
  <advance width="345"/>
  <unicode hex="0052"/>
  <outline>
    <contour>
      <point x="173" y="0" type="move" name="Anchor-1"/>
    </contour>
    <contour>
      <point x="173" y="399" type="move" name="Anchor-0"/>
    </contour>
    <contour>
      <point x="202" y="399" type="line" smooth="yes"/>
      <point x="283" y="399"/>
      <point x="324" y="351"/>
      <point x="324" y="285" type="curve" smooth="yes"/>
      <point x="324" y="237"/>
      <point x="299" y="200"/>
      <point x="258" y="183" type="curve"/>
      <point x="334" y="0" type="line"/>
      <point x="254" y="0" type="line"/>
      <point x="187" y="167" type="line"/>
      <point x="109" y="167" type="line"/>
      <point x="109" y="0" type="line"/>
      <point x="35" y="0" type="line"/>
      <point x="35" y="399" type="line"/>
    </contour>
    <contour>
      <point x="109" y="333" type="line"/>
      <point x="109" y="233" type="line"/>
      <point x="192" y="233" type="line" smooth="yes"/>
      <point x="228" y="233"/>
      <point x="244" y="252"/>
      <point x="244" y="285" type="curve" smooth="yes"/>
      <point x="244" y="314"/>
      <point x="229" y="333"/>
      <point x="194" y="333" type="curve" smooth="yes"/>
    </contour>
  </outline>
</glyph>
<glyph name="T" format="1">
  <advance width="292"/>
  <unicode hex="0054"/>
  <outline>
    <contour>
      <point x="146" y="0" type="move" name="Anchor-1"/>
    </contour>
    <contour>
      <point x="146" y="399" type="move" name="Anchor-0"/>
    </contour>
    <contour>
      <point x="283" y="333" type="line"/>
      <point x="183" y="333" type="line"/>
      <point x="183" y="0" type="line"/>
      <point x="109" y="0" type="line"/>
      <point x="109" y="333" type="line"/>
      <point x="10" y="333" type="line"/>
      <point x="10" y="399" type="line"/>
      <point x="283" y="399" type="line"/>
    </contour>
  </outline>
</glyph>
<glyph name="V" format="1">
  <advance width="319"/>
  <unicode hex="0056"/>
  <outline>
    <contour>
      <point x="122" y="0" type="line"/>
      <point x="0" y="399" type="line"/>
      <point x="77" y="399" type="line"/>
      <point x="161" y="113" type="line"/>
      <point x="163" y="113" type="line"/>
      <point x="246" y="399" type="line"/>
      <point x="319" y="399" type="line"/>
      <point x="197" y="0" type="line"/>
    </contour>
  </outline>
</glyph>
<glyph name="X" format="1">
  <advance width="319"/>
  <unicode hex="0058"/>
  <outline>
    <contour>
      <point x="204" y="211" type="line"/>
      <point x="318" y="0" type="line"/>
      <point x="235" y="0" type="line"/>
      <point x="158" y="151" type="line"/>
      <point x="155" y="151" type="line"/>
      <point x="78" y="0" type="line"/>
      <point x="0" y="0" type="line"/>
      <point x="113" y="210" type="line"/>
      <point x="11" y="399" type="line"/>
      <point x="94" y="399" type="line"/>
      <point x="161" y="269" type="line"/>
      <point x="163" y="269" type="line"/>
      <point x="230" y="399" type="line"/>
      <point x="308" y="399" type="line"/>
    </contour>
  </outline>
</glyph>
<glyph name="bracketright" format="1">
  <advance width="159"/>
  <unicode hex="005D"/>
  <outline>
    <contour>
      <point x="14" y="-94" type="line"/>
      <point x="14" y="-38" type="line"/>
      <point x="63" y="-38" type="line"/>
      <point x="63" y="373" type="line"/>
      <point x="14" y="373" type="line"/>
      <point x="14" y="428" type="line"/>
      <point x="130" y="428" type="line"/>
      <point x="130" y="-94" type="line"/>
    </contour>
  </outline>
</glyph>
<glyph name="asciicircum" format="1">
  <advance width="279"/>
  <unicode hex="005E"/>
  <outline>
    <contour>
      <point x="199" y="171" type="line"/>
      <point x="140" y="329" type="line"/>
      <point x="83" y="171" type="line"/>
      <point x="18" y="171" type="line"/>
      <point x="109" y="399" type="line"/>
      <point x="172" y="399" type="line"/>
      <point x="264" y="171" type="line"/>
    </contour>
  </outline>
</glyph>
<glyph name="grave" format="1">
  <advance width="159"/>
  <unicode hex="0060"/>
  <outline>
    <contour>
      <point x="75" y="344" type="line"/>
      <point x="13" y="419" type="line"/>
      <point x="13" y="421" type="line"/>
      <point x="83" y="421" type="line"/>
      <point x="133" y="344" type="line"/>
    </contour>
  </outline>
</glyph>
<glyph name="d" format="1">
  <advance width="292"/>
  <unicode hex="0064"/>
  <outline>
    <contour>
      <point x="202" y="0" type="line"/>
      <point x="194" y="38" type="line"/>
      <point x="192" y="38" type="line"/>
      <point x="177" y="8"/>
      <point x="152" y="-7"/>
      <point x="123" y="-7" type="curve" smooth="yes"/>
      <point x="62" y="-7"/>
      <point x="24" y="43"/>
      <point x="24" y="154" type="curve" smooth="yes"/>
      <point x="24" y="265"/>
      <point x="65" y="314"/>
      <point x="119" y="314" type="curve" smooth="yes"/>
      <point x="150" y="314"/>
      <point x="176" y="299"/>
      <point x="187" y="275" type="curve"/>
      <point x="190" y="275" type="line"/>
      <point x="190" y="421" type="line"/>
      <point x="260" y="421" type="line"/>
      <point x="260" y="0" type="line"/>
    </contour>
    <contour>
      <point x="143" y="250" type="curve" smooth="yes"/>
      <point x="109" y="250"/>
      <point x="97" y="219"/>
      <point x="97" y="164" type="curve" smooth="yes"/>
      <point x="97" y="142" type="line" smooth="yes"/>
      <point x="97" y="87"/>
      <point x="109" y="57"/>
      <point x="143" y="57" type="curve" smooth="yes"/>
      <point x="177" y="57"/>
      <point x="190" y="87"/>
      <point x="190" y="142" type="curve" smooth="yes"/>
      <point x="190" y="163" type="line" smooth="yes"/>
      <point x="190" y="218"/>
      <point x="177" y="250"/>
    </contour>
  </outline>
</glyph>
<glyph name="i" format="1">
  <advance width="133"/>
  <unicode hex="0069"/>
  <outline>
    <contour>
      <point x="32" y="358" type="line"/>
      <point x="32" y="421" type="line"/>
      <point x="101" y="421" type="line"/>
      <point x="101" y="358" type="line"/>
    </contour>
    <contour>
      <point x="32" y="0" type="line"/>
      <point x="32" y="306" type="line"/>
      <point x="101" y="306" type="line"/>
      <point x="101" y="0" type="line"/>
    </contour>
  </outline>
</glyph>
<glyph name="k" format="1">
  <advance width="266"/>
  <unicode hex="006B"/>
  <outline>
    <contour>
      <point x="133" y="0" type="move" name="Anchor-1"/>
    </contour>
    <contour>
      <point x="0" y="0" type="move" name="Anchor-0"/>
    </contour>
    <contour>
      <point x="187" y="306" type="line"/>
      <point x="262" y="306" type="line"/>
      <point x="171" y="182" type="line"/>
      <point x="266" y="0" type="line"/>
      <point x="188" y="0" type="line"/>
      <point x="127" y="127" type="line"/>
      <point x="101" y="96" type="line"/>
      <point x="101" y="0" type="line"/>
      <point x="32" y="0" type="line"/>
      <point x="32" y="421" type="line"/>
      <point x="101" y="421" type="line"/>
      <point x="101" y="185" type="line"/>
    </contour>
  </outline>
</glyph>
<glyph name="l" format="1">
  <advance width="133"/>
  <unicode hex="006C"/>
  <outline>
    <contour>
      <point x="67" y="0" type="move" name="Anchor-1"/>
    </contour>
    <contour>
      <point x="67" y="306" type="move" name="Anchor-0"/>
    </contour>
    <contour>
      <point x="32" y="0" type="line"/>
      <point x="32" y="421" type="line"/>
      <point x="101" y="421" type="line"/>
      <point x="101" y="0" type="line"/>
    </contour>
  </outline>
</glyph>
<glyph name="p" format="1">
  <advance width="292"/>
  <unicode hex="0070"/>
  <outline>
    <contour>
      <point x="169" y="314" type="curve" smooth="yes"/>
      <point x="230" y="314"/>
      <point x="268" y="264"/>
      <point x="268" y="153" type="curve" smooth="yes"/>
      <point x="268" y="42"/>
      <point x="227" y="-7"/>
      <point x="173" y="-7" type="curve" smooth="yes"/>
      <point x="142" y="-7"/>
      <point x="116" y="7"/>
      <point x="105" y="32" type="curve"/>
      <point x="102" y="32" type="line"/>
      <point x="102" y="-101" type="line"/>
      <point x="32" y="-101" type="line"/>
      <point x="32" y="306" type="line"/>
      <point x="90" y="306" type="line"/>
      <point x="98" y="269" type="line"/>
      <point x="100" y="269" type="line"/>
      <point x="115" y="299"/>
      <point x="140" y="314"/>
    </contour>
    <contour>
      <point x="148" y="250" type="curve" smooth="yes"/>
      <point x="115" y="250"/>
      <point x="102" y="219"/>
      <point x="102" y="164" type="curve" smooth="yes"/>
      <point x="102" y="143" type="line" smooth="yes"/>
      <point x="102" y="88"/>
      <point x="115" y="57"/>
      <point x="148" y="57" type="curve" smooth="yes"/>
      <point x="183" y="57"/>
      <point x="195" y="87"/>
      <point x="195" y="142" type="curve" smooth="yes"/>
      <point x="195" y="164" type="line" smooth="yes"/>
      <point x="195" y="219"/>
      <point x="183" y="250"/>
    </contour>
  </outline>
</glyph>
<glyph name="braceleft" format="1">
  <advance width="186"/>
  <unicode hex="007B"/>
  <outline>
    <contour>
      <point x="173" y="384" type="line"/>
      <point x="153" y="384"/>
      <point x="128" y="378"/>
      <point x="128" y="348" type="curve" smooth="yes"/>
      <point x="128" y="320"/>
      <point x="126" y="293"/>
      <point x="125" y="266" type="curve" smooth="yes"/>
      <point x="124" y="255"/>
      <point x="124" y="244"/>
      <point x="123" y="233" type="curve" smooth="yes"/>
      <point x="123" y="194"/>
      <point x="106" y="171"/>
      <point x="61" y="171" type="curve"/>
      <point x="61" y="165" type="line"/>
      <point x="106" y="165"/>
      <point x="122" y="142"/>
      <point x="123" y="102" type="curve" smooth="yes"/>
      <point x="124" y="92"/>
      <point x="124" y="82"/>
      <point x="125" y="71" type="curve" smooth="yes"/>
      <point x="126" y="43"/>
      <point x="128" y="16"/>
      <point x="128" y="-13" type="curve" smooth="yes"/>
      <point x="128" y="-42"/>
      <point x="153" y="-47"/>
      <point x="173" y="-47" type="curve"/>
      <point x="173" y="-93" type="line"/>
      <point x="113" y="-93"/>
      <point x="59" y="-80"/>
      <point x="59" y="-7" type="curve" smooth="yes"/>
      <point x="59" y="106" type="line" smooth="yes"/>
      <point x="59" y="132"/>
      <point x="35" y="141"/>
      <point x="14" y="141" type="curve"/>
      <point x="14" y="194" type="line"/>
      <point x="35" y="194"/>
      <point x="59" y="204"/>
      <point x="59" y="229" type="curve" smooth="yes"/>
      <point x="59" y="342" type="line" smooth="yes"/>
      <point x="59" y="415"/>
      <point x="113" y="428"/>
      <point x="173" y="428" type="curve"/>
    </contour>
  </outline>
</glyph>
<glyph name="cent" format="1">
  <advance width="266"/>
  <unicode hex="00A2"/>
  <outline>
    <contour>
      <point x="153" y="359" type="line"/>
      <point x="209" y="354"/>
      <point x="244" y="316"/>
      <point x="244" y="238" type="curve"/>
      <point x="180" y="238" type="line"/>
      <point x="180" y="273"/>
      <point x="171" y="294"/>
      <point x="153" y="301" type="curve"/>
      <point x="153" y="98" type="line"/>
      <point x="173" y="103"/>
      <point x="183" y="125"/>
      <point x="183" y="162" type="curve"/>
      <point x="244" y="162" type="line"/>
      <point x="244" y="82"/>
      <point x="209" y="45"/>
      <point x="153" y="40" type="curve"/>
      <point x="153" y="-28" type="line"/>
      <point x="121" y="-28" type="line"/>
      <point x="121" y="41" type="line"/>
      <point x="54" y="48"/>
      <point x="24" y="99"/>
      <point x="24" y="200" type="curve" smooth="yes"/>
      <point x="24" y="301"/>
      <point x="56" y="352"/>
      <point x="121" y="359" type="curve"/>
      <point x="121" y="421" type="line"/>
      <point x="153" y="421" type="line"/>
    </contour>
    <contour>
      <point x="121" y="300" type="line"/>
      <point x="98" y="291"/>
      <point x="90" y="260"/>
      <point x="90" y="211" type="curve" smooth="yes"/>
      <point x="90" y="188" type="line" smooth="yes"/>
      <point x="90" y="140"/>
      <point x="99" y="110"/>
      <point x="121" y="100" type="curve"/>
    </contour>
  </outline>
</glyph>
<glyph name="yen" format="1">
  <advance width="266"/>
  <unicode hex="00A5"/>
  <outline>
    <contour>
      <point x="249" y="224" type="line"/>
      <point x="249" y="177" type="line"/>
      <point x="168" y="177" type="line"/>
      <point x="168" y="136" type="line"/>
      <point x="249" y="136" type="line"/>
      <point x="249" y="89" type="line"/>
      <point x="168" y="89" type="line"/>
      <point x="168" y="0" type="line"/>
      <point x="98" y="0" type="line"/>
      <point x="98" y="89" type="line"/>
      <point x="16" y="89" type="line"/>
      <point x="16" y="136" type="line"/>
      <point x="98" y="136" type="line"/>
      <point x="98" y="177" type="line"/>
      <point x="16" y="177" type="line"/>
      <point x="16" y="224" type="line"/>
      <point x="78" y="224" type="line"/>
      <point x="3" y="399" type="line"/>
      <point x="78" y="399" type="line"/>
      <point x="133" y="246" type="line"/>
      <point x="136" y="246" type="line"/>
      <point x="190" y="399" type="line"/>
      <point x="263" y="399" type="line"/>
      <point x="188" y="224" type="line"/>
    </contour>
  </outline>
</glyph>
<glyph name="brokenbar" format="1">
  <advance width="134"/>
  <unicode hex="00A6"/>
  <outline>
    <contour>
      <point x="41" y="204" type="line"/>
      <point x="41" y="421" type="line"/>
      <point x="93" y="421" type="line"/>
      <point x="93" y="204" type="line"/>
    </contour>
    <contour>
      <point x="41" y="-101" type="line"/>
      <point x="41" y="116" type="line"/>
      <point x="93" y="116" type="line"/>
      <point x="93" y="-101" type="line"/>
    </contour>
  </outline>
</glyph>
<glyph name="dieresis" format="1">
  <advance width="159"/>
  <unicode hex="00A8"/>
  <outline>
    <contour>
      <point x="-1" y="358" type="line"/>
      <point x="-1" y="421" type="line"/>
      <point x="58" y="421" type="line"/>
      <point x="58" y="358" type="line"/>
    </contour>
    <contour>
      <point x="101" y="358" type="line"/>
      <point x="101" y="421" type="line"/>
      <point x="159" y="421" type="line"/>
      <point x="159" y="358" type="line"/>
    </contour>
  </outline>
</glyph>
<glyph name="copyright" format="1">
  <advance width="352"/>
  <unicode hex="00A9"/>
  <outline>
    <contour>
      <point x="176" y="407" type="curve" smooth="yes"/>
      <point x="279" y="407"/>
      <point x="343" y="326"/>
      <point x="343" y="200" type="curve" smooth="yes"/>
      <point x="343" y="74"/>
      <point x="279" y="-7"/>
      <point x="176" y="-7" type="curve" smooth="yes"/>
      <point x="72" y="-7"/>
      <point x="9" y="74"/>
      <point x="9" y="200" type="curve" smooth="yes"/>
      <point x="9" y="326"/>
      <point x="72" y="407"/>
    </contour>
    <contour>
      <point x="176" y="374" type="curve" smooth="yes"/>
      <point x="93" y="374"/>
      <point x="42" y="306"/>
      <point x="42" y="200" type="curve" smooth="yes"/>
      <point x="42" y="93"/>
      <point x="93" y="25"/>
      <point x="176" y="25" type="curve" smooth="yes"/>
      <point x="259" y="25"/>
      <point x="310" y="93"/>
      <point x="310" y="200" type="curve" smooth="yes"/>
      <point x="310" y="306"/>
      <point x="259" y="374"/>
    </contour>
    <contour>
      <point x="177" y="322" type="curve" smooth="yes"/>
      <point x="227" y="322"/>
      <point x="264" y="294"/>
      <point x="264" y="230" type="curve"/>
      <point x="214" y="230" type="line"/>
      <point x="214" y="263"/>
      <point x="198" y="279"/>
      <point x="177" y="279" type="curve" smooth="yes"/>
      <point x="148" y="279"/>
      <point x="134" y="252"/>
      <point x="134" y="208" type="curve" smooth="yes"/>
      <point x="134" y="192" type="line" smooth="yes"/>
      <point x="134" y="148"/>
      <point x="149" y="122"/>
      <point x="179" y="122" type="curve" smooth="yes"/>
      <point x="200" y="122"/>
      <point x="215" y="137"/>
      <point x="215" y="169" type="curve"/>
      <point x="264" y="169" type="line"/>
      <point x="264" y="108"/>
      <point x="227" y="78"/>
      <point x="177" y="78" type="curve" smooth="yes"/>
      <point x="118" y="78"/>
      <point x="83" y="117"/>
      <point x="83" y="200" type="curve" smooth="yes"/>
      <point x="83" y="283"/>
      <point x="118" y="322"/>
    </contour>
  </outline>
</glyph>
<glyph name="ordfeminine" format="1">
  <advance width="177"/>
  <unicode hex="00AA"/>
  <outline>
    <contour>
      <point x="88" y="428" type="curve" smooth="yes"/>
      <point x="136" y="428"/>
      <point x="158" y="405"/>
      <point x="158" y="366" type="curve" smooth="yes"/>
      <point x="158" y="268" type="line" smooth="yes"/>
      <point x="158" y="258"/>
      <point x="163" y="254"/>
      <point x="169" y="254" type="curve" smooth="yes"/>
      <point x="179" y="254" type="line"/>
      <point x="179" y="217" type="line"/>
      <point x="179" y="217"/>
      <point x="178" y="217"/>
      <point x="178" y="217" type="curve" smooth="yes"/>
      <point x="172" y="215"/>
      <point x="164" y="212"/>
      <point x="151" y="212" type="curve" smooth="yes"/>
      <point x="132" y="212"/>
      <point x="119" y="223"/>
      <point x="115" y="239" type="curve"/>
      <point x="113" y="239" type="line"/>
      <point x="101" y="222"/>
      <point x="88" y="212"/>
      <point x="60" y="212" type="curve" smooth="yes"/>
      <point x="41" y="212"/>
      <point x="8" y="221"/>
      <point x="8" y="270" type="curve" smooth="yes"/>
      <point x="8" y="325"/>
      <point x="49" y="342"/>
      <point x="108" y="342" type="curve"/>
      <point x="108" y="364" type="line" smooth="yes"/>
      <point x="108" y="376"/>
      <point x="105" y="387"/>
      <point x="89" y="387" type="curve" smooth="yes"/>
      <point x="72" y="387"/>
      <point x="67" y="376"/>
      <point x="67" y="368" type="curve" smooth="yes"/>
      <point x="67" y="362" type="line"/>
      <point x="18" y="362" type="line"/>
      <point x="18" y="370" type="line" smooth="yes"/>
      <point x="18" y="405"/>
      <point x="45" y="428"/>
    </contour>
    <contour>
      <point x="108" y="308" type="line"/>
      <point x="83" y="308"/>
      <point x="59" y="301"/>
      <point x="59" y="273" type="curve" smooth="yes"/>
      <point x="59" y="261"/>
      <point x="65" y="253"/>
      <point x="80" y="253" type="curve" smooth="yes"/>
      <point x="100" y="253"/>
      <point x="108" y="273"/>
      <point x="108" y="296" type="curve" smooth="yes"/>
    </contour>
  </outline>
</glyph>
<glyph name="macron" format="1">
  <advance width="159"/>
  <unicode hex="00AF"/>
  <outline>
    <contour>
      <point x="5" y="349" type="line"/>
      <point x="5" y="399" type="line"/>
      <point x="154" y="399" type="line"/>
      <point x="154" y="349" type="line"/>
    </contour>
  </outline>
</glyph>
<glyph name="degree" format="1">
  <advance width="233"/>
  <unicode hex="00B0"/>
  <outline>
    <contour>
      <point x="115" y="407" type="curve" smooth="yes"/>
      <point x="161" y="407"/>
      <point x="198" y="370"/>
      <point x="198" y="324" type="curve" smooth="yes"/>
      <point x="198" y="278"/>
      <point x="161" y="241"/>
      <point x="115" y="241" type="curve" smooth="yes"/>
      <point x="69" y="241"/>
      <point x="33" y="278"/>
      <point x="33" y="324" type="curve" smooth="yes"/>
      <point x="33" y="370"/>
      <point x="69" y="407"/>
    </contour>
    <contour>
      <point x="115" y="366" type="curve" smooth="yes"/>
      <point x="92" y="366"/>
      <point x="72" y="348"/>
      <point x="72" y="324" type="curve" smooth="yes"/>
      <point x="72" y="300"/>
      <point x="92" y="281"/>
      <point x="115" y="281" type="curve" smooth="yes"/>
      <point x="139" y="281"/>
      <point x="158" y="300"/>
      <point x="158" y="324" type="curve" smooth="yes"/>
      <point x="158" y="348"/>
      <point x="139" y="366"/>
    </contour>
  </outline>
</glyph>
<glyph name="uni00B2" format="1">
  <advance width="159"/>
  <unicode hex="00B2"/>
  <outline>
    <contour>
      <point x="81" y="428" type="curve" smooth="yes"/>
      <point x="117" y="428"/>
      <point x="146" y="409"/>
      <point x="146" y="364" type="curve" smooth="yes"/>
      <point x="146" y="323"/>
      <point x="119" y="293"/>
      <point x="93" y="264" type="curve" smooth="yes"/>
      <point x="90" y="261"/>
      <point x="87" y="257"/>
      <point x="84" y="254" type="curve" smooth="yes"/>
      <point x="82" y="251"/>
      <point x="80" y="248"/>
      <point x="77" y="245" type="curve" smooth="yes"/>
      <point x="74" y="240"/>
      <point x="70" y="235"/>
      <point x="67" y="229" type="curve"/>
      <point x="148" y="229" type="line"/>
      <point x="148" y="186" type="line"/>
      <point x="9" y="186" type="line"/>
      <point x="9" y="197" type="line" smooth="yes"/>
      <point x="9" y="233"/>
      <point x="30" y="258"/>
      <point x="51" y="282" type="curve" smooth="yes"/>
      <point x="52" y="283"/>
      <point x="52" y="284"/>
      <point x="53" y="285" type="curve" smooth="yes"/>
      <point x="78" y="312"/>
      <point x="98" y="335"/>
      <point x="98" y="365" type="curve" smooth="yes"/>
      <point x="98" y="375"/>
      <point x="94" y="387"/>
      <point x="79" y="387" type="curve" smooth="yes"/>
      <point x="65" y="387"/>
      <point x="59" y="372"/>
      <point x="59" y="355" type="curve" smooth="yes"/>
      <point x="59" y="339" type="line"/>
      <point x="13" y="339" type="line"/>
      <point x="13" y="339"/>
      <point x="11" y="346"/>
      <point x="11" y="354" type="curve" smooth="yes"/>
      <point x="11" y="407"/>
      <point x="43" y="428"/>
    </contour>
  </outline>
</glyph>
<glyph name="uni00B3" format="1">
  <advance width="159"/>
  <unicode hex="00B3"/>
  <outline>
    <contour>
      <point x="78" y="428" type="curve" smooth="yes"/>
      <point x="118" y="428"/>
      <point x="146" y="404"/>
      <point x="146" y="361" type="curve" smooth="yes"/>
      <point x="146" y="335"/>
      <point x="133" y="320"/>
      <point x="116" y="309" type="curve"/>
      <point x="134" y="299"/>
      <point x="149" y="280"/>
      <point x="149" y="251" type="curve" smooth="yes"/>
      <point x="149" y="208"/>
      <point x="121" y="182"/>
      <point x="80" y="182" type="curve" smooth="yes"/>
      <point x="34" y="182"/>
      <point x="8" y="210"/>
      <point x="8" y="254" type="curve" smooth="yes"/>
      <point x="8" y="264" type="line"/>
      <point x="56" y="264" type="line"/>
      <point x="56" y="254" type="line" smooth="yes"/>
      <point x="56" y="233"/>
      <point x="63" y="222"/>
      <point x="79" y="222" type="curve" smooth="yes"/>
      <point x="92" y="222"/>
      <point x="101" y="231"/>
      <point x="101" y="254" type="curve" smooth="yes"/>
      <point x="101" y="280"/>
      <point x="89" y="287"/>
      <point x="77" y="287" type="curve" smooth="yes"/>
      <point x="63" y="287" type="line"/>
      <point x="63" y="326" type="line"/>
      <point x="78" y="326" type="line" smooth="yes"/>
      <point x="88" y="326"/>
      <point x="98" y="337"/>
      <point x="98" y="359" type="curve" smooth="yes"/>
      <point x="98" y="379"/>
      <point x="90" y="387"/>
      <point x="79" y="387" type="curve" smooth="yes"/>
      <point x="67" y="387"/>
      <point x="60" y="378"/>
      <point x="60" y="358" type="curve" smooth="yes"/>
      <point x="60" y="349" type="line"/>
      <point x="13" y="349" type="line"/>
      <point x="13" y="361" type="line" smooth="yes"/>
      <point x="13" y="401"/>
      <point x="40" y="428"/>
    </contour>
  </outline>
</glyph>
<glyph name="cedilla" format="1">
  <advance width="159"/>
  <unicode hex="00B8"/>
  <outline>
    <contour>
      <point x="88" y="-19" type="line"/>
      <point x="113" y="-21"/>
      <point x="133" y="-32"/>
      <point x="133" y="-59" type="curve" smooth="yes"/>
      <point x="133" y="-98"/>
      <point x="95" y="-106"/>
      <point x="70" y="-106" type="curve" smooth="yes"/>
      <point x="53" y="-106"/>
      <point x="35" y="-104"/>
      <point x="21" y="-101" type="curve"/>
      <point x="21" y="-73" type="line"/>
      <point x="63" y="-73" type="line" smooth="yes"/>
      <point x="75" y="-73"/>
      <point x="83" y="-70"/>
      <point x="83" y="-59" type="curve" smooth="yes"/>
      <point x="83" y="-49"/>
      <point x="78" y="-45"/>
      <point x="63" y="-45" type="curve" smooth="yes"/>
      <point x="44" y="-45" type="line"/>
      <point x="51" y="7" type="line"/>
      <point x="90" y="7" type="line"/>
    </contour>
  </outline>
</glyph>
<glyph name="ordmasculine" format="1">
  <advance width="174"/>
  <unicode hex="00BA"/>
  <outline>
    <contour>
      <point x="88" y="428" type="curve" smooth="yes"/>
      <point x="144" y="428"/>
      <point x="171" y="394"/>
      <point x="171" y="319" type="curve" smooth="yes"/>
      <point x="171" y="244"/>
      <point x="144" y="211"/>
      <point x="88" y="211" type="curve" smooth="yes"/>
      <point x="33" y="211"/>
      <point x="6" y="244"/>
      <point x="6" y="319" type="curve" smooth="yes"/>
      <point x="6" y="394"/>
      <point x="33" y="428"/>
    </contour>
    <contour>
      <point x="88" y="385" type="curve" smooth="yes"/>
      <point x="66" y="385"/>
      <point x="58" y="364"/>
      <point x="58" y="327" type="curve" smooth="yes"/>
      <point x="58" y="312" type="line" smooth="yes"/>
      <point x="58" y="273"/>
      <point x="66" y="254"/>
      <point x="88" y="254" type="curve" smooth="yes"/>
      <point x="111" y="254"/>
      <point x="119" y="273"/>
      <point x="119" y="312" type="curve" smooth="yes"/>
      <point x="119" y="327" type="line" smooth="yes"/>
      <point x="119" y="364"/>
      <point x="111" y="385"/>
    </contour>
  </outline>
</glyph>
<glyph name="onequarter" format="1">
  <advance width="399"/>
  <unicode hex="00BC"/>
  <outline>
    <contour>
      <point x="76" y="-7" type="line"/>
      <point x="306" y="407" type="line"/>
      <point x="345" y="407" type="line"/>
      <point x="115" y="-7" type="line"/>
    </contour>
    <contour>
      <point x="148" y="205" type="line"/>
      <point x="148" y="165" type="line"/>
      <point x="19" y="165" type="line"/>
      <point x="19" y="205" type="line"/>
      <point x="63" y="205" type="line"/>
      <point x="63" y="341" type="line"/>
      <point x="18" y="341" type="line"/>
      <point x="18" y="374" type="line"/>
      <point x="36" y="376"/>
      <point x="67" y="387"/>
      <point x="86" y="399" type="curve"/>
      <point x="109" y="399" type="line"/>
      <point x="109" y="205" type="line"/>
    </contour>
    <contour>
      <point x="337" y="241" type="line"/>
      <point x="324" y="182"/>
      <point x="290" y="115"/>
      <point x="275" y="92" type="curve"/>
      <point x="314" y="92" type="line"/>
      <point x="314" y="113" type="line"/>
      <point x="324" y="131"/>
      <point x="339" y="171"/>
      <point x="345" y="190" type="curve"/>
      <point x="360" y="190" type="line"/>
      <point x="360" y="92" type="line"/>
      <point x="385" y="92" type="line"/>
      <point x="385" y="52" type="line"/>
      <point x="360" y="52" type="line"/>
      <point x="360" y="0" type="line"/>
      <point x="314" y="0" type="line"/>
      <point x="314" y="52" type="line"/>
      <point x="231" y="52" type="line"/>
      <point x="231" y="88" type="line"/>
      <point x="255" y="130"/>
      <point x="276" y="188"/>
      <point x="291" y="241" type="curve"/>
    </contour>
  </outline>
</glyph>
<glyph name="onehalf" format="1">
  <advance width="399"/>
  <unicode hex="00BD"/>
  <outline>
    <contour>
      <point x="72" y="-7" type="line"/>
      <point x="304" y="407" type="line"/>
      <point x="342" y="407" type="line"/>
      <point x="112" y="-7" type="line"/>
    </contour>
    <contour>
      <point x="148" y="205" type="line"/>
      <point x="148" y="165" type="line"/>
      <point x="19" y="165" type="line"/>
      <point x="19" y="205" type="line"/>
      <point x="63" y="205" type="line"/>
      <point x="63" y="341" type="line"/>
      <point x="18" y="341" type="line"/>
      <point x="18" y="374" type="line"/>
      <point x="36" y="376"/>
      <point x="67" y="387"/>
      <point x="86" y="399" type="curve"/>
      <point x="109" y="399" type="line"/>
      <point x="109" y="205" type="line"/>
    </contour>
    <contour>
      <point x="320" y="241" type="curve" smooth="yes"/>
      <point x="356" y="241"/>
      <point x="385" y="223"/>
      <point x="385" y="179" type="curve" smooth="yes"/>
      <point x="385" y="139"/>
      <point x="360" y="109"/>
      <point x="334" y="79" type="curve" smooth="yes"/>
      <point x="330" y="75"/>
      <point x="326" y="70"/>
      <point x="322" y="65" type="curve" smooth="yes"/>
      <point x="316" y="58"/>
      <point x="311" y="51"/>
      <point x="306" y="43" type="curve"/>
      <point x="386" y="43" type="line"/>
      <point x="386" y="0" type="line"/>
      <point x="248" y="0" type="line"/>
      <point x="248" y="11" type="line" smooth="yes"/>
      <point x="248" y="47"/>
      <point x="270" y="73"/>
      <point x="292" y="98" type="curve" smooth="yes"/>
      <point x="293" y="99"/>
      <point x="294" y="101"/>
      <point x="295" y="102" type="curve" smooth="yes"/>
      <point x="318" y="128"/>
      <point x="337" y="150"/>
      <point x="337" y="179" type="curve" smooth="yes"/>
      <point x="337" y="188"/>
      <point x="333" y="200"/>
      <point x="318" y="200" type="curve" smooth="yes"/>
      <point x="304" y="200"/>
      <point x="298" y="186"/>
      <point x="298" y="168" type="curve" smooth="yes"/>
      <point x="298" y="152" type="line"/>
      <point x="252" y="152" type="line"/>
      <point x="252" y="152"/>
      <point x="250" y="159"/>
      <point x="250" y="168" type="curve" smooth="yes"/>
      <point x="250" y="220"/>
      <point x="283" y="241"/>
    </contour>
  </outline>
</glyph>
<glyph name="threequarters" format="1">
  <advance width="399"/>
  <unicode hex="00BE"/>
  <outline>
    <contour>
      <point x="88" y="407" type="curve" smooth="yes"/>
      <point x="127" y="407"/>
      <point x="154" y="384"/>
      <point x="154" y="340" type="curve" smooth="yes"/>
      <point x="154" y="314"/>
      <point x="142" y="299"/>
      <point x="125" y="288" type="curve"/>
      <point x="143" y="279"/>
      <point x="158" y="259"/>
      <point x="158" y="230" type="curve" smooth="yes"/>
      <point x="158" y="187"/>
      <point x="129" y="161"/>
      <point x="88" y="161" type="curve" smooth="yes"/>
      <point x="43" y="161"/>
      <point x="17" y="189"/>
      <point x="17" y="233" type="curve" smooth="yes"/>
      <point x="17" y="243" type="line"/>
      <point x="65" y="243" type="line"/>
      <point x="65" y="233" type="line" smooth="yes"/>
      <point x="65" y="212"/>
      <point x="72" y="201"/>
      <point x="88" y="201" type="curve" smooth="yes"/>
      <point x="101" y="201"/>
      <point x="110" y="210"/>
      <point x="110" y="233" type="curve" smooth="yes"/>
      <point x="110" y="259"/>
      <point x="98" y="266"/>
      <point x="86" y="266" type="curve" smooth="yes"/>
      <point x="71" y="266" type="line"/>
      <point x="71" y="305" type="line"/>
      <point x="86" y="305" type="line" smooth="yes"/>
      <point x="97" y="305"/>
      <point x="106" y="316"/>
      <point x="106" y="339" type="curve" smooth="yes"/>
      <point x="106" y="358"/>
      <point x="99" y="366"/>
      <point x="88" y="366" type="curve" smooth="yes"/>
      <point x="76" y="366"/>
      <point x="69" y="357"/>
      <point x="69" y="337" type="curve" smooth="yes"/>
      <point x="69" y="328" type="line"/>
      <point x="21" y="328" type="line"/>
      <point x="21" y="340" type="line" smooth="yes"/>
      <point x="21" y="380"/>
      <point x="48" y="407"/>
    </contour>
    <contour>
      <point x="73" y="-7" type="line"/>
      <point x="304" y="407" type="line"/>
      <point x="343" y="407" type="line"/>
      <point x="113" y="-7" type="line"/>
    </contour>
    <contour>
      <point x="335" y="241" type="line"/>
      <point x="322" y="182"/>
      <point x="289" y="115"/>
      <point x="273" y="92" type="curve"/>
      <point x="313" y="92" type="line"/>
      <point x="313" y="113" type="line"/>
      <point x="322" y="131"/>
      <point x="338" y="171"/>
      <point x="343" y="190" type="curve"/>
      <point x="359" y="190" type="line"/>
      <point x="359" y="92" type="line"/>
      <point x="384" y="92" type="line"/>
      <point x="384" y="52" type="line"/>
      <point x="359" y="52" type="line"/>
      <point x="359" y="0" type="line"/>
      <point x="313" y="0" type="line"/>
      <point x="313" y="52" type="line"/>
      <point x="229" y="52" type="line"/>
      <point x="229" y="88" type="line"/>
      <point x="254" y="130"/>
      <point x="274" y="188"/>
      <point x="289" y="241" type="curve"/>
    </contour>
  </outline>
</glyph>
<glyph name="Acircumflex" format="1">
  <advance width="345"/>
  <unicode hex="00C2"/>
  <outline>
    <contour>
      <point x="251" y="436" type="line"/>
      <point x="198" y="436" type="line"/>
      <point x="173" y="476" type="line"/>
      <point x="146" y="436" type="line"/>
      <point x="94" y="436" type="line"/>
      <point x="144" y="515" type="line"/>
      <point x="202" y="515" type="line"/>
    </contour>
    <contour>
      <point x="344" y="0" type="line"/>
      <point x="268" y="0" type="line"/>
      <point x="244" y="78" type="line"/>
      <point x="96" y="78" type="line"/>
      <point x="72" y="0" type="line"/>
      <point x="0" y="0" type="line"/>
      <point x="129" y="399" type="line"/>
      <point x="215" y="399" type="line"/>
    </contour>
    <contour>
      <point x="169" y="333" type="line"/>
      <point x="169" y="333"/>
      <point x="163" y="297"/>
      <point x="158" y="279" type="curve" smooth="yes"/>
      <point x="117" y="145" type="line"/>
      <point x="223" y="145" type="line"/>
      <point x="183" y="279" type="line" smooth="yes"/>
      <point x="177" y="299"/>
      <point x="171" y="333"/>
      <point x="171" y="333" type="curve"/>
    </contour>
  </outline>
</glyph>
<glyph name="Adieresis" format="1">
  <advance width="345"/>
  <unicode hex="00C4"/>
  <outline>
    <contour>
      <point x="151" y="451" type="line"/>
      <point x="93" y="451" type="line"/>
      <point x="93" y="515" type="line"/>
      <point x="151" y="515" type="line"/>
    </contour>
    <contour>
      <point x="253" y="451" type="line"/>
      <point x="194" y="451" type="line"/>
      <point x="194" y="515" type="line"/>
      <point x="253" y="515" type="line"/>
    </contour>
    <contour>
      <point x="344" y="0" type="line"/>
      <point x="268" y="0" type="line"/>
      <point x="244" y="78" type="line"/>
      <point x="96" y="78" type="line"/>
      <point x="72" y="0" type="line"/>
      <point x="0" y="0" type="line"/>
      <point x="129" y="399" type="line"/>
      <point x="215" y="399" type="line"/>
    </contour>
    <contour>
      <point x="169" y="333" type="line"/>
      <point x="169" y="333"/>
      <point x="163" y="297"/>
      <point x="158" y="279" type="curve" smooth="yes"/>
      <point x="117" y="145" type="line"/>
      <point x="223" y="145" type="line"/>
      <point x="183" y="279" type="line" smooth="yes"/>
      <point x="177" y="299"/>
      <point x="171" y="333"/>
      <point x="171" y="333" type="curve"/>
    </contour>
  </outline>
</glyph>
<glyph name="Aring" format="1">
  <advance width="345"/>
  <unicode hex="00C5"/>
  <outline>
    <contour>
      <point x="173" y="532" type="curve" smooth="yes"/>
      <point x="204" y="532"/>
      <point x="229" y="506"/>
      <point x="229" y="476" type="curve" smooth="yes"/>
      <point x="229" y="445"/>
      <point x="204" y="420"/>
      <point x="173" y="420" type="curve" smooth="yes"/>
      <point x="142" y="420"/>
      <point x="117" y="444"/>
      <point x="117" y="476" type="curve" smooth="yes"/>
      <point x="117" y="507"/>
      <point x="142" y="532"/>
    </contour>
    <contour>
      <point x="173" y="503" type="curve" smooth="yes"/>
      <point x="158" y="503"/>
      <point x="146" y="491"/>
      <point x="146" y="476" type="curve" smooth="yes"/>
      <point x="146" y="461"/>
      <point x="158" y="449"/>
      <point x="173" y="449" type="curve" smooth="yes"/>
      <point x="187" y="449"/>
      <point x="199" y="461"/>
      <point x="199" y="476" type="curve" smooth="yes"/>
      <point x="199" y="491"/>
      <point x="187" y="503"/>
    </contour>
    <contour>
      <point x="344" y="0" type="line"/>
      <point x="268" y="0" type="line"/>
      <point x="244" y="78" type="line"/>
      <point x="96" y="78" type="line"/>
      <point x="72" y="0" type="line"/>
      <point x="0" y="0" type="line"/>
      <point x="129" y="399" type="line"/>
      <point x="215" y="399" type="line"/>
    </contour>
    <contour>
      <point x="169" y="333" type="line"/>
      <point x="169" y="333"/>
      <point x="163" y="297"/>
      <point x="158" y="279" type="curve" smooth="yes"/>
      <point x="117" y="145" type="line"/>
      <point x="223" y="145" type="line"/>
      <point x="183" y="279" type="line" smooth="yes"/>
      <point x="177" y="299"/>
      <point x="171" y="333"/>
      <point x="171" y="333" type="curve"/>
    </contour>
  </outline>
</glyph>
<glyph name="Icircumflex" format="1">
  <advance width="133"/>
  <unicode hex="00CE"/>
  <outline>
    <contour>
      <point x="93" y="436" type="line"/>
      <point x="67" y="476" type="line"/>
      <point x="41" y="436" type="line"/>
      <point x="-13" y="436" type="line"/>
      <point x="38" y="515" type="line"/>
      <point x="96" y="515" type="line"/>
      <point x="145" y="436" type="line"/>
    </contour>
    <contour>
      <point x="29" y="0" type="line"/>
      <point x="29" y="399" type="line"/>
      <point x="103" y="399" type="line"/>
      <point x="103" y="0" type="line"/>
    </contour>
  </outline>
</glyph>
<glyph name="Eth" format="1">
  <advance width="345"/>
  <unicode hex="00D0"/>
  <outline>
    <contour>
      <point x="35" y="231" type="line"/>
      <point x="35" y="399" type="line"/>
      <point x="165" y="399" type="line" smooth="yes"/>
      <point x="264" y="399"/>
      <point x="325" y="334"/>
      <point x="325" y="206" type="curve" smooth="yes"/>
      <point x="325" y="69"/>
      <point x="264" y="0"/>
      <point x="165" y="0" type="curve" smooth="yes"/>
      <point x="35" y="0" type="line"/>
      <point x="35" y="182" type="line"/>
      <point x="6" y="182" type="line"/>
      <point x="6" y="231" type="line"/>
    </contour>
    <contour>
      <point x="109" y="231" type="line"/>
      <point x="183" y="231" type="line"/>
      <point x="183" y="182" type="line"/>
      <point x="109" y="182" type="line"/>
      <point x="109" y="67" type="line"/>
      <point x="158" y="67" type="line" smooth="yes"/>
      <point x="214" y="67"/>
      <point x="248" y="108"/>
      <point x="248" y="191" type="curve" smooth="yes"/>
      <point x="248" y="220" type="line" smooth="yes"/>
      <point x="248" y="295"/>
      <point x="214" y="333"/>
      <point x="158" y="333" type="curve" smooth="yes"/>
      <point x="109" y="333" type="line"/>
    </contour>
  </outline>
</glyph>
<glyph name="Ntilde" format="1">
  <advance width="345"/>
  <unicode hex="00D1"/>
  <outline>
    <contour>
      <point x="270" y="515" type="line"/>
      <point x="270" y="482"/>
      <point x="254" y="444"/>
      <point x="213" y="444" type="curve" smooth="yes"/>
      <point x="199" y="444"/>
      <point x="186" y="449"/>
      <point x="173" y="455" type="curve" smooth="yes"/>
      <point x="161" y="460"/>
      <point x="149" y="465"/>
      <point x="136" y="465" type="curve" smooth="yes"/>
      <point x="123" y="465"/>
      <point x="115" y="459"/>
      <point x="113" y="444" type="curve"/>
      <point x="74" y="444" type="line"/>
      <point x="74" y="475"/>
      <point x="91" y="515"/>
      <point x="132" y="515" type="curve" smooth="yes"/>
      <point x="146" y="515"/>
      <point x="159" y="509"/>
      <point x="172" y="504" type="curve" smooth="yes"/>
      <point x="184" y="498"/>
      <point x="196" y="493"/>
      <point x="209" y="493" type="curve" smooth="yes"/>
      <point x="221" y="493"/>
      <point x="229" y="498"/>
      <point x="232" y="515" type="curve"/>
    </contour>
    <contour>
      <point x="310" y="0" type="line"/>
      <point x="244" y="0" type="line"/>
      <point x="120" y="220" type="line" smooth="yes"/>
      <point x="115" y="229"/>
      <point x="102" y="258"/>
      <point x="102" y="258" type="curve"/>
      <point x="100" y="256" type="line"/>
      <point x="100" y="256"/>
      <point x="101" y="233"/>
      <point x="101" y="223" type="curve" smooth="yes"/>
      <point x="101" y="0" type="line"/>
      <point x="35" y="0" type="line"/>
      <point x="35" y="399" type="line"/>
      <point x="101" y="399" type="line"/>
      <point x="224" y="179" type="line" smooth="yes"/>
      <point x="231" y="169"/>
      <point x="243" y="142"/>
      <point x="243" y="142" type="curve"/>
      <point x="244" y="144" type="line"/>
      <point x="244" y="399" type="line"/>
      <point x="310" y="399" type="line"/>
    </contour>
  </outline>
</glyph>
<glyph name="Ograve" format="1">
  <advance width="372"/>
  <unicode hex="00D2"/>
  <outline>
    <contour>
      <point x="226" y="438" type="line"/>
      <point x="168" y="438" type="line"/>
      <point x="105" y="513" type="line"/>
      <point x="106" y="515" type="line"/>
      <point x="176" y="515" type="line"/>
    </contour>
    <contour>
      <point x="186" y="407" type="curve" smooth="yes"/>
      <point x="289" y="407"/>
      <point x="352" y="341"/>
      <point x="352" y="200" type="curve" smooth="yes"/>
      <point x="352" y="59"/>
      <point x="289" y="-7"/>
      <point x="186" y="-7" type="curve" smooth="yes"/>
      <point x="83" y="-7"/>
      <point x="20" y="59"/>
      <point x="20" y="200" type="curve" smooth="yes"/>
      <point x="20" y="341"/>
      <point x="83" y="407"/>
    </contour>
    <contour>
      <point x="186" y="343" type="curve" smooth="yes"/>
      <point x="127" y="343"/>
      <point x="97" y="294"/>
      <point x="97" y="214" type="curve" smooth="yes"/>
      <point x="97" y="185" type="line" smooth="yes"/>
      <point x="97" y="105"/>
      <point x="127" y="57"/>
      <point x="186" y="57" type="curve" smooth="yes"/>
      <point x="245" y="57"/>
      <point x="275" y="105"/>
      <point x="275" y="185" type="curve" smooth="yes"/>
      <point x="275" y="214" type="line" smooth="yes"/>
      <point x="275" y="294"/>
      <point x="245" y="343"/>
    </contour>
  </outline>
</glyph>
<glyph name="multiply" format="1">
  <advance width="279"/>
  <unicode hex="00D7"/>
  <outline>
    <contour>
      <point x="270" y="234" type="line"/>
      <point x="185" y="149" type="line"/>
      <point x="270" y="65" type="line"/>
      <point x="229" y="22" type="line"/>
      <point x="143" y="108" type="line"/>
      <point x="59" y="22" type="line"/>
      <point x="17" y="65" type="line"/>
      <point x="102" y="149" type="line"/>
      <point x="17" y="234" type="line"/>
      <point x="59" y="276" type="line"/>
      <point x="143" y="191" type="line"/>
      <point x="229" y="276" type="line"/>
    </contour>
  </outline>
</glyph>
<glyph name="Udieresis" format="1">
  <advance width="345"/>
  <unicode hex="00DC"/>
  <outline>
    <contour>
      <point x="151" y="451" type="line"/>
      <point x="93" y="451" type="line"/>
      <point x="93" y="515" type="line"/>
      <point x="151" y="515" type="line"/>
    </contour>
    <contour>
      <point x="253" y="451" type="line"/>
      <point x="194" y="451" type="line"/>
      <point x="194" y="515" type="line"/>
      <point x="253" y="515" type="line"/>
    </contour>
    <contour>
      <point x="310" y="125" type="line" smooth="yes"/>
      <point x="310" y="38"/>
      <point x="258" y="-7"/>
      <point x="173" y="-7" type="curve" smooth="yes"/>
      <point x="87" y="-7"/>
      <point x="36" y="38"/>
      <point x="36" y="125" type="curve" smooth="yes"/>
      <point x="36" y="399" type="line"/>
      <point x="110" y="399" type="line"/>
      <point x="110" y="128" type="line" smooth="yes"/>
      <point x="110" y="82"/>
      <point x="133" y="57"/>
      <point x="173" y="57" type="curve" smooth="yes"/>
      <point x="212" y="57"/>
      <point x="235" y="82"/>
      <point x="235" y="128" type="curve" smooth="yes"/>
      <point x="235" y="399" type="line"/>
      <point x="310" y="399" type="line"/>
    </contour>
  </outline>
</glyph>
<glyph name="Thorn" format="1">
  <advance width="319"/>
  <unicode hex="00DE"/>
  <outline>
    <contour>
      <point x="109" y="329" type="line"/>
      <point x="178" y="329" type="line" smooth="yes"/>
      <point x="260" y="329"/>
      <point x="303" y="278"/>
      <point x="303" y="208" type="curve" smooth="yes"/>
      <point x="303" y="133"/>
      <point x="253" y="84"/>
      <point x="178" y="84" type="curve" smooth="yes"/>
      <point x="109" y="84" type="line"/>
      <point x="109" y="0" type="line"/>
      <point x="35" y="0" type="line"/>
      <point x="35" y="399" type="line"/>
      <point x="109" y="399" type="line"/>
    </contour>
    <contour>
      <point x="109" y="262" type="line"/>
      <point x="109" y="150" type="line"/>
      <point x="170" y="150" type="line" smooth="yes"/>
      <point x="206" y="150"/>
      <point x="226" y="172"/>
      <point x="226" y="208" type="curve" smooth="yes"/>
      <point x="226" y="241"/>
      <point x="206" y="262"/>
      <point x="170" y="262" type="curve" smooth="yes"/>
    </contour>
  </outline>
</glyph>
<glyph name="atilde" format="1">
  <advance width="266"/>
  <unicode hex="00E3"/>
  <outline>
    <contour>
      <point x="224" y="421" type="line"/>
      <point x="224" y="389"/>
      <point x="208" y="350"/>
      <point x="167" y="350" type="curve" smooth="yes"/>
      <point x="152" y="350"/>
      <point x="139" y="356"/>
      <point x="126" y="361" type="curve" smooth="yes"/>
      <point x="114" y="367"/>
      <point x="103" y="372"/>
      <point x="90" y="372" type="curve" smooth="yes"/>
      <point x="78" y="372"/>
      <point x="69" y="366"/>
      <point x="67" y="350" type="curve"/>
      <point x="28" y="350" type="line"/>
      <point x="28" y="382"/>
      <point x="45" y="421"/>
      <point x="86" y="421" type="curve" smooth="yes"/>
      <point x="100" y="421"/>
      <point x="113" y="415"/>
      <point x="126" y="410" type="curve" smooth="yes"/>
      <point x="138" y="404"/>
      <point x="150" y="399"/>
      <point x="163" y="399" type="curve" smooth="yes"/>
      <point x="175" y="399"/>
      <point x="183" y="405"/>
      <point x="186" y="421" type="curve"/>
    </contour>
    <contour>
      <point x="127" y="314" type="curve" smooth="yes"/>
      <point x="198" y="314"/>
      <point x="231" y="280"/>
      <point x="231" y="223" type="curve" smooth="yes"/>
      <point x="231" y="72" type="line" smooth="yes"/>
      <point x="231" y="58"/>
      <point x="239" y="52"/>
      <point x="247" y="52" type="curve" smooth="yes"/>
      <point x="261" y="52" type="line"/>
      <point x="261" y="3" type="line"/>
      <point x="254" y="-2"/>
      <point x="241" y="-7"/>
      <point x="219" y="-7" type="curve" smooth="yes"/>
      <point x="192" y="-7"/>
      <point x="173" y="9"/>
      <point x="165" y="33" type="curve"/>
      <point x="163" y="33" type="line"/>
      <point x="145" y="9"/>
      <point x="126" y="-7"/>
      <point x="85" y="-7" type="curve" smooth="yes"/>
      <point x="57" y="-7"/>
      <point x="8" y="8"/>
      <point x="8" y="79" type="curve" smooth="yes"/>
      <point x="8" y="162"/>
      <point x="71" y="186"/>
      <point x="160" y="186" type="curve"/>
      <point x="160" y="218" type="line" smooth="yes"/>
      <point x="160" y="239"/>
      <point x="155" y="256"/>
      <point x="128" y="256" type="curve" smooth="yes"/>
      <point x="100" y="256"/>
      <point x="92" y="239"/>
      <point x="92" y="224" type="curve" smooth="yes"/>
      <point x="92" y="215" type="line"/>
      <point x="23" y="215" type="line"/>
      <point x="22" y="219"/>
      <point x="22" y="223"/>
      <point x="22" y="229" type="curve" smooth="yes"/>
      <point x="22" y="279"/>
      <point x="63" y="314"/>
    </contour>
    <contour>
      <point x="160" y="136" type="line"/>
      <point x="119" y="136"/>
      <point x="80" y="125"/>
      <point x="80" y="86" type="curve" smooth="yes"/>
      <point x="80" y="65"/>
      <point x="90" y="51"/>
      <point x="114" y="51" type="curve" smooth="yes"/>
      <point x="148" y="51"/>
      <point x="160" y="82"/>
      <point x="160" y="118" type="curve" smooth="yes"/>
    </contour>
  </outline>
</glyph>
<glyph name="ccedilla" format="1">
  <advance width="266"/>
  <unicode hex="00E7"/>
  <outline>
    <contour>
      <point x="138" y="314" type="curve" smooth="yes"/>
      <point x="203" y="314"/>
      <point x="244" y="277"/>
      <point x="244" y="191" type="curve"/>
      <point x="173" y="191" type="line"/>
      <point x="173" y="234"/>
      <point x="161" y="254"/>
      <point x="138" y="254" type="curve" smooth="yes"/>
      <point x="108" y="254"/>
      <point x="97" y="223"/>
      <point x="97" y="164" type="curve" smooth="yes"/>
      <point x="97" y="142" type="line" smooth="yes"/>
      <point x="97" y="83"/>
      <point x="108" y="52"/>
      <point x="140" y="52" type="curve" smooth="yes"/>
      <point x="165" y="52"/>
      <point x="175" y="73"/>
      <point x="175" y="115" type="curve"/>
      <point x="244" y="115" type="line"/>
      <point x="244" y="36"/>
      <point x="209" y="-1"/>
      <point x="153" y="-7" type="curve"/>
      <point x="152" y="-19" type="line"/>
      <point x="177" y="-21"/>
      <point x="198" y="-32"/>
      <point x="198" y="-59" type="curve" smooth="yes"/>
      <point x="198" y="-98"/>
      <point x="159" y="-106"/>
      <point x="134" y="-106" type="curve" smooth="yes"/>
      <point x="118" y="-106"/>
      <point x="99" y="-104"/>
      <point x="85" y="-101" type="curve"/>
      <point x="85" y="-73" type="line"/>
      <point x="127" y="-73" type="line" smooth="yes"/>
      <point x="139" y="-73"/>
      <point x="148" y="-70"/>
      <point x="148" y="-59" type="curve" smooth="yes"/>
      <point x="148" y="-49"/>
      <point x="143" y="-45"/>
      <point x="128" y="-45" type="curve" smooth="yes"/>
      <point x="109" y="-45" type="line"/>
      <point x="113" y="-5" type="line"/>
      <point x="52" y="5"/>
      <point x="24" y="56"/>
      <point x="24" y="153" type="curve" smooth="yes"/>
      <point x="24" y="264"/>
      <point x="62" y="314"/>
    </contour>
  </outline>
</glyph>
<glyph name="igrave" format="1">
  <advance width="133"/>
  <unicode hex="00EC"/>
  <outline>
    <contour>
      <point x="107" y="344" type="line"/>
      <point x="49" y="344" type="line"/>
      <point x="-14" y="419" type="line"/>
      <point x="-13" y="421" type="line"/>
      <point x="57" y="421" type="line"/>
    </contour>
    <contour>
      <point x="101" y="0" type="line"/>
      <point x="32" y="0" type="line"/>
      <point x="32" y="306" type="line"/>
      <point x="101" y="306" type="line"/>
    </contour>
  </outline>
</glyph>
<glyph name="iacute" format="1">
  <advance width="133"/>
  <unicode hex="00ED"/>
  <outline>
    <contour>
      <point x="147" y="419" type="line"/>
      <point x="84" y="344" type="line"/>
      <point x="26" y="344" type="line"/>
      <point x="76" y="421" type="line"/>
      <point x="146" y="421" type="line"/>
    </contour>
    <contour>
      <point x="101" y="0" type="line"/>
      <point x="32" y="0" type="line"/>
      <point x="32" y="306" type="line"/>
      <point x="101" y="306" type="line"/>
    </contour>
  </outline>
</glyph>
<glyph name="eth" format="1">
  <advance width="292"/>
  <unicode hex="00F0"/>
  <outline>
    <contour>
      <point x="150" y="421" type="line"/>
      <point x="158" y="415"/>
      <point x="168" y="405"/>
      <point x="179" y="393" type="curve"/>
      <point x="255" y="400" type="line"/>
      <point x="255" y="358" type="line"/>
      <point x="212" y="354" type="line"/>
      <point x="242" y="309"/>
      <point x="269" y="245"/>
      <point x="269" y="153" type="curve" smooth="yes"/>
      <point x="269" y="43"/>
      <point x="228" y="-7"/>
      <point x="146" y="-7" type="curve" smooth="yes"/>
      <point x="65" y="-7"/>
      <point x="24" y="43"/>
      <point x="24" y="153" type="curve" smooth="yes"/>
      <point x="24" y="258"/>
      <point x="65" y="314"/>
      <point x="130" y="314" type="curve" smooth="yes"/>
      <point x="138" y="314"/>
      <point x="150" y="312"/>
      <point x="158" y="309" type="curve"/>
      <point x="160" y="311" type="line"/>
      <point x="154" y="322"/>
      <point x="146" y="335"/>
      <point x="138" y="347" type="curve"/>
      <point x="63" y="340" type="line"/>
      <point x="63" y="383" type="line"/>
      <point x="107" y="387" type="line"/>
      <point x="101" y="394"/>
      <point x="95" y="400"/>
      <point x="90" y="405" type="curve" smooth="yes"/>
      <point x="84" y="410"/>
      <point x="80" y="415"/>
      <point x="76" y="419" type="curve"/>
      <point x="77" y="421" type="line"/>
    </contour>
    <contour>
      <point x="146" y="254" type="curve" smooth="yes"/>
      <point x="110" y="254"/>
      <point x="97" y="223"/>
      <point x="97" y="164" type="curve" smooth="yes"/>
      <point x="97" y="142" type="line" smooth="yes"/>
      <point x="97" y="83"/>
      <point x="110" y="52"/>
      <point x="146" y="52" type="curve" smooth="yes"/>
      <point x="183" y="52"/>
      <point x="196" y="83"/>
      <point x="196" y="142" type="curve" smooth="yes"/>
      <point x="196" y="164" type="line" smooth="yes"/>
      <point x="196" y="223"/>
      <point x="183" y="254"/>
    </contour>
  </outline>
</glyph>
<glyph name="ntilde" format="1">
  <advance width="292"/>
  <unicode hex="00F1"/>
  <outline>
    <contour>
      <point x="244" y="421" type="line"/>
      <point x="244" y="389"/>
      <point x="228" y="350"/>
      <point x="186" y="350" type="curve" smooth="yes"/>
      <point x="172" y="350"/>
      <point x="159" y="356"/>
      <point x="147" y="361" type="curve" smooth="yes"/>
      <point x="135" y="367"/>
      <point x="122" y="372"/>
      <point x="109" y="372" type="curve" smooth="yes"/>
      <point x="98" y="372"/>
      <point x="89" y="366"/>
      <point x="87" y="350" type="curve"/>
      <point x="48" y="350" type="line"/>
      <point x="48" y="382"/>
      <point x="65" y="421"/>
      <point x="105" y="421" type="curve" smooth="yes"/>
      <point x="120" y="421"/>
      <point x="133" y="415"/>
      <point x="146" y="410" type="curve" smooth="yes"/>
      <point x="158" y="404"/>
      <point x="170" y="399"/>
      <point x="183" y="399" type="curve" smooth="yes"/>
      <point x="195" y="399"/>
      <point x="204" y="405"/>
      <point x="206" y="421" type="curve"/>
    </contour>
    <contour>
      <point x="179" y="314" type="curve" smooth="yes"/>
      <point x="225" y="314"/>
      <point x="260" y="287"/>
      <point x="260" y="215" type="curve" smooth="yes"/>
      <point x="260" y="0" type="line"/>
      <point x="190" y="0" type="line"/>
      <point x="190" y="196" type="line" smooth="yes"/>
      <point x="190" y="235"/>
      <point x="175" y="250"/>
      <point x="150" y="250" type="curve" smooth="yes"/>
      <point x="123" y="250"/>
      <point x="102" y="223"/>
      <point x="102" y="188" type="curve" smooth="yes"/>
      <point x="102" y="0" type="line"/>
      <point x="32" y="0" type="line"/>
      <point x="32" y="306" type="line"/>
      <point x="90" y="306" type="line"/>
      <point x="98" y="269" type="line"/>
      <point x="101" y="269" type="line"/>
      <point x="117" y="293"/>
      <point x="142" y="314"/>
    </contour>
  </outline>
</glyph>
<glyph name="ocircumflex" format="1">
  <advance width="292"/>
  <unicode hex="00F4"/>
  <outline>
    <contour>
      <point x="172" y="343" type="line"/>
      <point x="146" y="383" type="line"/>
      <point x="120" y="343" type="line"/>
      <point x="68" y="343" type="line"/>
      <point x="118" y="421" type="line"/>
      <point x="175" y="421" type="line"/>
      <point x="224" y="343" type="line"/>
    </contour>
    <contour>
      <point x="146" y="314" type="curve" smooth="yes"/>
      <point x="228" y="314"/>
      <point x="269" y="264"/>
      <point x="269" y="153" type="curve" smooth="yes"/>
      <point x="269" y="43"/>
      <point x="228" y="-7"/>
      <point x="146" y="-7" type="curve" smooth="yes"/>
      <point x="65" y="-7"/>
      <point x="24" y="43"/>
      <point x="24" y="153" type="curve" smooth="yes"/>
      <point x="24" y="264"/>
      <point x="65" y="314"/>
    </contour>
    <contour>
      <point x="146" y="254" type="curve" smooth="yes"/>
      <point x="110" y="254"/>
      <point x="97" y="223"/>
      <point x="97" y="164" type="curve" smooth="yes"/>
      <point x="97" y="142" type="line" smooth="yes"/>
      <point x="97" y="83"/>
      <point x="110" y="52"/>
      <point x="146" y="52" type="curve" smooth="yes"/>
      <point x="183" y="52"/>
      <point x="196" y="83"/>
      <point x="196" y="142" type="curve" smooth="yes"/>
      <point x="196" y="164" type="line" smooth="yes"/>
      <point x="196" y="223"/>
      <point x="183" y="254"/>
    </contour>
  </outline>
</glyph>
<glyph name="otilde" format="1">
  <advance width="292"/>
  <unicode hex="00F5"/>
  <outline>
    <contour>
      <point x="244" y="421" type="line"/>
      <point x="244" y="389"/>
      <point x="228" y="350"/>
      <point x="186" y="350" type="curve" smooth="yes"/>
      <point x="172" y="350"/>
      <point x="159" y="356"/>
      <point x="147" y="361" type="curve" smooth="yes"/>
      <point x="135" y="367"/>
      <point x="122" y="372"/>
      <point x="109" y="372" type="curve" smooth="yes"/>
      <point x="98" y="372"/>
      <point x="89" y="366"/>
      <point x="87" y="350" type="curve"/>
      <point x="48" y="350" type="line"/>
      <point x="48" y="382"/>
      <point x="65" y="421"/>
      <point x="105" y="421" type="curve" smooth="yes"/>
      <point x="120" y="421"/>
      <point x="133" y="415"/>
      <point x="146" y="410" type="curve" smooth="yes"/>
      <point x="158" y="404"/>
      <point x="170" y="399"/>
      <point x="183" y="399" type="curve" smooth="yes"/>
      <point x="195" y="399"/>
      <point x="204" y="405"/>
      <point x="206" y="421" type="curve"/>
    </contour>
    <contour>
      <point x="146" y="314" type="curve" smooth="yes"/>
      <point x="228" y="314"/>
      <point x="269" y="264"/>
      <point x="269" y="153" type="curve" smooth="yes"/>
      <point x="269" y="43"/>
      <point x="228" y="-7"/>
      <point x="146" y="-7" type="curve" smooth="yes"/>
      <point x="65" y="-7"/>
      <point x="24" y="43"/>
      <point x="24" y="153" type="curve" smooth="yes"/>
      <point x="24" y="264"/>
      <point x="65" y="314"/>
    </contour>
    <contour>
      <point x="146" y="254" type="curve" smooth="yes"/>
      <point x="110" y="254"/>
      <point x="97" y="223"/>
      <point x="97" y="164" type="curve" smooth="yes"/>
      <point x="97" y="142" type="line" smooth="yes"/>
      <point x="97" y="83"/>
      <point x="110" y="52"/>
      <point x="146" y="52" type="curve" smooth="yes"/>
      <point x="183" y="52"/>
      <point x="196" y="83"/>
      <point x="196" y="142" type="curve" smooth="yes"/>
      <point x="196" y="164" type="line" smooth="yes"/>
      <point x="196" y="223"/>
      <point x="183" y="254"/>
    </contour>
  </outline>
</glyph>
<glyph name="oslash" format="1">
  <advance width="292"/>
  <unicode hex="00F8"/>
  <outline>
    <contour>
      <point x="0" y="0" type="move" name="Anchor-1"/>
    </contour>
    <contour>
      <point x="146" y="306" type="move" name="Anchor-0"/>
    </contour>
    <contour>
      <point x="235" y="278" type="line"/>
      <point x="258" y="252"/>
      <point x="269" y="210"/>
      <point x="269" y="153" type="curve" smooth="yes"/>
      <point x="269" y="43"/>
      <point x="228" y="-7"/>
      <point x="146" y="-7" type="curve" smooth="yes"/>
      <point x="123" y="-7"/>
      <point x="103" y="-3"/>
      <point x="87" y="5" type="curve"/>
      <point x="74" y="-18" type="line"/>
      <point x="30" y="-18" type="line"/>
      <point x="57" y="29" type="line"/>
      <point x="35" y="55"/>
      <point x="24" y="96"/>
      <point x="24" y="153" type="curve" smooth="yes"/>
      <point x="24" y="264"/>
      <point x="65" y="314"/>
      <point x="146" y="314" type="curve" smooth="yes"/>
      <point x="169" y="314"/>
      <point x="188" y="309"/>
      <point x="204" y="301" type="curve"/>
      <point x="217" y="325" type="line"/>
      <point x="261" y="325" type="line"/>
    </contour>
    <contour>
      <point x="146" y="254" type="curve" smooth="yes"/>
      <point x="110" y="254"/>
      <point x="97" y="223"/>
      <point x="97" y="164" type="curve" smooth="yes"/>
      <point x="97" y="142" type="line" smooth="yes"/>
      <point x="97" y="135"/>
      <point x="97" y="128"/>
      <point x="98" y="122" type="curve" smooth="yes"/>
      <point x="98" y="117"/>
      <point x="98" y="112"/>
      <point x="98" y="107" type="curve" smooth="yes"/>
      <point x="173" y="245" type="line"/>
      <point x="167" y="251"/>
      <point x="158" y="254"/>
    </contour>
    <contour>
      <point x="118" y="62" type="line"/>
      <point x="125" y="55"/>
      <point x="134" y="52"/>
      <point x="146" y="52" type="curve" smooth="yes"/>
      <point x="183" y="52"/>
      <point x="196" y="83"/>
      <point x="196" y="142" type="curve" smooth="yes"/>
      <point x="196" y="164" type="line" smooth="yes"/>
      <point x="196" y="174"/>
      <point x="195" y="183"/>
      <point x="194" y="191" type="curve" smooth="yes"/>
      <point x="194" y="195"/>
      <point x="193" y="198"/>
      <point x="193" y="201" type="curve" smooth="yes"/>
    </contour>
  </outline>
</glyph>
<glyph name="udieresis" format="1">
  <advance width="292"/>
  <unicode hex="00FC"/>
  <outline>
    <contour>
      <point x="124" y="358" type="line"/>
      <point x="66" y="358" type="line"/>
      <point x="66" y="421" type="line"/>
      <point x="124" y="421" type="line"/>
    </contour>
    <contour>
      <point x="226" y="358" type="line"/>
      <point x="168" y="358" type="line"/>
      <point x="168" y="421" type="line"/>
      <point x="226" y="421" type="line"/>
    </contour>
    <contour>
      <point x="260" y="0" type="line"/>
      <point x="202" y="0" type="line"/>
      <point x="194" y="38" type="line"/>
      <point x="191" y="38" type="line"/>
      <point x="175" y="14"/>
      <point x="150" y="-7"/>
      <point x="113" y="-7" type="curve" smooth="yes"/>
      <point x="67" y="-7"/>
      <point x="32" y="19"/>
      <point x="32" y="92" type="curve" smooth="yes"/>
      <point x="32" y="306" type="line"/>
      <point x="102" y="306" type="line"/>
      <point x="102" y="111" type="line" smooth="yes"/>
      <point x="102" y="71"/>
      <point x="116" y="57"/>
      <point x="142" y="57" type="curve" smooth="yes"/>
      <point x="169" y="57"/>
      <point x="190" y="82"/>
      <point x="190" y="117" type="curve" smooth="yes"/>
      <point x="190" y="306" type="line"/>
      <point x="260" y="306" type="line"/>
    </contour>
  </outline>
</glyph>
<glyph name="Amacron" format="1">
  <advance width="345"/>
  <unicode hex="0100"/>
  <outline>
    <contour>
      <point x="247" y="442" type="line"/>
      <point x="98" y="442" type="line"/>
      <point x="98" y="493" type="line"/>
      <point x="247" y="493" type="line"/>
    </contour>
    <contour>
      <point x="344" y="0" type="line"/>
      <point x="268" y="0" type="line"/>
      <point x="244" y="78" type="line"/>
      <point x="96" y="78" type="line"/>
      <point x="72" y="0" type="line"/>
      <point x="0" y="0" type="line"/>
      <point x="129" y="399" type="line"/>
      <point x="215" y="399" type="line"/>
    </contour>
    <contour>
      <point x="169" y="333" type="line"/>
      <point x="169" y="333"/>
      <point x="163" y="297"/>
      <point x="158" y="279" type="curve" smooth="yes"/>
      <point x="117" y="145" type="line"/>
      <point x="223" y="145" type="line"/>
      <point x="183" y="279" type="line" smooth="yes"/>
      <point x="177" y="299"/>
      <point x="171" y="333"/>
      <point x="171" y="333" type="curve"/>
    </contour>
  </outline>
</glyph>
<glyph name="Abreve" format="1">
  <advance width="345"/>
  <unicode hex="0102"/>
  <outline>
    <contour>
      <point x="250" y="515" type="line"/>
      <point x="250" y="485"/>
      <point x="220" y="452"/>
      <point x="172" y="452" type="curve" smooth="yes"/>
      <point x="124" y="452"/>
      <point x="95" y="485"/>
      <point x="95" y="515" type="curve"/>
      <point x="138" y="515" type="line"/>
      <point x="140" y="506"/>
      <point x="153" y="495"/>
      <point x="172" y="495" type="curve" smooth="yes"/>
      <point x="192" y="495"/>
      <point x="206" y="506"/>
      <point x="207" y="515" type="curve"/>
    </contour>
    <contour>
      <point x="344" y="0" type="line"/>
      <point x="268" y="0" type="line"/>
      <point x="244" y="78" type="line"/>
      <point x="96" y="78" type="line"/>
      <point x="72" y="0" type="line"/>
      <point x="0" y="0" type="line"/>
      <point x="129" y="399" type="line"/>
      <point x="215" y="399" type="line"/>
    </contour>
    <contour>
      <point x="169" y="333" type="line"/>
      <point x="169" y="333"/>
      <point x="163" y="297"/>
      <point x="158" y="279" type="curve" smooth="yes"/>
      <point x="117" y="145" type="line"/>
      <point x="223" y="145" type="line"/>
      <point x="183" y="279" type="line" smooth="yes"/>
      <point x="177" y="299"/>
      <point x="171" y="333"/>
      <point x="171" y="333" type="curve"/>
    </contour>
  </outline>
</glyph>
<glyph name="aogonek" format="1">
  <advance width="266"/>
  <unicode hex="0105"/>
  <outline>
    <contour>
      <point x="283" y="-100" type="line"/>
      <point x="269" y="-105"/>
      <point x="257" y="-108"/>
      <point x="244" y="-108" type="curve" smooth="yes"/>
      <point x="218" y="-108"/>
      <point x="186" y="-96"/>
      <point x="186" y="-56" type="curve" smooth="yes"/>
      <point x="186" y="-33"/>
      <point x="194" y="-18"/>
      <point x="204" y="-5" type="curve"/>
      <point x="185" y="-1"/>
      <point x="171" y="14"/>
      <point x="165" y="33" type="curve"/>
      <point x="163" y="33" type="line"/>
      <point x="145" y="9"/>
      <point x="126" y="-7"/>
      <point x="85" y="-7" type="curve" smooth="yes"/>
      <point x="57" y="-7"/>
      <point x="8" y="8"/>
      <point x="8" y="79" type="curve" smooth="yes"/>
      <point x="8" y="162"/>
      <point x="71" y="186"/>
      <point x="160" y="186" type="curve"/>
      <point x="160" y="218" type="line" smooth="yes"/>
      <point x="160" y="239"/>
      <point x="155" y="256"/>
      <point x="128" y="256" type="curve" smooth="yes"/>
      <point x="100" y="256"/>
      <point x="92" y="239"/>
      <point x="92" y="224" type="curve" smooth="yes"/>
      <point x="92" y="215" type="line"/>
      <point x="23" y="215" type="line"/>
      <point x="22" y="219"/>
      <point x="22" y="223"/>
      <point x="22" y="229" type="curve" smooth="yes"/>
      <point x="22" y="279"/>
      <point x="63" y="314"/>
      <point x="127" y="314" type="curve" smooth="yes"/>
      <point x="198" y="314"/>
      <point x="231" y="280"/>
      <point x="231" y="223" type="curve" smooth="yes"/>
      <point x="231" y="72" type="line" smooth="yes"/>
      <point x="231" y="58"/>
      <point x="239" y="52"/>
      <point x="247" y="52" type="curve" smooth="yes"/>
      <point x="261" y="52" type="line"/>
      <point x="261" y="3" type="line"/>
      <point x="254" y="-6"/>
      <point x="244" y="-22"/>
      <point x="244" y="-38" type="curve" smooth="yes"/>
      <point x="244" y="-53"/>
      <point x="250" y="-68"/>
      <point x="270" y="-68" type="curve" smooth="yes"/>
      <point x="283" y="-68" type="line"/>
    </contour>
    <contour>
      <point x="160" y="136" type="line"/>
      <point x="119" y="136"/>
      <point x="80" y="125"/>
      <point x="80" y="86" type="curve" smooth="yes"/>
      <point x="80" y="65"/>
      <point x="90" y="51"/>
      <point x="114" y="51" type="curve" smooth="yes"/>
      <point x="148" y="51"/>
      <point x="160" y="82"/>
      <point x="160" y="118" type="curve" smooth="yes"/>
    </contour>
  </outline>
</glyph>
<glyph name="ccircumflex" format="1">
  <advance width="266"/>
  <unicode hex="0109"/>
  <outline>
    <contour>
      <point x="164" y="343" type="line"/>
      <point x="138" y="383" type="line"/>
      <point x="113" y="343" type="line"/>
      <point x="60" y="343" type="line"/>
      <point x="110" y="421" type="line"/>
      <point x="167" y="421" type="line"/>
      <point x="217" y="343" type="line"/>
    </contour>
    <contour>
      <point x="138" y="314" type="curve" smooth="yes"/>
      <point x="203" y="314"/>
      <point x="244" y="277"/>
      <point x="244" y="191" type="curve"/>
      <point x="173" y="191" type="line"/>
      <point x="173" y="234"/>
      <point x="161" y="254"/>
      <point x="138" y="254" type="curve" smooth="yes"/>
      <point x="108" y="254"/>
      <point x="97" y="223"/>
      <point x="97" y="164" type="curve" smooth="yes"/>
      <point x="97" y="142" type="line" smooth="yes"/>
      <point x="97" y="83"/>
      <point x="108" y="52"/>
      <point x="140" y="52" type="curve" smooth="yes"/>
      <point x="165" y="52"/>
      <point x="175" y="73"/>
      <point x="175" y="115" type="curve"/>
      <point x="244" y="115" type="line"/>
      <point x="244" y="30"/>
      <point x="204" y="-7"/>
      <point x="140" y="-7" type="curve" smooth="yes"/>
      <point x="60" y="-7"/>
      <point x="24" y="43"/>
      <point x="24" y="153" type="curve" smooth="yes"/>
      <point x="24" y="264"/>
      <point x="62" y="314"/>
    </contour>
  </outline>
</glyph>
<glyph name="Dcaron" format="1">
  <advance width="345"/>
  <unicode hex="010E"/>
  <outline>
    <contour>
      <point x="119" y="436" type="line"/>
      <point x="69" y="515" type="line"/>
      <point x="122" y="515" type="line"/>
      <point x="148" y="474" type="line"/>
      <point x="173" y="515" type="line"/>
      <point x="226" y="515" type="line"/>
      <point x="177" y="436" type="line"/>
    </contour>
    <contour>
      <point x="35" y="399" type="line"/>
      <point x="165" y="399" type="line" smooth="yes"/>
      <point x="264" y="399"/>
      <point x="325" y="334"/>
      <point x="325" y="206" type="curve" smooth="yes"/>
      <point x="325" y="69"/>
      <point x="264" y="0"/>
      <point x="165" y="0" type="curve" smooth="yes"/>
      <point x="35" y="0" type="line"/>
    </contour>
    <contour>
      <point x="109" y="67" type="line"/>
      <point x="158" y="67" type="line" smooth="yes"/>
      <point x="214" y="67"/>
      <point x="248" y="108"/>
      <point x="248" y="191" type="curve" smooth="yes"/>
      <point x="248" y="220" type="line" smooth="yes"/>
      <point x="248" y="295"/>
      <point x="214" y="333"/>
      <point x="158" y="333" type="curve" smooth="yes"/>
      <point x="109" y="333" type="line"/>
    </contour>
  </outline>
</glyph>
<glyph name="Emacron" format="1">
  <advance width="319"/>
  <unicode hex="0112"/>
  <outline>
    <contour>
      <point x="85" y="442" type="line"/>
      <point x="85" y="493" type="line"/>
      <point x="233" y="493" type="line"/>
      <point x="233" y="442" type="line"/>
    </contour>
    <contour>
      <point x="35" y="399" type="line"/>
      <point x="289" y="399" type="line"/>
      <point x="289" y="333" type="line"/>
      <point x="109" y="333" type="line"/>
      <point x="109" y="238" type="line"/>
      <point x="264" y="238" type="line"/>
      <point x="264" y="171" type="line"/>
      <point x="109" y="171" type="line"/>
      <point x="109" y="67" type="line"/>
      <point x="293" y="67" type="line"/>
      <point x="293" y="0" type="line"/>
      <point x="35" y="0" type="line"/>
    </contour>
  </outline>
</glyph>
<glyph name="Ebreve" format="1">
  <advance width="319"/>
  <unicode hex="0114"/>
  <outline>
    <contour>
      <point x="237" y="515" type="line"/>
      <point x="237" y="485"/>
      <point x="208" y="452"/>
      <point x="159" y="452" type="curve" smooth="yes"/>
      <point x="111" y="452"/>
      <point x="82" y="485"/>
      <point x="82" y="515" type="curve"/>
      <point x="125" y="515" type="line"/>
      <point x="127" y="506"/>
      <point x="140" y="495"/>
      <point x="159" y="495" type="curve" smooth="yes"/>
      <point x="179" y="495"/>
      <point x="193" y="506"/>
      <point x="194" y="515" type="curve"/>
    </contour>
    <contour>
      <point x="35" y="399" type="line"/>
      <point x="289" y="399" type="line"/>
      <point x="289" y="333" type="line"/>
      <point x="109" y="333" type="line"/>
      <point x="109" y="238" type="line"/>
      <point x="264" y="238" type="line"/>
      <point x="264" y="171" type="line"/>
      <point x="109" y="171" type="line"/>
      <point x="109" y="67" type="line"/>
      <point x="293" y="67" type="line"/>
      <point x="293" y="0" type="line"/>
      <point x="35" y="0" type="line"/>
    </contour>
  </outline>
</glyph>
<glyph name="eogonek" format="1">
  <advance width="266"/>
  <unicode hex="0119"/>
  <outline>
    <contour>
      <point x="246" y="153" type="curve" smooth="yes"/>
      <point x="246" y="136" type="line"/>
      <point x="91" y="136" type="line"/>
      <point x="92" y="81"/>
      <point x="103" y="50"/>
      <point x="138" y="50" type="curve" smooth="yes"/>
      <point x="162" y="50"/>
      <point x="177" y="72"/>
      <point x="177" y="108" type="curve"/>
      <point x="246" y="108" type="line"/>
      <point x="246" y="53"/>
      <point x="223" y="18"/>
      <point x="188" y="3" type="curve"/>
      <point x="182" y="-5"/>
      <point x="171" y="-22"/>
      <point x="171" y="-38" type="curve" smooth="yes"/>
      <point x="171" y="-53"/>
      <point x="179" y="-68"/>
      <point x="198" y="-68" type="curve" smooth="yes"/>
      <point x="210" y="-68" type="line"/>
      <point x="210" y="-100" type="line"/>
      <point x="197" y="-105"/>
      <point x="185" y="-108"/>
      <point x="172" y="-108" type="curve" smooth="yes"/>
      <point x="146" y="-108"/>
      <point x="114" y="-96"/>
      <point x="114" y="-55" type="curve" smooth="yes"/>
      <point x="114" y="-33"/>
      <point x="121" y="-19"/>
      <point x="131" y="-7" type="curve"/>
      <point x="57" y="-4"/>
      <point x="18" y="46"/>
      <point x="18" y="153" type="curve" smooth="yes"/>
      <point x="18" y="264"/>
      <point x="60" y="314"/>
      <point x="136" y="314" type="curve" smooth="yes"/>
      <point x="210" y="314"/>
      <point x="246" y="264"/>
    </contour>
    <contour>
      <point x="92" y="186" type="curve"/>
      <point x="173" y="186" type="line"/>
      <point x="173" y="231"/>
      <point x="161" y="256"/>
      <point x="136" y="256" type="curve" smooth="yes"/>
      <point x="106" y="256"/>
      <point x="94" y="231"/>
    </contour>
  </outline>
</glyph>
<glyph name="gcircumflex" format="1">
  <advance width="292"/>
  <unicode hex="011D"/>
  <outline>
    <contour>
      <point x="172" y="343" type="line"/>
      <point x="146" y="383" type="line"/>
      <point x="120" y="343" type="line"/>
      <point x="68" y="343" type="line"/>
      <point x="118" y="421" type="line"/>
      <point x="175" y="421" type="line"/>
      <point x="224" y="343" type="line"/>
    </contour>
    <contour>
      <point x="283" y="358" type="line"/>
      <point x="283" y="314"/>
      <point x="264" y="289"/>
      <point x="233" y="279" type="curve"/>
      <point x="249" y="262"/>
      <point x="258" y="238"/>
      <point x="258" y="209" type="curve" smooth="yes"/>
      <point x="258" y="146"/>
      <point x="218" y="105"/>
      <point x="144" y="105" type="curve" smooth="yes"/>
      <point x="115" y="105" type="line" smooth="yes"/>
      <point x="103" y="105"/>
      <point x="94" y="97"/>
      <point x="94" y="86" type="curve" smooth="yes"/>
      <point x="94" y="76"/>
      <point x="102" y="68"/>
      <point x="113" y="68" type="curve" smooth="yes"/>
      <point x="218" y="68" type="line" smooth="yes"/>
      <point x="257" y="68"/>
      <point x="289" y="38"/>
      <point x="289" y="-12" type="curve" smooth="yes"/>
      <point x="289" y="-69"/>
      <point x="244" y="-106"/>
      <point x="189" y="-106" type="curve" smooth="yes"/>
      <point x="77" y="-106" type="line" smooth="yes"/>
      <point x="40" y="-106"/>
      <point x="9" y="-78"/>
      <point x="9" y="-36" type="curve" smooth="yes"/>
      <point x="9" y="-5"/>
      <point x="26" y="14"/>
      <point x="48" y="27" type="curve"/>
      <point x="33" y="36"/>
      <point x="24" y="52"/>
      <point x="24" y="72" type="curve" smooth="yes"/>
      <point x="24" y="100"/>
      <point x="44" y="118"/>
      <point x="69" y="127" type="curve"/>
      <point x="44" y="144"/>
      <point x="32" y="173"/>
      <point x="32" y="209" type="curve" smooth="yes"/>
      <point x="32" y="272"/>
      <point x="71" y="314"/>
      <point x="144" y="314" type="curve" smooth="yes"/>
      <point x="163" y="314"/>
      <point x="181" y="310"/>
      <point x="196" y="304" type="curve"/>
      <point x="238" y="306"/>
      <point x="238" y="345"/>
      <point x="238" y="357" type="curve" smooth="yes"/>
      <point x="238" y="358"/>
      <point x="238" y="358"/>
      <point x="238" y="358" type="curve"/>
    </contour>
    <contour>
      <point x="144" y="262" type="curve" smooth="yes"/>
      <point x="116" y="262"/>
      <point x="101" y="242"/>
      <point x="101" y="209" type="curve" smooth="yes"/>
      <point x="101" y="177"/>
      <point x="116" y="157"/>
      <point x="144" y="157" type="curve" smooth="yes"/>
      <point x="173" y="157"/>
      <point x="188" y="177"/>
      <point x="188" y="209" type="curve" smooth="yes"/>
      <point x="188" y="242"/>
      <point x="173" y="262"/>
    </contour>
    <contour>
      <point x="108" y="3" type="line" smooth="yes"/>
      <point x="92" y="3"/>
      <point x="80" y="-9"/>
      <point x="80" y="-24" type="curve" smooth="yes"/>
      <point x="80" y="-42"/>
      <point x="92" y="-53"/>
      <point x="108" y="-53" type="curve" smooth="yes"/>
      <point x="186" y="-53" type="line" smooth="yes"/>
      <point x="204" y="-53"/>
      <point x="218" y="-42"/>
      <point x="218" y="-24" type="curve" smooth="yes"/>
      <point x="218" y="-7"/>
      <point x="205" y="3"/>
      <point x="189" y="3" type="curve" smooth="yes"/>
    </contour>
  </outline>
</glyph>
<glyph name="gbreve" format="1">
  <advance width="292"/>
  <unicode hex="011F"/>
  <outline>
    <contour>
      <point x="223" y="421" type="line"/>
      <point x="223" y="392"/>
      <point x="194" y="359"/>
      <point x="146" y="359" type="curve" smooth="yes"/>
      <point x="98" y="359"/>
      <point x="68" y="392"/>
      <point x="68" y="421" type="curve"/>
      <point x="111" y="421" type="line"/>
      <point x="113" y="413"/>
      <point x="127" y="402"/>
      <point x="146" y="402" type="curve" smooth="yes"/>
      <point x="165" y="402"/>
      <point x="179" y="413"/>
      <point x="181" y="421" type="curve"/>
    </contour>
    <contour>
      <point x="283" y="358" type="line"/>
      <point x="283" y="314"/>
      <point x="264" y="289"/>
      <point x="233" y="279" type="curve"/>
      <point x="249" y="262"/>
      <point x="258" y="238"/>
      <point x="258" y="209" type="curve" smooth="yes"/>
      <point x="258" y="146"/>
      <point x="218" y="105"/>
      <point x="144" y="105" type="curve" smooth="yes"/>
      <point x="115" y="105" type="line" smooth="yes"/>
      <point x="103" y="105"/>
      <point x="94" y="97"/>
      <point x="94" y="86" type="curve" smooth="yes"/>
      <point x="94" y="76"/>
      <point x="102" y="68"/>
      <point x="113" y="68" type="curve" smooth="yes"/>
      <point x="218" y="68" type="line" smooth="yes"/>
      <point x="257" y="68"/>
      <point x="289" y="38"/>
      <point x="289" y="-12" type="curve" smooth="yes"/>
      <point x="289" y="-69"/>
      <point x="244" y="-106"/>
      <point x="189" y="-106" type="curve" smooth="yes"/>
      <point x="77" y="-106" type="line" smooth="yes"/>
      <point x="40" y="-106"/>
      <point x="9" y="-78"/>
      <point x="9" y="-36" type="curve" smooth="yes"/>
      <point x="9" y="-5"/>
      <point x="26" y="14"/>
      <point x="48" y="27" type="curve"/>
      <point x="33" y="36"/>
      <point x="24" y="52"/>
      <point x="24" y="72" type="curve" smooth="yes"/>
      <point x="24" y="100"/>
      <point x="44" y="118"/>
      <point x="69" y="127" type="curve"/>
      <point x="44" y="144"/>
      <point x="32" y="173"/>
      <point x="32" y="209" type="curve" smooth="yes"/>
      <point x="32" y="272"/>
      <point x="71" y="314"/>
      <point x="144" y="314" type="curve" smooth="yes"/>
      <point x="163" y="314"/>
      <point x="181" y="310"/>
      <point x="196" y="304" type="curve"/>
      <point x="219" y="322"/>
      <point x="225" y="347"/>
      <point x="225" y="358" type="curve"/>
    </contour>
    <contour>
      <point x="144" y="262" type="curve" smooth="yes"/>
      <point x="116" y="262"/>
      <point x="101" y="242"/>
      <point x="101" y="209" type="curve" smooth="yes"/>
      <point x="101" y="177"/>
      <point x="116" y="157"/>
      <point x="144" y="157" type="curve" smooth="yes"/>
      <point x="173" y="157"/>
      <point x="188" y="177"/>
      <point x="188" y="209" type="curve" smooth="yes"/>
      <point x="188" y="242"/>
      <point x="173" y="262"/>
    </contour>
    <contour>
      <point x="108" y="3" type="line" smooth="yes"/>
      <point x="92" y="3"/>
      <point x="80" y="-9"/>
      <point x="80" y="-24" type="curve" smooth="yes"/>
      <point x="80" y="-42"/>
      <point x="92" y="-53"/>
      <point x="108" y="-53" type="curve" smooth="yes"/>
      <point x="186" y="-53" type="line" smooth="yes"/>
      <point x="204" y="-53"/>
      <point x="218" y="-42"/>
      <point x="218" y="-24" type="curve" smooth="yes"/>
      <point x="218" y="-7"/>
      <point x="205" y="3"/>
      <point x="189" y="3" type="curve" smooth="yes"/>
    </contour>
  </outline>
</glyph>
<glyph name="hcircumflex" format="1">
  <advance width="292"/>
  <unicode hex="0125"/>
  <outline>
    <contour>
      <point x="92" y="436" type="line"/>
      <point x="66" y="476" type="line"/>
      <point x="40" y="436" type="line"/>
      <point x="-13" y="436" type="line"/>
      <point x="38" y="515" type="line"/>
      <point x="94" y="515" type="line"/>
      <point x="144" y="436" type="line"/>
    </contour>
    <contour>
      <point x="104" y="273" type="line"/>
      <point x="118" y="293"/>
      <point x="142" y="314"/>
      <point x="179" y="314" type="curve" smooth="yes"/>
      <point x="225" y="314"/>
      <point x="260" y="287"/>
      <point x="260" y="215" type="curve" smooth="yes"/>
      <point x="260" y="0" type="line"/>
      <point x="190" y="0" type="line"/>
      <point x="190" y="196" type="line" smooth="yes"/>
      <point x="190" y="235"/>
      <point x="175" y="250"/>
      <point x="150" y="250" type="curve" smooth="yes"/>
      <point x="123" y="250"/>
      <point x="102" y="223"/>
      <point x="102" y="188" type="curve" smooth="yes"/>
      <point x="102" y="0" type="line"/>
      <point x="32" y="0" type="line"/>
      <point x="32" y="421" type="line"/>
      <point x="102" y="421" type="line"/>
      <point x="102" y="273" type="line"/>
    </contour>
  </outline>
</glyph>
<glyph name="ibreve" format="1">
  <advance width="133"/>
  <unicode hex="012D"/>
  <outline>
    <contour>
      <point x="144" y="421" type="line"/>
      <point x="144" y="392"/>
      <point x="115" y="359"/>
      <point x="67" y="359" type="curve" smooth="yes"/>
      <point x="18" y="359"/>
      <point x="-12" y="392"/>
      <point x="-12" y="421" type="curve"/>
      <point x="32" y="421" type="line"/>
      <point x="34" y="413"/>
      <point x="47" y="402"/>
      <point x="67" y="402" type="curve" smooth="yes"/>
      <point x="86" y="402"/>
      <point x="100" y="413"/>
      <point x="101" y="421" type="curve"/>
    </contour>
    <contour>
      <point x="32" y="0" type="line"/>
      <point x="32" y="306" type="line"/>
      <point x="101" y="306" type="line"/>
      <point x="101" y="0" type="line"/>
    </contour>
  </outline>
</glyph>
<glyph name="iogonek" format="1">
  <advance width="133"/>
  <unicode hex="012F"/>
  <outline>
    <contour>
      <point x="98" y="354" type="line"/>
      <point x="36" y="354" type="line"/>
      <point x="36" y="421" type="line"/>
      <point x="98" y="421" type="line"/>
    </contour>
    <contour>
      <point x="101" y="0" type="line"/>
      <point x="94" y="-8"/>
      <point x="84" y="-24"/>
      <point x="84" y="-41" type="curve" smooth="yes"/>
      <point x="84" y="-56"/>
      <point x="91" y="-71"/>
      <point x="110" y="-71" type="curve" smooth="yes"/>
      <point x="123" y="-71" type="line"/>
      <point x="123" y="-103" type="line"/>
      <point x="109" y="-108"/>
      <point x="98" y="-111"/>
      <point x="84" y="-111" type="curve" smooth="yes"/>
      <point x="58" y="-111"/>
      <point x="27" y="-98"/>
      <point x="27" y="-58" type="curve" smooth="yes"/>
      <point x="27" y="-31"/>
      <point x="38" y="-14"/>
      <point x="53" y="0" type="curve"/>
      <point x="32" y="0" type="line"/>
      <point x="32" y="306" type="line"/>
      <point x="101" y="306" type="line"/>
    </contour>
  </outline>
</glyph>
<glyph name="IJ" format="1">
  <advance width="399"/>
  <unicode hex="0132"/>
  <outline>
    <contour>
      <point x="103" y="0" type="line"/>
      <point x="29" y="0" type="line"/>
      <point x="29" y="399" type="line"/>
      <point x="103" y="399" type="line"/>
    </contour>
    <contour>
      <point x="364" y="95" type="line" smooth="yes"/>
      <point x="364" y="28"/>
      <point x="324" y="-7"/>
      <point x="251" y="-7" type="curve" smooth="yes"/>
      <point x="179" y="-7"/>
      <point x="138" y="28"/>
      <point x="138" y="95" type="curve" smooth="yes"/>
      <point x="138" y="126" type="line"/>
      <point x="212" y="126" type="line"/>
      <point x="212" y="101" type="line" smooth="yes"/>
      <point x="212" y="72"/>
      <point x="225" y="57"/>
      <point x="251" y="57" type="curve" smooth="yes"/>
      <point x="276" y="57"/>
      <point x="289" y="72"/>
      <point x="289" y="101" type="curve" smooth="yes"/>
      <point x="289" y="399" type="line"/>
      <point x="364" y="399" type="line"/>
    </contour>
  </outline>
</glyph>
<glyph name="Jcircumflex" format="1">
  <advance width="266"/>
  <unicode hex="0134"/>
  <outline>
    <contour>
      <point x="279" y="436" type="line"/>
      <point x="227" y="436" type="line"/>
      <point x="201" y="476" type="line"/>
      <point x="175" y="436" type="line"/>
      <point x="123" y="436" type="line"/>
      <point x="173" y="515" type="line"/>
      <point x="230" y="515" type="line"/>
    </contour>
    <contour>
      <point x="231" y="95" type="line" smooth="yes"/>
      <point x="231" y="28"/>
      <point x="190" y="-7"/>
      <point x="118" y="-7" type="curve" smooth="yes"/>
      <point x="46" y="-7"/>
      <point x="5" y="28"/>
      <point x="5" y="95" type="curve" smooth="yes"/>
      <point x="5" y="126" type="line"/>
      <point x="79" y="126" type="line"/>
      <point x="79" y="101" type="line" smooth="yes"/>
      <point x="79" y="72"/>
      <point x="93" y="57"/>
      <point x="118" y="57" type="curve" smooth="yes"/>
      <point x="143" y="57"/>
      <point x="156" y="72"/>
      <point x="156" y="101" type="curve" smooth="yes"/>
      <point x="156" y="399" type="line"/>
      <point x="231" y="399" type="line"/>
    </contour>
  </outline>
</glyph>
<glyph name="lcommaaccent" format="1">
  <advance width="133"/>
  <unicode hex="013C"/>
  <outline>
    <contour>
      <point x="32" y="0" type="line"/>
      <point x="32" y="421" type="line"/>
      <point x="101" y="421" type="line"/>
      <point x="101" y="0" type="line"/>
    </contour>
    <contour>
      <point x="76" y="-153" type="line"/>
      <point x="38" y="-153" type="line"/>
      <point x="59" y="-103" type="line"/>
      <point x="31" y="-103" type="line"/>
      <point x="31" y="-32" type="line"/>
      <point x="103" y="-32" type="line"/>
      <point x="103" y="-98" type="line"/>
    </contour>
  </outline>
</glyph>
<glyph name="Lcaron" format="1">
  <advance width="292"/>
  <unicode hex="013D"/>
  <outline>
    <contour>
      <point x="109" y="70" type="line"/>
      <point x="279" y="70" type="line"/>
      <point x="279" y="0" type="line"/>
      <point x="35" y="0" type="line"/>
      <point x="35" y="399" type="line"/>
      <point x="109" y="399" type="line"/>
    </contour>
    <contour>
      <point x="279" y="327" type="line"/>
      <point x="240" y="229" type="line"/>
      <point x="198" y="229" type="line"/>
      <point x="230" y="320" type="line"/>
      <point x="198" y="320" type="line"/>
      <point x="198" y="399" type="line"/>
      <point x="279" y="399" type="line"/>
    </contour>
  </outline>
</glyph>
<glyph name="lcaron" format="1">
  <advance width="184"/>
  <unicode hex="013E"/>
  <outline>
    <contour>
      <point x="32" y="0" type="line"/>
      <point x="32" y="421" type="line"/>
      <point x="101" y="421" type="line"/>
      <point x="101" y="0" type="line"/>
    </contour>
    <contour>
      <point x="173" y="229" type="line"/>
      <point x="132" y="229" type="line"/>
      <point x="163" y="320" type="line"/>
      <point x="132" y="320" type="line"/>
      <point x="132" y="399" type="line"/>
      <point x="212" y="399" type="line"/>
      <point x="212" y="327" type="line"/>
    </contour>
  </outline>
</glyph>
<glyph name="Lslash" format="1">
  <advance width="292"/>
  <unicode hex="0141"/>
  <outline>
    <contour>
      <point x="109" y="260" type="line"/>
      <point x="177" y="320" type="line"/>
      <point x="177" y="264" type="line"/>
      <point x="109" y="204" type="line"/>
      <point x="109" y="70" type="line"/>
      <point x="279" y="70" type="line"/>
      <point x="279" y="0" type="line"/>
      <point x="35" y="0" type="line"/>
      <point x="35" y="138" type="line"/>
      <point x="0" y="107" type="line"/>
      <point x="0" y="163" type="line"/>
      <point x="35" y="193" type="line"/>
      <point x="35" y="399" type="line"/>
      <point x="109" y="399" type="line"/>
    </contour>
  </outline>
</glyph>
<glyph name="Ncaron" format="1">
  <advance width="345"/>
  <unicode hex="0147"/>
  <outline>
    <contour>
      <point x="202" y="436" type="line"/>
      <point x="144" y="436" type="line"/>
      <point x="94" y="515" type="line"/>
      <point x="146" y="515" type="line"/>
      <point x="173" y="474" type="line"/>
      <point x="198" y="515" type="line"/>
      <point x="251" y="515" type="line"/>
    </contour>
    <contour>
      <point x="310" y="0" type="line"/>
      <point x="244" y="0" type="line"/>
      <point x="120" y="220" type="line" smooth="yes"/>
      <point x="115" y="229"/>
      <point x="102" y="258"/>
      <point x="102" y="258" type="curve"/>
      <point x="100" y="256" type="line"/>
      <point x="100" y="256"/>
      <point x="101" y="233"/>
      <point x="101" y="223" type="curve" smooth="yes"/>
      <point x="101" y="0" type="line"/>
      <point x="35" y="0" type="line"/>
      <point x="35" y="399" type="line"/>
      <point x="101" y="399" type="line"/>
      <point x="224" y="179" type="line" smooth="yes"/>
      <point x="231" y="169"/>
      <point x="243" y="142"/>
      <point x="243" y="142" type="curve"/>
      <point x="244" y="144" type="line"/>
      <point x="244" y="399" type="line"/>
      <point x="310" y="399" type="line"/>
    </contour>
  </outline>
</glyph>
<glyph name="napostrophe" format="1">
  <advance width="394"/>
  <unicode hex="0149"/>
  <outline>
    <contour>
      <point x="111" y="334" type="line"/>
      <point x="85" y="279" type="line"/>
      <point x="47" y="279" type="line"/>
      <point x="68" y="328" type="line"/>
      <point x="39" y="328" type="line"/>
      <point x="39" y="399" type="line"/>
      <point x="111" y="399" type="line"/>
    </contour>
    <contour>
      <point x="280" y="314" type="curve" smooth="yes"/>
      <point x="328" y="314"/>
      <point x="362" y="287"/>
      <point x="362" y="215" type="curve" smooth="yes"/>
      <point x="362" y="0" type="line"/>
      <point x="292" y="0" type="line"/>
      <point x="292" y="196" type="line" smooth="yes"/>
      <point x="292" y="235"/>
      <point x="277" y="250"/>
      <point x="252" y="250" type="curve" smooth="yes"/>
      <point x="224" y="250"/>
      <point x="204" y="223"/>
      <point x="204" y="188" type="curve" smooth="yes"/>
      <point x="204" y="0" type="line"/>
      <point x="134" y="0" type="line"/>
      <point x="134" y="306" type="line"/>
      <point x="192" y="306" type="line"/>
      <point x="199" y="269" type="line"/>
      <point x="203" y="269" type="line"/>
      <point x="218" y="293"/>
      <point x="244" y="314"/>
    </contour>
  </outline>
</glyph>
<glyph name="Eng" format="1">
  <advance width="345"/>
  <unicode hex="014A"/>
  <outline>
    <contour>
      <point x="310" y="-24" type="line" smooth="yes"/>
      <point x="310" y="-65"/>
      <point x="295" y="-106"/>
      <point x="239" y="-106" type="curve" smooth="yes"/>
      <point x="221" y="-106"/>
      <point x="200" y="-103"/>
      <point x="188" y="-99" type="curve"/>
      <point x="188" y="-47" type="line"/>
      <point x="214" y="-47" type="line" smooth="yes"/>
      <point x="233" y="-47"/>
      <point x="242" y="-38"/>
      <point x="242" y="-19" type="curve" smooth="yes"/>
      <point x="242" y="0" type="line"/>
      <point x="120" y="220" type="line" smooth="yes"/>
      <point x="115" y="229"/>
      <point x="102" y="258"/>
      <point x="102" y="258" type="curve"/>
      <point x="100" y="256" type="line"/>
      <point x="100" y="256"/>
      <point x="101" y="233"/>
      <point x="101" y="223" type="curve" smooth="yes"/>
      <point x="101" y="0" type="line"/>
      <point x="35" y="0" type="line"/>
      <point x="35" y="399" type="line"/>
      <point x="101" y="399" type="line"/>
      <point x="224" y="179" type="line" smooth="yes"/>
      <point x="231" y="169"/>
      <point x="243" y="142"/>
      <point x="243" y="142" type="curve"/>
      <point x="244" y="144" type="line"/>
      <point x="244" y="399" type="line"/>
      <point x="310" y="399" type="line"/>
    </contour>
  </outline>
</glyph>
<glyph name="eng" format="1">
  <advance width="292"/>
  <unicode hex="014B"/>
  <outline>
    <contour>
      <point x="179" y="314" type="curve" smooth="yes"/>
      <point x="225" y="314"/>
      <point x="260" y="287"/>
      <point x="260" y="215" type="curve" smooth="yes"/>
      <point x="260" y="-24" type="line" smooth="yes"/>
      <point x="260" y="-65"/>
      <point x="244" y="-106"/>
      <point x="188" y="-106" type="curve" smooth="yes"/>
      <point x="171" y="-106"/>
      <point x="149" y="-103"/>
      <point x="137" y="-99" type="curve"/>
      <point x="137" y="-47" type="line"/>
      <point x="163" y="-47" type="line" smooth="yes"/>
      <point x="181" y="-47"/>
      <point x="190" y="-38"/>
      <point x="190" y="-19" type="curve" smooth="yes"/>
      <point x="190" y="196" type="line" smooth="yes"/>
      <point x="190" y="235"/>
      <point x="175" y="250"/>
      <point x="150" y="250" type="curve" smooth="yes"/>
      <point x="123" y="250"/>
      <point x="102" y="223"/>
      <point x="102" y="188" type="curve" smooth="yes"/>
      <point x="102" y="0" type="line"/>
      <point x="32" y="0" type="line"/>
      <point x="32" y="306" type="line"/>
      <point x="90" y="306" type="line"/>
      <point x="98" y="269" type="line"/>
      <point x="101" y="269" type="line"/>
      <point x="117" y="293"/>
      <point x="142" y="314"/>
    </contour>
  </outline>
</glyph>
<glyph name="obreve" format="1">
  <advance width="292"/>
  <unicode hex="014F"/>
  <outline>
    <contour>
      <point x="223" y="421" type="line"/>
      <point x="223" y="392"/>
      <point x="194" y="359"/>
      <point x="146" y="359" type="curve" smooth="yes"/>
      <point x="98" y="359"/>
      <point x="68" y="392"/>
      <point x="68" y="421" type="curve"/>
      <point x="111" y="421" type="line"/>
      <point x="113" y="413"/>
      <point x="127" y="402"/>
      <point x="146" y="402" type="curve" smooth="yes"/>
      <point x="165" y="402"/>
      <point x="179" y="413"/>
      <point x="181" y="421" type="curve"/>
    </contour>
    <contour>
      <point x="146" y="314" type="curve" smooth="yes"/>
      <point x="228" y="314"/>
      <point x="269" y="264"/>
      <point x="269" y="153" type="curve" smooth="yes"/>
      <point x="269" y="43"/>
      <point x="228" y="-7"/>
      <point x="146" y="-7" type="curve" smooth="yes"/>
      <point x="65" y="-7"/>
      <point x="24" y="43"/>
      <point x="24" y="153" type="curve" smooth="yes"/>
      <point x="24" y="264"/>
      <point x="65" y="314"/>
    </contour>
    <contour>
      <point x="146" y="254" type="curve" smooth="yes"/>
      <point x="110" y="254"/>
      <point x="97" y="223"/>
      <point x="97" y="164" type="curve" smooth="yes"/>
      <point x="97" y="142" type="line" smooth="yes"/>
      <point x="97" y="83"/>
      <point x="110" y="52"/>
      <point x="146" y="52" type="curve" smooth="yes"/>
      <point x="183" y="52"/>
      <point x="196" y="83"/>
      <point x="196" y="142" type="curve" smooth="yes"/>
      <point x="196" y="164" type="line" smooth="yes"/>
      <point x="196" y="223"/>
      <point x="183" y="254"/>
    </contour>
  </outline>
</glyph>
<glyph name="oe" format="1">
  <advance width="451"/>
  <unicode hex="0153"/>
  <outline>
    <contour>
      <point x="0" y="0" type="move" name="Anchor-1"/>
    </contour>
    <contour>
      <point x="225" y="306" type="move" name="Anchor-0"/>
    </contour>
    <contour>
      <point x="314" y="314" type="curve" smooth="yes"/>
      <point x="388" y="314"/>
      <point x="424" y="264"/>
      <point x="424" y="153" type="curve" smooth="yes"/>
      <point x="424" y="136" type="line"/>
      <point x="269" y="136" type="line"/>
      <point x="270" y="81"/>
      <point x="282" y="50"/>
      <point x="316" y="50" type="curve" smooth="yes"/>
      <point x="340" y="50"/>
      <point x="355" y="72"/>
      <point x="355" y="108" type="curve"/>
      <point x="424" y="108" type="line"/>
      <point x="424" y="30"/>
      <point x="379" y="-7"/>
      <point x="316" y="-7" type="curve" smooth="yes"/>
      <point x="280" y="-7"/>
      <point x="252" y="5"/>
      <point x="233" y="31" type="curve"/>
      <point x="212" y="5"/>
      <point x="183" y="-7"/>
      <point x="146" y="-7" type="curve" smooth="yes"/>
      <point x="65" y="-7"/>
      <point x="24" y="43"/>
      <point x="24" y="153" type="curve" smooth="yes"/>
      <point x="24" y="264"/>
      <point x="65" y="314"/>
      <point x="146" y="314" type="curve" smooth="yes"/>
      <point x="183" y="314"/>
      <point x="212" y="301"/>
      <point x="232" y="275" type="curve"/>
      <point x="252" y="301"/>
      <point x="279" y="314"/>
    </contour>
    <contour>
      <point x="314" y="256" type="curve" smooth="yes"/>
      <point x="284" y="256"/>
      <point x="272" y="231"/>
      <point x="270" y="186" type="curve"/>
      <point x="351" y="186" type="line"/>
      <point x="351" y="231"/>
      <point x="339" y="256"/>
    </contour>
    <contour>
      <point x="146" y="254" type="curve" smooth="yes"/>
      <point x="110" y="254"/>
      <point x="97" y="223"/>
      <point x="97" y="164" type="curve" smooth="yes"/>
      <point x="97" y="142" type="line" smooth="yes"/>
      <point x="97" y="83"/>
      <point x="110" y="52"/>
      <point x="146" y="52" type="curve" smooth="yes"/>
      <point x="183" y="52"/>
      <point x="196" y="83"/>
      <point x="196" y="142" type="curve" smooth="yes"/>
      <point x="196" y="164" type="line" smooth="yes"/>
      <point x="196" y="223"/>
      <point x="183" y="254"/>
    </contour>
  </outline>
</glyph>
<glyph name="Racute" format="1">
  <advance width="345"/>
  <unicode hex="0154"/>
  <outline>
    <contour>
      <point x="253" y="513" type="line"/>
      <point x="190" y="438" type="line"/>
      <point x="132" y="438" type="line"/>
      <point x="183" y="515" type="line"/>
      <point x="252" y="515" type="line"/>
    </contour>
    <contour>
      <point x="202" y="399" type="line" smooth="yes"/>
      <point x="283" y="399"/>
      <point x="324" y="351"/>
      <point x="324" y="285" type="curve" smooth="yes"/>
      <point x="324" y="237"/>
      <point x="299" y="200"/>
      <point x="258" y="183" type="curve"/>
      <point x="334" y="0" type="line"/>
      <point x="254" y="0" type="line"/>
      <point x="187" y="167" type="line"/>
      <point x="109" y="167" type="line"/>
      <point x="109" y="0" type="line"/>
      <point x="35" y="0" type="line"/>
      <point x="35" y="399" type="line"/>
    </contour>
    <contour>
      <point x="109" y="333" type="line"/>
      <point x="109" y="233" type="line"/>
      <point x="192" y="233" type="line" smooth="yes"/>
      <point x="228" y="233"/>
      <point x="244" y="252"/>
      <point x="244" y="285" type="curve" smooth="yes"/>
      <point x="244" y="314"/>
      <point x="229" y="333"/>
      <point x="194" y="333" type="curve" smooth="yes"/>
    </contour>
  </outline>
</glyph>
<glyph name="racute" format="1">
  <advance width="186"/>
  <unicode hex="0155"/>
  <outline>
    <contour>
      <point x="146" y="419" type="line"/>
      <point x="83" y="344" type="line"/>
      <point x="24" y="344" type="line"/>
      <point x="74" y="421" type="line"/>
      <point x="145" y="421" type="line"/>
    </contour>
    <contour>
      <point x="155" y="314" type="curve" smooth="yes"/>
      <point x="173" y="314"/>
      <point x="184" y="309"/>
      <point x="184" y="309" type="curve"/>
      <point x="184" y="241" type="line"/>
      <point x="159" y="241" type="line" smooth="yes"/>
      <point x="129" y="241"/>
      <point x="102" y="225"/>
      <point x="102" y="171" type="curve" smooth="yes"/>
      <point x="102" y="0" type="line"/>
      <point x="32" y="0" type="line"/>
      <point x="32" y="306" type="line"/>
      <point x="90" y="306" type="line"/>
      <point x="98" y="262" type="line"/>
      <point x="102" y="262" type="line"/>
      <point x="110" y="287"/>
      <point x="124" y="314"/>
    </contour>
  </outline>
</glyph>
<glyph name="Scedilla" format="1">
  <advance width="319"/>
  <unicode hex="015E"/>
  <outline>
    <contour>
      <point x="159" y="407" type="curve" smooth="yes"/>
      <point x="230" y="407"/>
      <point x="289" y="371"/>
      <point x="289" y="289" type="curve" smooth="yes"/>
      <point x="289" y="282" type="line"/>
      <point x="213" y="282" type="line"/>
      <point x="213" y="287" type="line" smooth="yes"/>
      <point x="213" y="321"/>
      <point x="192" y="343"/>
      <point x="158" y="343" type="curve" smooth="yes"/>
      <point x="123" y="343"/>
      <point x="103" y="324"/>
      <point x="103" y="300" type="curve" smooth="yes"/>
      <point x="103" y="265"/>
      <point x="138" y="254"/>
      <point x="179" y="242" type="curve" smooth="yes"/>
      <point x="233" y="225"/>
      <point x="297" y="204"/>
      <point x="297" y="120" type="curve" smooth="yes"/>
      <point x="297" y="34"/>
      <point x="245" y="-2"/>
      <point x="171" y="-7" type="curve"/>
      <point x="169" y="-19" type="line"/>
      <point x="194" y="-21"/>
      <point x="215" y="-32"/>
      <point x="215" y="-59" type="curve" smooth="yes"/>
      <point x="215" y="-98"/>
      <point x="177" y="-106"/>
      <point x="152" y="-106" type="curve" smooth="yes"/>
      <point x="136" y="-106"/>
      <point x="117" y="-104"/>
      <point x="103" y="-101" type="curve"/>
      <point x="103" y="-73" type="line"/>
      <point x="144" y="-73" type="line" smooth="yes"/>
      <point x="158" y="-73"/>
      <point x="165" y="-70"/>
      <point x="165" y="-59" type="curve" smooth="yes"/>
      <point x="165" y="-49"/>
      <point x="161" y="-45"/>
      <point x="146" y="-45" type="curve" smooth="yes"/>
      <point x="127" y="-45" type="line"/>
      <point x="131" y="-5" type="line"/>
      <point x="68" y="3"/>
      <point x="18" y="43"/>
      <point x="18" y="117" type="curve" smooth="yes"/>
      <point x="18" y="130" type="line"/>
      <point x="96" y="130" type="line"/>
      <point x="95" y="121" type="line"/>
      <point x="95" y="83"/>
      <point x="118" y="57"/>
      <point x="159" y="57" type="curve" smooth="yes"/>
      <point x="204" y="57"/>
      <point x="219" y="81"/>
      <point x="219" y="104" type="curve" smooth="yes"/>
      <point x="219" y="146"/>
      <point x="181" y="158"/>
      <point x="139" y="172" type="curve" smooth="yes"/>
      <point x="86" y="190"/>
      <point x="26" y="210"/>
      <point x="26" y="295" type="curve" smooth="yes"/>
      <point x="26" y="370"/>
      <point x="88" y="407"/>
    </contour>
  </outline>
</glyph>
<glyph name="uni0162" format="1">
  <advance width="292"/>
  <unicode hex="0162"/>
  <outline>
    <contour>
      <point x="146" y="0" type="move" name="Anchor-1"/>
    </contour>
    <contour>
      <point x="146" y="399" type="move" name="Anchor-0"/>
    </contour>
    <contour>
      <point x="183" y="0" type="line"/>
      <point x="157" y="0" type="line"/>
      <point x="156" y="-19" type="line"/>
      <point x="181" y="-21"/>
      <point x="201" y="-32"/>
      <point x="201" y="-59" type="curve" smooth="yes"/>
      <point x="201" y="-98"/>
      <point x="163" y="-106"/>
      <point x="138" y="-106" type="curve" smooth="yes"/>
      <point x="121" y="-106"/>
      <point x="103" y="-104"/>
      <point x="89" y="-101" type="curve"/>
      <point x="89" y="-73" type="line"/>
      <point x="131" y="-73" type="line" smooth="yes"/>
      <point x="143" y="-73"/>
      <point x="151" y="-70"/>
      <point x="151" y="-59" type="curve" smooth="yes"/>
      <point x="151" y="-49"/>
      <point x="146" y="-45"/>
      <point x="131" y="-45" type="curve" smooth="yes"/>
      <point x="112" y="-45" type="line"/>
      <point x="118" y="0" type="line"/>
      <point x="109" y="0" type="line"/>
      <point x="109" y="333" type="line"/>
      <point x="10" y="333" type="line"/>
      <point x="10" y="399" type="line"/>
      <point x="283" y="399" type="line"/>
      <point x="283" y="333" type="line"/>
      <point x="183" y="333" type="line"/>
    </contour>
  </outline>
</glyph>
<glyph name="uni0163" format="1">
  <advance width="159"/>
  <unicode hex="0163"/>
  <outline>
    <contour>
      <point x="96" y="0" type="move" name="Anchor-1"/>
    </contour>
    <contour>
      <point x="0" y="0" type="move" name="Anchor-0"/>
    </contour>
    <contour>
      <point x="106" y="-19" type="line"/>
      <point x="131" y="-21"/>
      <point x="151" y="-32"/>
      <point x="151" y="-59" type="curve" smooth="yes"/>
      <point x="151" y="-98"/>
      <point x="113" y="-106"/>
      <point x="88" y="-106" type="curve" smooth="yes"/>
      <point x="71" y="-106"/>
      <point x="53" y="-104"/>
      <point x="39" y="-101" type="curve"/>
      <point x="39" y="-73" type="line"/>
      <point x="81" y="-73" type="line" smooth="yes"/>
      <point x="93" y="-73"/>
      <point x="101" y="-70"/>
      <point x="101" y="-59" type="curve" smooth="yes"/>
      <point x="101" y="-49"/>
      <point x="96" y="-45"/>
      <point x="81" y="-45" type="curve" smooth="yes"/>
      <point x="62" y="-45" type="line"/>
      <point x="68" y="3" type="line"/>
      <point x="44" y="17"/>
      <point x="36" y="46"/>
      <point x="36" y="75" type="curve" smooth="yes"/>
      <point x="36" y="248" type="line"/>
      <point x="5" y="248" type="line"/>
      <point x="5" y="306" type="line"/>
      <point x="36" y="306" type="line"/>
      <point x="47" y="393" type="line"/>
      <point x="106" y="393" type="line"/>
      <point x="106" y="306" type="line"/>
      <point x="150" y="306" type="line"/>
      <point x="150" y="248" type="line"/>
      <point x="106" y="248" type="line"/>
      <point x="106" y="77" type="line" smooth="yes"/>
      <point x="106" y="61"/>
      <point x="115" y="52"/>
      <point x="130" y="52" type="curve" smooth="yes"/>
      <point x="150" y="52" type="line"/>
      <point x="150" y="0" type="line"/>
      <point x="140" y="-3"/>
      <point x="122" y="-7"/>
      <point x="107" y="-7" type="curve"/>
    </contour>
  </outline>
</glyph>
<glyph name="tcaron" format="1">
  <advance width="229"/>
  <unicode hex="0165"/>
  <outline>
    <contour>
      <point x="223" y="248" type="line"/>
      <point x="182" y="248" type="line"/>
      <point x="207" y="320" type="line"/>
      <point x="175" y="320" type="line"/>
      <point x="175" y="399" type="line"/>
      <point x="255" y="399" type="line"/>
      <point x="255" y="327" type="line"/>
    </contour>
    <contour>
      <point x="150" y="306" type="line"/>
      <point x="150" y="248" type="line"/>
      <point x="106" y="248" type="line"/>
      <point x="106" y="77" type="line" smooth="yes"/>
      <point x="106" y="61"/>
      <point x="115" y="52"/>
      <point x="130" y="52" type="curve" smooth="yes"/>
      <point x="150" y="52" type="line"/>
      <point x="150" y="0" type="line"/>
      <point x="140" y="-3"/>
      <point x="122" y="-7"/>
      <point x="108" y="-7" type="curve" smooth="yes"/>
      <point x="53" y="-7"/>
      <point x="36" y="34"/>
      <point x="36" y="75" type="curve" smooth="yes"/>
      <point x="36" y="248" type="line"/>
      <point x="5" y="248" type="line"/>
      <point x="5" y="306" type="line"/>
      <point x="36" y="306" type="line"/>
      <point x="47" y="393" type="line"/>
      <point x="106" y="393" type="line"/>
      <point x="106" y="306" type="line"/>
    </contour>
  </outline>
</glyph>
<glyph name="Tbar" format="1">
  <advance width="292"/>
  <unicode hex="0166"/>
  <outline>
    <contour>
      <point x="283" y="333" type="line"/>
      <point x="183" y="333" type="line"/>
      <point x="183" y="229" type="line"/>
      <point x="248" y="229" type="line"/>
      <point x="248" y="179" type="line"/>
      <point x="183" y="179" type="line"/>
      <point x="183" y="0" type="line"/>
      <point x="109" y="0" type="line"/>
      <point x="109" y="179" type="line"/>
      <point x="43" y="179" type="line"/>
      <point x="43" y="229" type="line"/>
      <point x="109" y="229" type="line"/>
      <point x="109" y="333" type="line"/>
      <point x="10" y="333" type="line"/>
      <point x="10" y="399" type="line"/>
      <point x="283" y="399" type="line"/>
    </contour>
  </outline>
</glyph>
<glyph name="tbar" format="1">
  <advance width="159"/>
  <unicode hex="0167"/>
  <outline>
    <contour>
      <point x="106" y="306" type="line"/>
      <point x="150" y="306" type="line"/>
      <point x="150" y="248" type="line"/>
      <point x="106" y="248" type="line"/>
      <point x="106" y="204" type="line"/>
      <point x="148" y="204" type="line"/>
      <point x="148" y="153" type="line"/>
      <point x="106" y="153" type="line"/>
      <point x="106" y="77" type="line" smooth="yes"/>
      <point x="106" y="61"/>
      <point x="115" y="52"/>
      <point x="130" y="52" type="curve" smooth="yes"/>
      <point x="150" y="52" type="line"/>
      <point x="150" y="0" type="line"/>
      <point x="140" y="-3"/>
      <point x="122" y="-7"/>
      <point x="108" y="-7" type="curve" smooth="yes"/>
      <point x="53" y="-7"/>
      <point x="36" y="34"/>
      <point x="36" y="75" type="curve" smooth="yes"/>
      <point x="36" y="153" type="line"/>
      <point x="7" y="153" type="line"/>
      <point x="7" y="204" type="line"/>
      <point x="36" y="204" type="line"/>
      <point x="36" y="248" type="line"/>
      <point x="5" y="248" type="line"/>
      <point x="5" y="306" type="line"/>
      <point x="36" y="306" type="line"/>
      <point x="47" y="393" type="line"/>
      <point x="106" y="393" type="line"/>
    </contour>
  </outline>
</glyph>
<glyph name="Utilde" format="1">
  <advance width="345"/>
  <unicode hex="0168"/>
  <outline>
    <contour>
      <point x="270" y="515" type="line"/>
      <point x="270" y="482"/>
      <point x="254" y="444"/>
      <point x="213" y="444" type="curve" smooth="yes"/>
      <point x="199" y="444"/>
      <point x="186" y="449"/>
      <point x="173" y="455" type="curve" smooth="yes"/>
      <point x="161" y="460"/>
      <point x="149" y="465"/>
      <point x="136" y="465" type="curve" smooth="yes"/>
      <point x="123" y="465"/>
      <point x="115" y="459"/>
      <point x="113" y="444" type="curve"/>
      <point x="74" y="444" type="line"/>
      <point x="74" y="475"/>
      <point x="91" y="515"/>
      <point x="132" y="515" type="curve" smooth="yes"/>
      <point x="146" y="515"/>
      <point x="159" y="509"/>
      <point x="172" y="504" type="curve" smooth="yes"/>
      <point x="184" y="498"/>
      <point x="196" y="493"/>
      <point x="209" y="493" type="curve" smooth="yes"/>
      <point x="221" y="493"/>
      <point x="229" y="498"/>
      <point x="232" y="515" type="curve"/>
    </contour>
    <contour>
      <point x="310" y="125" type="line" smooth="yes"/>
      <point x="310" y="38"/>
      <point x="258" y="-7"/>
      <point x="173" y="-7" type="curve" smooth="yes"/>
      <point x="87" y="-7"/>
      <point x="36" y="38"/>
      <point x="36" y="125" type="curve" smooth="yes"/>
      <point x="36" y="399" type="line"/>
      <point x="110" y="399" type="line"/>
      <point x="110" y="128" type="line" smooth="yes"/>
      <point x="110" y="82"/>
      <point x="133" y="57"/>
      <point x="173" y="57" type="curve" smooth="yes"/>
      <point x="212" y="57"/>
      <point x="235" y="82"/>
      <point x="235" y="128" type="curve" smooth="yes"/>
      <point x="235" y="399" type="line"/>
      <point x="310" y="399" type="line"/>
    </contour>
  </outline>
</glyph>
<glyph name="Umacron" format="1">
  <advance width="345"/>
  <unicode hex="016A"/>
  <outline>
    <contour>
      <point x="247" y="442" type="line"/>
      <point x="98" y="442" type="line"/>
      <point x="98" y="493" type="line"/>
      <point x="247" y="493" type="line"/>
    </contour>
    <contour>
      <point x="310" y="125" type="line" smooth="yes"/>
      <point x="310" y="38"/>
      <point x="258" y="-7"/>
      <point x="173" y="-7" type="curve" smooth="yes"/>
      <point x="87" y="-7"/>
      <point x="36" y="38"/>
      <point x="36" y="125" type="curve" smooth="yes"/>
      <point x="36" y="399" type="line"/>
      <point x="110" y="399" type="line"/>
      <point x="110" y="128" type="line" smooth="yes"/>
      <point x="110" y="82"/>
      <point x="133" y="57"/>
      <point x="173" y="57" type="curve" smooth="yes"/>
      <point x="212" y="57"/>
      <point x="235" y="82"/>
      <point x="235" y="128" type="curve" smooth="yes"/>
      <point x="235" y="399" type="line"/>
      <point x="310" y="399" type="line"/>
    </contour>
  </outline>
</glyph>
<glyph name="ubreve" format="1">
  <advance width="292"/>
  <unicode hex="016D"/>
  <outline>
    <contour>
      <point x="223" y="421" type="line"/>
      <point x="223" y="392"/>
      <point x="194" y="359"/>
      <point x="146" y="359" type="curve" smooth="yes"/>
      <point x="98" y="359"/>
      <point x="68" y="392"/>
      <point x="68" y="421" type="curve"/>
      <point x="111" y="421" type="line"/>
      <point x="113" y="413"/>
      <point x="127" y="402"/>
      <point x="146" y="402" type="curve" smooth="yes"/>
      <point x="165" y="402"/>
      <point x="179" y="413"/>
      <point x="181" y="421" type="curve"/>
    </contour>
    <contour>
      <point x="202" y="0" type="line"/>
      <point x="194" y="38" type="line"/>
      <point x="191" y="38" type="line"/>
      <point x="175" y="14"/>
      <point x="150" y="-7"/>
      <point x="113" y="-7" type="curve" smooth="yes"/>
      <point x="67" y="-7"/>
      <point x="32" y="19"/>
      <point x="32" y="92" type="curve" smooth="yes"/>
      <point x="32" y="306" type="line"/>
      <point x="102" y="306" type="line"/>
      <point x="102" y="111" type="line" smooth="yes"/>
      <point x="102" y="71"/>
      <point x="116" y="57"/>
      <point x="142" y="57" type="curve" smooth="yes"/>
      <point x="169" y="57"/>
      <point x="190" y="82"/>
      <point x="190" y="117" type="curve" smooth="yes"/>
      <point x="190" y="306" type="line"/>
      <point x="260" y="306" type="line"/>
      <point x="260" y="0" type="line"/>
    </contour>
  </outline>
</glyph>
<glyph name="Uring" format="1">
  <advance width="345"/>
  <unicode hex="016E"/>
  <outline>
    <contour>
      <point x="173" y="532" type="curve" smooth="yes"/>
      <point x="204" y="532"/>
      <point x="229" y="506"/>
      <point x="229" y="476" type="curve" smooth="yes"/>
      <point x="229" y="445"/>
      <point x="204" y="420"/>
      <point x="173" y="420" type="curve" smooth="yes"/>
      <point x="142" y="420"/>
      <point x="117" y="444"/>
      <point x="117" y="476" type="curve" smooth="yes"/>
      <point x="117" y="507"/>
      <point x="142" y="532"/>
    </contour>
    <contour>
      <point x="173" y="503" type="curve" smooth="yes"/>
      <point x="158" y="503"/>
      <point x="146" y="491"/>
      <point x="146" y="476" type="curve" smooth="yes"/>
      <point x="146" y="461"/>
      <point x="158" y="449"/>
      <point x="173" y="449" type="curve" smooth="yes"/>
      <point x="187" y="449"/>
      <point x="199" y="461"/>
      <point x="199" y="476" type="curve" smooth="yes"/>
      <point x="199" y="491"/>
      <point x="187" y="503"/>
    </contour>
    <contour>
      <point x="310" y="125" type="line" smooth="yes"/>
      <point x="310" y="38"/>
      <point x="258" y="-7"/>
      <point x="173" y="-7" type="curve" smooth="yes"/>
      <point x="87" y="-7"/>
      <point x="36" y="38"/>
      <point x="36" y="125" type="curve" smooth="yes"/>
      <point x="36" y="399" type="line"/>
      <point x="110" y="399" type="line"/>
      <point x="110" y="128" type="line" smooth="yes"/>
      <point x="110" y="82"/>
      <point x="133" y="57"/>
      <point x="173" y="57" type="curve" smooth="yes"/>
      <point x="212" y="57"/>
      <point x="235" y="82"/>
      <point x="235" y="128" type="curve" smooth="yes"/>
      <point x="235" y="399" type="line"/>
      <point x="310" y="399" type="line"/>
    </contour>
  </outline>
</glyph>
<glyph name="uring" format="1">
  <advance width="292"/>
  <unicode hex="016F"/>
  <outline>
    <contour>
      <point x="146" y="439" type="curve" smooth="yes"/>
      <point x="178" y="439"/>
      <point x="202" y="413"/>
      <point x="202" y="383" type="curve" smooth="yes"/>
      <point x="202" y="352"/>
      <point x="177" y="327"/>
      <point x="146" y="327" type="curve" smooth="yes"/>
      <point x="116" y="327"/>
      <point x="90" y="351"/>
      <point x="90" y="383" type="curve" smooth="yes"/>
      <point x="90" y="414"/>
      <point x="115" y="439"/>
    </contour>
    <contour>
      <point x="146" y="409" type="curve" smooth="yes"/>
      <point x="131" y="409"/>
      <point x="119" y="398"/>
      <point x="119" y="383" type="curve" smooth="yes"/>
      <point x="119" y="368"/>
      <point x="131" y="356"/>
      <point x="146" y="356" type="curve" smooth="yes"/>
      <point x="161" y="356"/>
      <point x="173" y="368"/>
      <point x="173" y="383" type="curve" smooth="yes"/>
      <point x="173" y="398"/>
      <point x="161" y="409"/>
    </contour>
    <contour>
      <point x="202" y="0" type="line"/>
      <point x="194" y="38" type="line"/>
      <point x="191" y="38" type="line"/>
      <point x="175" y="14"/>
      <point x="150" y="-7"/>
      <point x="113" y="-7" type="curve" smooth="yes"/>
      <point x="67" y="-7"/>
      <point x="32" y="19"/>
      <point x="32" y="92" type="curve" smooth="yes"/>
      <point x="32" y="306" type="line"/>
      <point x="102" y="306" type="line"/>
      <point x="102" y="111" type="line" smooth="yes"/>
      <point x="102" y="71"/>
      <point x="116" y="57"/>
      <point x="142" y="57" type="curve" smooth="yes"/>
      <point x="169" y="57"/>
      <point x="190" y="82"/>
      <point x="190" y="117" type="curve" smooth="yes"/>
      <point x="190" y="306" type="line"/>
      <point x="260" y="306" type="line"/>
      <point x="260" y="0" type="line"/>
    </contour>
  </outline>
</glyph>
<glyph name="uhungarumlaut" format="1">
  <advance width="292"/>
  <unicode hex="0171"/>
  <outline>
    <contour>
      <point x="175" y="419" type="line"/>
      <point x="127" y="344" type="line"/>
      <point x="80" y="344" type="line"/>
      <point x="117" y="421" type="line"/>
      <point x="175" y="421" type="line"/>
    </contour>
    <contour>
      <point x="257" y="419" type="line"/>
      <point x="208" y="344" type="line"/>
      <point x="162" y="344" type="line"/>
      <point x="198" y="421" type="line"/>
      <point x="256" y="421" type="line"/>
    </contour>
    <contour>
      <point x="260" y="0" type="line"/>
      <point x="202" y="0" type="line"/>
      <point x="194" y="38" type="line"/>
      <point x="191" y="38" type="line"/>
      <point x="175" y="14"/>
      <point x="150" y="-7"/>
      <point x="113" y="-7" type="curve" smooth="yes"/>
      <point x="67" y="-7"/>
      <point x="32" y="19"/>
      <point x="32" y="92" type="curve" smooth="yes"/>
      <point x="32" y="306" type="line"/>
      <point x="102" y="306" type="line"/>
      <point x="102" y="111" type="line" smooth="yes"/>
      <point x="102" y="71"/>
      <point x="116" y="57"/>
      <point x="142" y="57" type="curve" smooth="yes"/>
      <point x="169" y="57"/>
      <point x="190" y="82"/>
      <point x="190" y="117" type="curve" smooth="yes"/>
      <point x="190" y="306" type="line"/>
      <point x="260" y="306" type="line"/>
    </contour>
  </outline>
</glyph>
<glyph name="uogonek" format="1">
  <advance width="292"/>
  <unicode hex="0173"/>
  <outline>
    <contour>
      <point x="269" y="-71" type="curve" smooth="yes"/>
      <point x="281" y="-71" type="line"/>
      <point x="281" y="-103" type="line"/>
      <point x="268" y="-108"/>
      <point x="256" y="-111"/>
      <point x="243" y="-111" type="curve" smooth="yes"/>
      <point x="216" y="-111"/>
      <point x="185" y="-98"/>
      <point x="185" y="-58" type="curve" smooth="yes"/>
      <point x="185" y="-31"/>
      <point x="196" y="-15"/>
      <point x="211" y="0" type="curve"/>
      <point x="202" y="0" type="line"/>
      <point x="194" y="38" type="line"/>
      <point x="191" y="38" type="line"/>
      <point x="175" y="14"/>
      <point x="150" y="-7"/>
      <point x="113" y="-7" type="curve" smooth="yes"/>
      <point x="67" y="-7"/>
      <point x="32" y="19"/>
      <point x="32" y="92" type="curve" smooth="yes"/>
      <point x="32" y="306" type="line"/>
      <point x="102" y="306" type="line"/>
      <point x="102" y="111" type="line" smooth="yes"/>
      <point x="102" y="71"/>
      <point x="116" y="57"/>
      <point x="142" y="57" type="curve" smooth="yes"/>
      <point x="169" y="57"/>
      <point x="190" y="82"/>
      <point x="190" y="117" type="curve" smooth="yes"/>
      <point x="190" y="306" type="line"/>
      <point x="260" y="306" type="line"/>
      <point x="260" y="0" type="line"/>
      <point x="253" y="-8"/>
      <point x="243" y="-24"/>
      <point x="243" y="-41" type="curve" smooth="yes"/>
      <point x="243" y="-56"/>
      <point x="249" y="-71"/>
    </contour>
  </outline>
</glyph>
<glyph name="wcircumflex" format="1">
  <advance width="372"/>
  <unicode hex="0175"/>
  <outline>
    <contour>
      <point x="212" y="343" type="line"/>
      <point x="186" y="383" type="line"/>
      <point x="160" y="343" type="line"/>
      <point x="108" y="343" type="line"/>
      <point x="158" y="421" type="line"/>
      <point x="215" y="421" type="line"/>
      <point x="264" y="343" type="line"/>
    </contour>
    <contour>
      <point x="227" y="0" type="line"/>
      <point x="196" y="146" type="line" smooth="yes"/>
      <point x="190" y="177"/>
      <point x="188" y="222"/>
      <point x="188" y="222" type="curve"/>
      <point x="184" y="222" type="line"/>
      <point x="184" y="222"/>
      <point x="182" y="179"/>
      <point x="175" y="147" type="curve" smooth="yes"/>
      <point x="146" y="0" type="line"/>
      <point x="75" y="0" type="line"/>
      <point x="1" y="306" type="line"/>
      <point x="71" y="306" type="line"/>
      <point x="100" y="181" type="line" smooth="yes"/>
      <point x="109" y="139"/>
      <point x="112" y="84"/>
      <point x="112" y="84" type="curve"/>
      <point x="114" y="84" type="line"/>
      <point x="114" y="84"/>
      <point x="118" y="136"/>
      <point x="127" y="180" type="curve" smooth="yes"/>
      <point x="153" y="306" type="line"/>
      <point x="223" y="306" type="line"/>
      <point x="249" y="179" type="line" smooth="yes"/>
      <point x="256" y="150"/>
      <point x="262" y="84"/>
      <point x="262" y="84" type="curve"/>
      <point x="264" y="84" type="line"/>
      <point x="264" y="84"/>
      <point x="273" y="145"/>
      <point x="279" y="179" type="curve" smooth="yes"/>
      <point x="306" y="306" type="line"/>
      <point x="371" y="306" type="line"/>
      <point x="297" y="0" type="line"/>
    </contour>
  </outline>
</glyph>
<glyph name="Ydieresis" format="1">
  <advance width="319"/>
  <unicode hex="0178"/>
  <outline>
    <contour>
      <point x="138" y="451" type="line"/>
      <point x="79" y="451" type="line"/>
      <point x="79" y="515" type="line"/>
      <point x="138" y="515" type="line"/>
    </contour>
    <contour>
      <point x="239" y="451" type="line"/>
      <point x="181" y="451" type="line"/>
      <point x="181" y="515" type="line"/>
      <point x="239" y="515" type="line"/>
    </contour>
    <contour>
      <point x="197" y="151" type="line"/>
      <point x="197" y="0" type="line"/>
      <point x="123" y="0" type="line"/>
      <point x="123" y="151" type="line"/>
      <point x="0" y="399" type="line"/>
      <point x="78" y="399" type="line"/>
      <point x="160" y="224" type="line"/>
      <point x="163" y="224" type="line"/>
      <point x="244" y="399" type="line"/>
      <point x="319" y="399" type="line"/>
    </contour>
  </outline>
</glyph>
<glyph name="zacute" format="1">
  <advance width="239"/>
  <unicode hex="017A"/>
  <outline>
    <contour>
      <point x="200" y="419" type="line"/>
      <point x="137" y="344" type="line"/>
      <point x="79" y="344" type="line"/>
      <point x="129" y="421" type="line"/>
      <point x="199" y="421" type="line"/>
    </contour>
    <contour>
      <point x="224" y="277" type="line"/>
      <point x="105" y="59" type="line"/>
      <point x="229" y="59" type="line"/>
      <point x="229" y="0" type="line"/>
      <point x="11" y="0" type="line"/>
      <point x="11" y="30" type="line"/>
      <point x="129" y="248" type="line"/>
      <point x="18" y="248" type="line"/>
      <point x="18" y="306" type="line"/>
      <point x="224" y="306" type="line"/>
    </contour>
  </outline>
</glyph>
<glyph name="Zcaron" format="1">
  <advance width="292"/>
  <unicode hex="017D"/>
  <outline>
    <contour>
      <point x="175" y="436" type="line"/>
      <point x="118" y="436" type="line"/>
      <point x="68" y="515" type="line"/>
      <point x="120" y="515" type="line"/>
      <point x="146" y="474" type="line"/>
      <point x="172" y="515" type="line"/>
      <point x="224" y="515" type="line"/>
    </contour>
    <contour>
      <point x="275" y="370" type="line"/>
      <point x="111" y="67" type="line"/>
      <point x="279" y="67" type="line"/>
      <point x="279" y="0" type="line"/>
      <point x="9" y="0" type="line"/>
      <point x="9" y="28" type="line"/>
      <point x="173" y="333" type="line"/>
      <point x="22" y="333" type="line"/>
      <point x="22" y="399" type="line"/>
      <point x="275" y="399" type="line"/>
    </contour>
  </outline>
</glyph>
<glyph name="zcaron" format="1">
  <advance width="239"/>
  <unicode hex="017E"/>
  <outline>
    <contour>
      <point x="92" y="343" type="line"/>
      <point x="42" y="421" type="line"/>
      <point x="94" y="421" type="line"/>
      <point x="120" y="381" type="line"/>
      <point x="146" y="421" type="line"/>
      <point x="198" y="421" type="line"/>
      <point x="148" y="343" type="line"/>
    </contour>
    <contour>
      <point x="105" y="59" type="line"/>
      <point x="229" y="59" type="line"/>
      <point x="229" y="0" type="line"/>
      <point x="11" y="0" type="line"/>
      <point x="11" y="30" type="line"/>
      <point x="129" y="248" type="line"/>
      <point x="18" y="248" type="line"/>
      <point x="18" y="306" type="line"/>
      <point x="224" y="306" type="line"/>
      <point x="224" y="277" type="line"/>
    </contour>
  </outline>
</glyph>
<glyph name="florin" format="1">
  <advance width="266"/>
  <unicode hex="0192"/>
  <outline>
    <contour>
      <point x="211" y="426" type="curve" smooth="yes"/>
      <point x="227" y="426"/>
      <point x="249" y="422"/>
      <point x="260" y="419" type="curve"/>
      <point x="253" y="367" type="line"/>
      <point x="224" y="367" type="line" smooth="yes"/>
      <point x="208" y="367"/>
      <point x="198" y="358"/>
      <point x="196" y="342" type="curve" smooth="yes"/>
      <point x="188" y="284" type="line"/>
      <point x="241" y="284" type="line"/>
      <point x="233" y="225" type="line"/>
      <point x="180" y="225" type="line"/>
      <point x="145" y="-24" type="line" smooth="yes"/>
      <point x="139" y="-65"/>
      <point x="117" y="-106"/>
      <point x="61" y="-106" type="curve" smooth="yes"/>
      <point x="44" y="-106"/>
      <point x="22" y="-103"/>
      <point x="11" y="-99" type="curve"/>
      <point x="18" y="-47" type="line"/>
      <point x="47" y="-47" type="line" smooth="yes"/>
      <point x="63" y="-47"/>
      <point x="72" y="-38"/>
      <point x="75" y="-22" type="curve" smooth="yes"/>
      <point x="110" y="225" type="line"/>
      <point x="68" y="225" type="line"/>
      <point x="76" y="284" type="line"/>
      <point x="118" y="284" type="line"/>
      <point x="127" y="344" type="line" smooth="yes"/>
      <point x="132" y="384"/>
      <point x="155" y="426"/>
    </contour>
  </outline>
</glyph>
<glyph name="Aringacute" format="1">
  <advance width="345"/>
  <unicode hex="01FA"/>
  <outline>
    <contour>
      <point x="205" y="494" type="line"/>
      <point x="148" y="494" type="line"/>
      <point x="188" y="558" type="line"/>
      <point x="258" y="558" type="line"/>
      <point x="258" y="556" type="line"/>
    </contour>
    <contour>
      <point x="173" y="478" type="curve" smooth="yes"/>
      <point x="204" y="478"/>
      <point x="229" y="453"/>
      <point x="229" y="424" type="curve" smooth="yes"/>
      <point x="229" y="413"/>
      <point x="224" y="401"/>
      <point x="218" y="392" type="curve"/>
      <point x="344" y="0" type="line"/>
      <point x="268" y="0" type="line"/>
      <point x="244" y="78" type="line"/>
      <point x="96" y="78" type="line"/>
      <point x="72" y="0" type="line"/>
      <point x="0" y="0" type="line"/>
      <point x="127" y="393" type="line"/>
      <point x="120" y="401"/>
      <point x="117" y="413"/>
      <point x="117" y="424" type="curve" smooth="yes"/>
      <point x="117" y="454"/>
      <point x="142" y="478"/>
    </contour>
    <contour>
      <point x="173" y="449" type="curve" smooth="yes"/>
      <point x="158" y="449"/>
      <point x="146" y="439"/>
      <point x="146" y="424" type="curve" smooth="yes"/>
      <point x="146" y="409"/>
      <point x="158" y="398"/>
      <point x="173" y="398" type="curve" smooth="yes"/>
      <point x="187" y="398"/>
      <point x="199" y="409"/>
      <point x="199" y="424" type="curve" smooth="yes"/>
      <point x="199" y="439"/>
      <point x="187" y="449"/>
    </contour>
    <contour>
      <point x="169" y="333" type="line"/>
      <point x="169" y="333"/>
      <point x="163" y="297"/>
      <point x="158" y="279" type="curve" smooth="yes"/>
      <point x="117" y="145" type="line"/>
      <point x="223" y="145" type="line"/>
      <point x="183" y="279" type="line" smooth="yes"/>
      <point x="177" y="299"/>
      <point x="171" y="333"/>
      <point x="171" y="333" type="curve"/>
    </contour>
  </outline>
</glyph>
<glyph name="aringacute" format="1">
  <advance width="291"/>
  <unicode hex="01FB"/>
  <outline>
    <contour>
      <point x="215" y="513" type="line"/>
      <point x="159" y="447" type="line"/>
      <point x="101" y="447" type="line"/>
      <point x="145" y="515" type="line"/>
      <point x="215" y="515" type="line"/>
    </contour>
    <contour>
      <point x="127" y="435" type="curve" smooth="yes"/>
      <point x="158" y="435"/>
      <point x="183" y="410"/>
      <point x="183" y="381" type="curve" smooth="yes"/>
      <point x="183" y="351"/>
      <point x="158" y="327"/>
      <point x="127" y="327" type="curve" smooth="yes"/>
      <point x="96" y="327"/>
      <point x="71" y="351"/>
      <point x="71" y="381" type="curve" smooth="yes"/>
      <point x="71" y="411"/>
      <point x="96" y="435"/>
    </contour>
    <contour>
      <point x="127" y="407" type="curve" smooth="yes"/>
      <point x="111" y="407"/>
      <point x="100" y="395"/>
      <point x="100" y="381" type="curve" smooth="yes"/>
      <point x="100" y="366"/>
      <point x="111" y="355"/>
      <point x="127" y="355" type="curve" smooth="yes"/>
      <point x="141" y="355"/>
      <point x="153" y="366"/>
      <point x="153" y="381" type="curve" smooth="yes"/>
      <point x="153" y="395"/>
      <point x="141" y="407"/>
    </contour>
    <contour>
      <point x="127" y="314" type="curve" smooth="yes"/>
      <point x="198" y="314"/>
      <point x="231" y="280"/>
      <point x="231" y="223" type="curve" smooth="yes"/>
      <point x="231" y="72" type="line" smooth="yes"/>
      <point x="231" y="58"/>
      <point x="239" y="52"/>
      <point x="247" y="52" type="curve" smooth="yes"/>
      <point x="261" y="52" type="line"/>
      <point x="261" y="3" type="line"/>
      <point x="254" y="-2"/>
      <point x="241" y="-7"/>
      <point x="219" y="-7" type="curve" smooth="yes"/>
      <point x="192" y="-7"/>
      <point x="173" y="9"/>
      <point x="165" y="33" type="curve"/>
      <point x="163" y="33" type="line"/>
      <point x="145" y="9"/>
      <point x="126" y="-7"/>
      <point x="85" y="-7" type="curve" smooth="yes"/>
      <point x="57" y="-7"/>
      <point x="8" y="8"/>
      <point x="8" y="79" type="curve" smooth="yes"/>
      <point x="8" y="162"/>
      <point x="71" y="186"/>
      <point x="160" y="186" type="curve"/>
      <point x="160" y="218" type="line" smooth="yes"/>
      <point x="160" y="239"/>
      <point x="155" y="256"/>
      <point x="128" y="256" type="curve" smooth="yes"/>
      <point x="100" y="256"/>
      <point x="92" y="239"/>
      <point x="92" y="224" type="curve" smooth="yes"/>
      <point x="92" y="215" type="line"/>
      <point x="23" y="215" type="line"/>
      <point x="22" y="219"/>
      <point x="22" y="223"/>
      <point x="22" y="229" type="curve" smooth="yes"/>
      <point x="22" y="279"/>
      <point x="63" y="314"/>
    </contour>
    <contour>
      <point x="160" y="136" type="line"/>
      <point x="119" y="136"/>
      <point x="80" y="125"/>
      <point x="80" y="86" type="curve" smooth="yes"/>
      <point x="80" y="65"/>
      <point x="90" y="51"/>
      <point x="114" y="51" type="curve" smooth="yes"/>
      <point x="148" y="51"/>
      <point x="160" y="82"/>
      <point x="160" y="118" type="curve" smooth="yes"/>
    </contour>
  </outline>
</glyph>
<glyph name="AEacute" format="1">
  <advance width="478"/>
  <unicode hex="01FC"/>
  <outline>
    <contour>
      <point x="319" y="513" type="line"/>
      <point x="256" y="438" type="line"/>
      <point x="198" y="438" type="line"/>
      <point x="248" y="515" type="line"/>
      <point x="319" y="515" type="line"/>
    </contour>
    <contour>
      <point x="449" y="333" type="line"/>
      <point x="255" y="333" type="line"/>
      <point x="279" y="238" type="line"/>
      <point x="424" y="238" type="line"/>
      <point x="424" y="171" type="line"/>
      <point x="295" y="171" type="line"/>
      <point x="320" y="67" type="line"/>
      <point x="453" y="67" type="line"/>
      <point x="453" y="0" type="line"/>
      <point x="260" y="0" type="line"/>
      <point x="241" y="78" type="line"/>
      <point x="94" y="78" type="line"/>
      <point x="65" y="0" type="line"/>
      <point x="-5" y="0" type="line"/>
      <point x="148" y="399" type="line"/>
      <point x="449" y="399" type="line"/>
    </contour>
    <contour>
      <point x="183" y="318" type="line"/>
      <point x="179" y="309"/>
      <point x="175" y="299"/>
      <point x="172" y="289" type="curve" smooth="yes"/>
      <point x="118" y="145" type="line"/>
      <point x="225" y="145" type="line"/>
      <point x="191" y="291" type="line" smooth="yes"/>
      <point x="189" y="297"/>
      <point x="188" y="303"/>
      <point x="187" y="309" type="curve" smooth="yes"/>
      <point x="186" y="312"/>
      <point x="186" y="315"/>
      <point x="185" y="318" type="curve" smooth="yes"/>
    </contour>
  </outline>
</glyph>
<glyph name="scommaaccent" format="1">
  <advance width="266"/>
  <unicode hex="0219"/>
  <outline>
    <contour>
      <point x="133" y="0" type="move" name="Anchor-1"/>
    </contour>
    <contour>
      <point x="133" y="306" type="move" name="Anchor-0"/>
    </contour>
    <contour>
      <point x="133" y="314" type="curve" smooth="yes"/>
      <point x="192" y="314"/>
      <point x="237" y="283"/>
      <point x="237" y="230" type="curve" smooth="yes"/>
      <point x="237" y="217" type="line"/>
      <point x="165" y="217" type="line"/>
      <point x="165" y="218" type="line" smooth="yes"/>
      <point x="165" y="244"/>
      <point x="152" y="256"/>
      <point x="131" y="256" type="curve" smooth="yes"/>
      <point x="109" y="256"/>
      <point x="95" y="244"/>
      <point x="95" y="226" type="curve" smooth="yes"/>
      <point x="95" y="202"/>
      <point x="120" y="195"/>
      <point x="150" y="188" type="curve" smooth="yes"/>
      <point x="192" y="177"/>
      <point x="244" y="164"/>
      <point x="244" y="92" type="curve" smooth="yes"/>
      <point x="244" y="18"/>
      <point x="196" y="-7"/>
      <point x="130" y="-7" type="curve" smooth="yes"/>
      <point x="60" y="-7"/>
      <point x="19" y="32"/>
      <point x="19" y="90" type="curve" smooth="yes"/>
      <point x="19" y="93"/>
      <point x="20" y="98"/>
      <point x="20" y="98" type="curve"/>
      <point x="91" y="98" type="line"/>
      <point x="91" y="93" type="line" smooth="yes"/>
      <point x="92" y="61"/>
      <point x="113" y="50"/>
      <point x="133" y="50" type="curve" smooth="yes"/>
      <point x="152" y="50"/>
      <point x="173" y="58"/>
      <point x="173" y="83" type="curve" smooth="yes"/>
      <point x="173" y="111"/>
      <point x="146" y="118"/>
      <point x="115" y="127" type="curve" smooth="yes"/>
      <point x="73" y="139"/>
      <point x="24" y="152"/>
      <point x="24" y="220" type="curve" smooth="yes"/>
      <point x="24" y="283"/>
      <point x="72" y="314"/>
    </contour>
    <contour>
      <point x="142" y="-153" type="line"/>
      <point x="104" y="-153" type="line"/>
      <point x="125" y="-103" type="line"/>
      <point x="96" y="-103" type="line"/>
      <point x="96" y="-32" type="line"/>
      <point x="169" y="-32" type="line"/>
      <point x="169" y="-98" type="line"/>
    </contour>
  </outline>
</glyph>
<glyph name="uni021A" format="1">
  <advance width="292"/>
  <unicode hex="021A"/>
  <outline>
    <contour>
      <point x="283" y="333" type="line"/>
      <point x="183" y="333" type="line"/>
      <point x="183" y="0" type="line"/>
      <point x="109" y="0" type="line"/>
      <point x="109" y="333" type="line"/>
      <point x="10" y="333" type="line"/>
      <point x="10" y="399" type="line"/>
      <point x="283" y="399" type="line"/>
    </contour>
    <contour>
      <point x="182" y="-98" type="line"/>
      <point x="156" y="-153" type="line"/>
      <point x="118" y="-153" type="line"/>
      <point x="138" y="-103" type="line"/>
      <point x="110" y="-103" type="line"/>
      <point x="110" y="-32" type="line"/>
      <point x="182" y="-32" type="line"/>
    </contour>
  </outline>
</glyph>
<glyph name="circumflex" format="1">
  <advance width="159"/>
  <unicode hex="02C6"/>
  <outline>
    <contour>
      <point x="104" y="343" type="line"/>
      <point x="78" y="383" type="line"/>
      <point x="53" y="343" type="line"/>
      <point x="0" y="343" type="line"/>
      <point x="50" y="421" type="line"/>
      <point x="107" y="421" type="line"/>
      <point x="157" y="343" type="line"/>
    </contour>
  </outline>
</glyph>
<glyph name="caron" format="1">
  <advance width="159"/>
  <unicode hex="02C7"/>
  <outline>
    <contour>
      <point x="50" y="343" type="line"/>
      <point x="0" y="421" type="line"/>
      <point x="53" y="421" type="line"/>
      <point x="78" y="381" type="line"/>
      <point x="104" y="421" type="line"/>
      <point x="157" y="421" type="line"/>
      <point x="107" y="343" type="line"/>
    </contour>
  </outline>
</glyph>
<glyph name="breve" format="1">
  <advance width="159"/>
  <unicode hex="02D8"/>
  <outline>
    <contour>
      <point x="156" y="421" type="line"/>
      <point x="156" y="392"/>
      <point x="127" y="359"/>
      <point x="78" y="359" type="curve" smooth="yes"/>
      <point x="30" y="359"/>
      <point x="1" y="392"/>
      <point x="1" y="421" type="curve"/>
      <point x="43" y="421" type="line"/>
      <point x="45" y="413"/>
      <point x="59" y="402"/>
      <point x="78" y="402" type="curve" smooth="yes"/>
      <point x="98" y="402"/>
      <point x="112" y="413"/>
      <point x="113" y="421" type="curve"/>
    </contour>
  </outline>
</glyph>
<glyph name="dotaccent" format="1">
  <advance width="159"/>
  <unicode hex="02D9"/>
  <outline>
    <contour>
      <point x="48" y="354" type="line"/>
      <point x="48" y="421" type="line"/>
      <point x="111" y="421" type="line"/>
      <point x="111" y="354" type="line"/>
    </contour>
  </outline>
</glyph>
<glyph name="uni0901" format="1">
  <advance width="0"/>
  <unicode hex="0901"/>
  <outline>
    <contour>
      <point x="-82" y="559" type="move" name="Anchor-4"/>
    </contour>
    <contour>
      <point x="-84" y="399" type="move" name="_Anchor-2"/>
    </contour>
    <contour>
      <point x="-119" y="492" type="line"/>
      <point x="-119" y="560" type="line"/>
      <point x="-51" y="560" type="line"/>
      <point x="-51" y="492" type="line"/>
    </contour>
    <contour>
      <point x="28" y="523" type="line"/>
      <point x="28" y="461"/>
      <point x="-12" y="418"/>
      <point x="-84" y="418" type="curve" smooth="yes"/>
      <point x="-156" y="418"/>
      <point x="-196" y="461"/>
      <point x="-196" y="523" type="curve"/>
      <point x="-144" y="523" type="line"/>
      <point x="-144" y="478"/>
      <point x="-126" y="460"/>
      <point x="-84" y="460" type="curve" smooth="yes"/>
      <point x="-42" y="460"/>
      <point x="-24" y="478"/>
      <point x="-24" y="523" type="curve"/>
    </contour>
  </outline>
</glyph>
<glyph name="uni0902" format="1">
  <advance width="0"/>
  <unicode hex="0902"/>
  <outline>
    <contour>
      <point x="-83" y="399" type="move" name="_Anchor-4"/>
    </contour>
    <contour>
      <point x="-83" y="399" type="move" name="_Anchor-3"/>
    </contour>
    <contour>
      <point x="-83" y="399" type="move" name="_Anchor-0"/>
    </contour>
    <contour>
      <point x="-123" y="434" type="line"/>
      <point x="-123" y="514" type="line"/>
      <point x="-43" y="514" type="line"/>
      <point x="-43" y="434" type="line"/>
    </contour>
  </outline>
</glyph>
<glyph name="uni0904" format="1">
  <advance width="421"/>
  <unicode hex="0904"/>
  <outline>
    <contour>
      <point x="340" y="0" type="move" name="Anchor-7"/>
    </contour>
    <contour>
      <point x="217" y="0" type="move" name="Anchor-6"/>
    </contour>
    <contour>
      <point x="13" y="40" type="move" name="Anchor-5"/>
    </contour>
    <contour>
      <point x="340" y="399" type="move" name="Anchor-3"/>
    </contour>
    <contour>
      <point x="211" y="399" type="move" name="Anchor-2"/>
    </contour>
    <contour>
      <point x="376" y="399" type="line"/>
      <point x="428" y="399" type="line"/>
      <point x="428" y="338" type="line"/>
      <point x="375" y="338" type="line"/>
      <point x="375" y="0" type="line"/>
      <point x="305" y="0" type="line"/>
      <point x="305" y="144" type="line"/>
      <point x="233" y="144" type="line"/>
      <point x="233" y="125" type="line" smooth="yes"/>
      <point x="233" y="65"/>
      <point x="189" y="28"/>
      <point x="124" y="28" type="curve" smooth="yes"/>
      <point x="59" y="28"/>
      <point x="18" y="65"/>
      <point x="18" y="122" type="curve" smooth="yes"/>
      <point x="18" y="128"/>
      <point x="19" y="134"/>
      <point x="20" y="140" type="curve" smooth="yes"/>
      <point x="20" y="140"/>
      <point x="20" y="141"/>
      <point x="20" y="142" type="curve" smooth="yes"/>
      <point x="92" y="142" type="line"/>
      <point x="92" y="127" type="line" smooth="yes"/>
      <point x="92" y="101"/>
      <point x="104" y="86"/>
      <point x="126" y="86" type="curve" smooth="yes"/>
      <point x="146" y="86"/>
      <point x="159" y="98"/>
      <point x="159" y="125" type="curve" smooth="yes"/>
      <point x="159" y="146" type="line" smooth="yes"/>
      <point x="159" y="182"/>
      <point x="140" y="191"/>
      <point x="119" y="191" type="curve" smooth="yes"/>
      <point x="100" y="191" type="line"/>
      <point x="100" y="249" type="line"/>
      <point x="120" y="249" type="line" smooth="yes"/>
      <point x="140" y="249"/>
      <point x="154" y="262"/>
      <point x="154" y="289" type="curve" smooth="yes"/>
      <point x="154" y="309" type="line" smooth="yes"/>
      <point x="154" y="335"/>
      <point x="145" y="349"/>
      <point x="126" y="349" type="curve" smooth="yes"/>
      <point x="107" y="349"/>
      <point x="98" y="334"/>
      <point x="98" y="307" type="curve" smooth="yes"/>
      <point x="98" y="295" type="line"/>
      <point x="27" y="295" type="line"/>
      <point x="26" y="303"/>
      <point x="25" y="311"/>
      <point x="25" y="318" type="curve" smooth="yes"/>
      <point x="25" y="373"/>
      <point x="67" y="407"/>
      <point x="126" y="407" type="curve" smooth="yes"/>
      <point x="186" y="407"/>
      <point x="227" y="372"/>
      <point x="227" y="309" type="curve" smooth="yes"/>
      <point x="227" y="289" type="line" smooth="yes"/>
      <point x="227" y="257"/>
      <point x="212" y="237"/>
      <point x="192" y="224" type="curve"/>
      <point x="192" y="222" type="line"/>
      <point x="200" y="218"/>
      <point x="208" y="213"/>
      <point x="214" y="205" type="curve"/>
      <point x="305" y="205" type="line"/>
      <point x="305" y="338" type="line"/>
      <point x="252" y="338" type="line"/>
      <point x="252" y="399" type="line"/>
      <point x="306" y="399" type="line"/>
      <point x="306" y="436" type="line" smooth="yes"/>
      <point x="306" y="448"/>
      <point x="300" y="453"/>
      <point x="287" y="453" type="curve" smooth="yes"/>
      <point x="150" y="453" type="line" smooth="yes"/>
      <point x="88" y="453"/>
      <point x="61" y="476"/>
      <point x="61" y="530" type="curve" smooth="yes"/>
      <point x="61" y="545" type="line"/>
      <point x="131" y="545" type="line"/>
      <point x="131" y="530" type="line" smooth="yes"/>
      <point x="131" y="519"/>
      <point x="136" y="513"/>
      <point x="150" y="513" type="curve" smooth="yes"/>
      <point x="287" y="513" type="line" smooth="yes"/>
      <point x="349" y="513"/>
      <point x="376" y="490"/>
      <point x="376" y="436" type="curve" smooth="yes"/>
    </contour>
  </outline>
</glyph>
<glyph name="uni090B" format="1">
  <advance width="486"/>
  <unicode hex="090B"/>
  <outline>
    <contour>
      <point x="229" y="0" type="move" name="Anchor-7"/>
    </contour>
    <contour>
      <point x="0" y="0" type="move" name="Anchor-6"/>
    </contour>
    <contour>
      <point x="0" y="0" type="move" name="Anchor-5"/>
    </contour>
    <contour>
      <point x="229" y="399" type="move" name="Anchor-3"/>
    </contour>
    <contour>
      <point x="229" y="399" type="move" name="Anchor-2"/>
    </contour>
    <contour>
      <point x="264" y="338" type="line"/>
      <point x="264" y="202" type="line"/>
      <point x="378" y="257" type="line"/>
      <point x="378" y="283" type="line"/>
      <point x="442" y="283" type="line"/>
      <point x="442" y="109" type="line"/>
      <point x="429" y="109" type="line" smooth="yes"/>
      <point x="407" y="109"/>
      <point x="393" y="100"/>
      <point x="393" y="81" type="curve" smooth="yes"/>
      <point x="393" y="63"/>
      <point x="407" y="54"/>
      <point x="429" y="54" type="curve" smooth="yes"/>
      <point x="445" y="54"/>
      <point x="460" y="58"/>
      <point x="471" y="63" type="curve"/>
      <point x="471" y="3" type="line"/>
      <point x="455" y="-4"/>
      <point x="441" y="-7"/>
      <point x="423" y="-7" type="curve" smooth="yes"/>
      <point x="372" y="-7"/>
      <point x="323" y="24"/>
      <point x="323" y="81" type="curve" smooth="yes"/>
      <point x="323" y="121"/>
      <point x="347" y="148"/>
      <point x="378" y="161" type="curve"/>
      <point x="378" y="189" type="line"/>
      <point x="264" y="134" type="line"/>
      <point x="264" y="0" type="line"/>
      <point x="194" y="0" type="line"/>
      <point x="194" y="105" type="line"/>
      <point x="67" y="43" type="line"/>
      <point x="67" y="111" type="line"/>
      <point x="180" y="166" type="line"/>
      <point x="164" y="183" type="line" smooth="yes"/>
      <point x="140" y="208"/>
      <point x="123" y="217"/>
      <point x="103" y="217" type="curve" smooth="yes"/>
      <point x="92" y="217"/>
      <point x="83" y="214"/>
      <point x="71" y="210" type="curve" smooth="yes"/>
      <point x="51" y="204" type="line"/>
      <point x="51" y="264" type="line"/>
      <point x="55" y="267"/>
      <point x="61" y="269"/>
      <point x="67" y="271" type="curve" smooth="yes"/>
      <point x="69" y="271"/>
      <point x="71" y="272"/>
      <point x="73" y="273" type="curve" smooth="yes"/>
      <point x="86" y="277"/>
      <point x="97" y="279"/>
      <point x="109" y="279" type="curve" smooth="yes"/>
      <point x="147" y="279"/>
      <point x="170" y="262"/>
      <point x="194" y="238" type="curve"/>
      <point x="194" y="338" type="line"/>
      <point x="-7" y="338" type="line"/>
      <point x="-7" y="399" type="line"/>
      <point x="492" y="399" type="line"/>
      <point x="492" y="338" type="line"/>
    </contour>
  </outline>
</glyph>
<glyph name="uni090C" format="1">
  <advance width="426"/>
  <unicode hex="090C"/>
  <outline>
    <contour>
      <point x="341" y="-40" type="move" name="Anchor-7"/>
    </contour>
    <contour>
      <point x="0" y="0" type="move" name="Anchor-6"/>
    </contour>
    <contour>
      <point x="0" y="0" type="move" name="Anchor-5"/>
    </contour>
    <contour>
      <point x="341" y="399" type="move" name="Anchor-3"/>
    </contour>
    <contour>
      <point x="0" y="0" type="move" name="Anchor-2"/>
    </contour>
    <contour>
      <point x="363" y="43" type="line" smooth="yes"/>
      <point x="341" y="43"/>
      <point x="327" y="34"/>
      <point x="327" y="15" type="curve" smooth="yes"/>
      <point x="327" y="-3"/>
      <point x="341" y="-12"/>
      <point x="363" y="-12" type="curve" smooth="yes"/>
      <point x="379" y="-12"/>
      <point x="394" y="-8"/>
      <point x="405" y="-3" type="curve"/>
      <point x="405" y="-63" type="line"/>
      <point x="389" y="-70"/>
      <point x="375" y="-73"/>
      <point x="357" y="-73" type="curve" smooth="yes"/>
      <point x="306" y="-73"/>
      <point x="257" y="-42"/>
      <point x="257" y="15" type="curve" smooth="yes"/>
      <point x="257" y="53"/>
      <point x="278" y="79"/>
      <point x="306" y="93" type="curve"/>
      <point x="306" y="177" type="line" smooth="yes"/>
      <point x="306" y="212"/>
      <point x="295" y="235"/>
      <point x="272" y="235" type="curve" smooth="yes"/>
      <point x="243" y="235"/>
      <point x="236" y="206"/>
      <point x="236" y="173" type="curve" smooth="yes"/>
      <point x="236" y="127" type="line"/>
      <point x="163" y="127" type="line"/>
      <point x="163" y="173" type="line" smooth="yes"/>
      <point x="163" y="206"/>
      <point x="156" y="235"/>
      <point x="127" y="235" type="curve" smooth="yes"/>
      <point x="104" y="235"/>
      <point x="93" y="200"/>
      <point x="93" y="151" type="curve" smooth="yes"/>
      <point x="93" y="90"/>
      <point x="118" y="59"/>
      <point x="163" y="59" type="curve" smooth="yes"/>
      <point x="185" y="59" type="line"/>
      <point x="185" y="3" type="line"/>
      <point x="177" y="1"/>
      <point x="170" y="0"/>
      <point x="162" y="0" type="curve" smooth="yes"/>
      <point x="71" y="0"/>
      <point x="20" y="55"/>
      <point x="20" y="158" type="curve" smooth="yes"/>
      <point x="20" y="235"/>
      <point x="57" y="293"/>
      <point x="117" y="293" type="curve" smooth="yes"/>
      <point x="161" y="293"/>
      <point x="188" y="268"/>
      <point x="198" y="234" type="curve"/>
      <point x="200" y="234" type="line"/>
      <point x="210" y="268"/>
      <point x="235" y="293"/>
      <point x="275" y="293" type="curve" smooth="yes"/>
      <point x="286" y="293"/>
      <point x="297" y="291"/>
      <point x="306" y="286" type="curve"/>
      <point x="306" y="338" type="line"/>
      <point x="-7" y="338" type="line"/>
      <point x="-7" y="399" type="line"/>
      <point x="432" y="399" type="line"/>
      <point x="432" y="338" type="line"/>
      <point x="376" y="338" type="line"/>
      <point x="376" y="43" type="line"/>
    </contour>
  </outline>
</glyph>
<glyph name="uni090D" format="1">
  <advance width="340"/>
  <unicode hex="090D"/>
  <outline>
    <contour>
      <point x="195" y="0" type="move" name="Anchor-7"/>
    </contour>
    <contour>
      <point x="0" y="0" type="move" name="Anchor-6"/>
    </contour>
    <contour>
      <point x="0" y="0" type="move" name="Anchor-5"/>
    </contour>
    <contour>
      <point x="256" y="399" type="move" name="Anchor-3"/>
    </contour>
    <contour>
      <point x="170" y="399" type="move" name="Anchor-2"/>
    </contour>
    <contour>
      <point x="276" y="523" type="line"/>
      <point x="276" y="461"/>
      <point x="236" y="418"/>
      <point x="170" y="418" type="curve" smooth="yes"/>
      <point x="105" y="418"/>
      <point x="65" y="461"/>
      <point x="65" y="523" type="curve"/>
      <point x="125" y="523" type="line"/>
      <point x="125" y="484"/>
      <point x="144" y="468"/>
      <point x="170" y="468" type="curve" smooth="yes"/>
      <point x="197" y="468"/>
      <point x="214" y="484"/>
      <point x="214" y="523" type="curve"/>
    </contour>
    <contour>
      <point x="347" y="399" type="line"/>
      <point x="347" y="338" type="line"/>
      <point x="290" y="338" type="line"/>
      <point x="290" y="248" type="line" smooth="yes"/>
      <point x="290" y="208"/>
      <point x="275" y="166"/>
      <point x="219" y="166" type="curve" smooth="yes"/>
      <point x="206" y="166"/>
      <point x="190" y="168"/>
      <point x="181" y="171" type="curve"/>
      <point x="181" y="225" type="line"/>
      <point x="193" y="225" type="line" smooth="yes"/>
      <point x="211" y="225"/>
      <point x="220" y="235"/>
      <point x="220" y="253" type="curve" smooth="yes"/>
      <point x="220" y="338" type="line"/>
      <point x="120" y="338" type="line"/>
      <point x="120" y="194" type="line" smooth="yes"/>
      <point x="120" y="181"/>
      <point x="122" y="171"/>
      <point x="129" y="165" type="curve" smooth="yes"/>
      <point x="224" y="71" type="line" smooth="yes"/>
      <point x="252" y="45"/>
      <point x="264" y="26"/>
      <point x="264" y="9" type="curve" smooth="yes"/>
      <point x="264" y="-4"/>
      <point x="260" y="-16"/>
      <point x="254" y="-31" type="curve"/>
      <point x="195" y="-31" type="line"/>
      <point x="196" y="-23"/>
      <point x="196" y="-17"/>
      <point x="196" y="-11" type="curve" smooth="yes"/>
      <point x="196" y="5"/>
      <point x="192" y="14"/>
      <point x="180" y="28" type="curve" smooth="yes"/>
      <point x="73" y="132" type="line" smooth="yes"/>
      <point x="57" y="148"/>
      <point x="50" y="163"/>
      <point x="50" y="189" type="curve" smooth="yes"/>
      <point x="50" y="338" type="line"/>
      <point x="-7" y="338" type="line"/>
      <point x="-7" y="399" type="line"/>
    </contour>
  </outline>
</glyph>
<glyph name="uni0917" format="1">
  <advance width="392"/>
  <unicode hex="0917"/>
  <outline>
    <contour>
      <point x="307" y="0" type="move" name="Anchor-7"/>
    </contour>
    <contour>
      <point x="0" y="0" type="move" name="Anchor-6"/>
    </contour>
    <contour>
      <point x="97" y="63" type="move" name="Anchor-5"/>
    </contour>
    <contour>
      <point x="307" y="399" type="move" name="Anchor-3"/>
    </contour>
    <contour>
      <point x="222" y="399" type="move" name="Anchor-2"/>
    </contour>
    <contour>
      <point x="399" y="399" type="line"/>
      <point x="399" y="338" type="line"/>
      <point x="342" y="338" type="line"/>
      <point x="342" y="0" type="line"/>
      <point x="272" y="0" type="line"/>
      <point x="272" y="338" type="line"/>
      <point x="193" y="338" type="line"/>
      <point x="193" y="168" type="line" smooth="yes"/>
      <point x="193" y="109"/>
      <point x="154" y="69"/>
      <point x="97" y="69" type="curve" smooth="yes"/>
      <point x="38" y="69"/>
      <point x="0" y="109"/>
      <point x="0" y="168" type="curve" smooth="yes"/>
      <point x="0" y="227"/>
      <point x="38" y="266"/>
      <point x="97" y="266" type="curve" smooth="yes"/>
      <point x="123" y="266" type="line"/>
      <point x="123" y="338" type="line"/>
      <point x="-7" y="338" type="line"/>
      <point x="-7" y="399" type="line"/>
    </contour>
    <contour>
      <point x="123" y="168" type="curve" smooth="yes"/>
      <point x="123" y="204" type="line"/>
      <point x="97" y="204" type="line" smooth="yes"/>
      <point x="80" y="204"/>
      <point x="70" y="190"/>
      <point x="70" y="168" type="curve" smooth="yes"/>
      <point x="70" y="144"/>
      <point x="79" y="131"/>
      <point x="97" y="131" type="curve" smooth="yes"/>
      <point x="113" y="131"/>
      <point x="123" y="144"/>
    </contour>
  </outline>
</glyph>
<glyph name="uni0918" format="1">
  <advance width="368"/>
  <unicode hex="0918"/>
  <outline>
    <contour>
      <point x="283" y="0" type="move" name="Anchor-7"/>
    </contour>
    <contour>
      <point x="0" y="0" type="move" name="Anchor-6"/>
    </contour>
    <contour>
      <point x="13" y="90" type="move" name="Anchor-5"/>
    </contour>
    <contour>
      <point x="283" y="399" type="move" name="Anchor-3"/>
    </contour>
    <contour>
      <point x="191" y="399" type="move" name="Anchor-2"/>
    </contour>
    <contour>
      <point x="375" y="399" type="line"/>
      <point x="375" y="338" type="line"/>
      <point x="318" y="338" type="line"/>
      <point x="318" y="0" type="line"/>
      <point x="248" y="0" type="line"/>
      <point x="248" y="71" type="line"/>
      <point x="230" y="56"/>
      <point x="204" y="48"/>
      <point x="171" y="48" type="curve" smooth="yes"/>
      <point x="94" y="48"/>
      <point x="40" y="91"/>
      <point x="40" y="153" type="curve" smooth="yes"/>
      <point x="40" y="191"/>
      <point x="60" y="220"/>
      <point x="90" y="231" type="curve"/>
      <point x="64" y="241"/>
      <point x="40" y="260"/>
      <point x="40" y="299" type="curve" smooth="yes"/>
      <point x="40" y="314"/>
      <point x="43" y="327"/>
      <point x="50" y="338" type="curve"/>
      <point x="-7" y="338" type="line"/>
      <point x="-7" y="399" type="line"/>
    </contour>
    <contour>
      <point x="182" y="105" type="curve" smooth="yes"/>
      <point x="228" y="105"/>
      <point x="248" y="132"/>
      <point x="248" y="178" type="curve" smooth="yes"/>
      <point x="248" y="338" type="line"/>
      <point x="134" y="338" type="line" smooth="yes"/>
      <point x="117" y="338"/>
      <point x="113" y="317"/>
      <point x="113" y="302" type="curve" smooth="yes"/>
      <point x="113" y="273"/>
      <point x="129" y="257"/>
      <point x="150" y="257" type="curve" smooth="yes"/>
      <point x="189" y="257" type="line"/>
      <point x="189" y="200" type="line"/>
      <point x="151" y="200" type="line" smooth="yes"/>
      <point x="130" y="200"/>
      <point x="113" y="188"/>
      <point x="113" y="161" type="curve" smooth="yes"/>
      <point x="113" y="125"/>
      <point x="143" y="105"/>
    </contour>
  </outline>
</glyph>
<glyph name="uni091A" format="1">
  <advance width="339"/>
  <unicode hex="091A"/>
  <outline>
    <contour>
      <point x="254" y="0" type="move" name="Anchor-7"/>
    </contour>
    <contour>
      <point x="0" y="0" type="move" name="Anchor-6"/>
    </contour>
    <contour>
      <point x="26" y="90" type="move" name="Anchor-5"/>
    </contour>
    <contour>
      <point x="254" y="399" type="move" name="Anchor-3"/>
    </contour>
    <contour>
      <point x="163" y="399" type="move" name="Anchor-2"/>
    </contour>
    <contour>
      <point x="346" y="399" type="line"/>
      <point x="346" y="338" type="line"/>
      <point x="289" y="338" type="line"/>
      <point x="289" y="0" type="line"/>
      <point x="219" y="0" type="line"/>
      <point x="219" y="67" type="line"/>
      <point x="216" y="67" type="line"/>
      <point x="203" y="58"/>
      <point x="180" y="48"/>
      <point x="151" y="48" type="curve" smooth="yes"/>
      <point x="92" y="48"/>
      <point x="53" y="84"/>
      <point x="53" y="161" type="curve" smooth="yes"/>
      <point x="53" y="186"/>
      <point x="58" y="205"/>
      <point x="67" y="220" type="curve"/>
      <point x="3" y="220" type="line"/>
      <point x="3" y="282" type="line"/>
      <point x="180" y="282" type="line"/>
      <point x="180" y="220" type="line"/>
      <point x="173" y="220" type="line" smooth="yes"/>
      <point x="138" y="220"/>
      <point x="126" y="204"/>
      <point x="126" y="176" type="curve" smooth="yes"/>
      <point x="126" y="163" type="line" smooth="yes"/>
      <point x="126" y="130"/>
      <point x="138" y="112"/>
      <point x="173" y="112" type="curve" smooth="yes"/>
      <point x="206" y="112"/>
      <point x="219" y="130"/>
      <point x="219" y="163" type="curve" smooth="yes"/>
      <point x="219" y="338" type="line"/>
      <point x="-7" y="338" type="line"/>
      <point x="-7" y="399" type="line"/>
    </contour>
  </outline>
</glyph>
<glyph name="uni091B" format="1">
  <advance width="399"/>
  <unicode hex="091B"/>
  <outline>
    <contour>
      <point x="182" y="28" type="move" name="Anchor-7"/>
    </contour>
    <contour>
      <point x="0" y="0" type="move" name="Anchor-6"/>
    </contour>
    <contour>
      <point x="182" y="28" type="move" name="Anchor-5"/>
    </contour>
    <contour>
      <point x="286" y="399" type="move" name="Anchor-3"/>
    </contour>
    <contour>
      <point x="200" y="399" type="move" name="Anchor-2"/>
    </contour>
    <contour>
      <point x="405" y="338" type="line"/>
      <point x="321" y="338" type="line"/>
      <point x="321" y="293" type="line"/>
      <point x="357" y="282"/>
      <point x="379" y="252"/>
      <point x="379" y="199" type="curve" smooth="yes"/>
      <point x="379" y="105"/>
      <point x="304" y="28"/>
      <point x="182" y="28" type="curve" smooth="yes"/>
      <point x="90" y="28"/>
      <point x="27" y="73"/>
      <point x="27" y="136" type="curve" smooth="yes"/>
      <point x="27" y="173"/>
      <point x="50" y="203"/>
      <point x="77" y="213" type="curve"/>
      <point x="50" y="223"/>
      <point x="27" y="251"/>
      <point x="27" y="292" type="curve" smooth="yes"/>
      <point x="27" y="310"/>
      <point x="31" y="325"/>
      <point x="40" y="338" type="curve"/>
      <point x="-20" y="338" type="line"/>
      <point x="-20" y="399" type="line"/>
      <point x="405" y="399" type="line"/>
    </contour>
    <contour>
      <point x="251" y="294" type="curve"/>
      <point x="251" y="338" type="line"/>
      <point x="128" y="338" type="line" smooth="yes"/>
      <point x="105" y="338"/>
      <point x="100" y="314"/>
      <point x="100" y="291" type="curve" smooth="yes"/>
      <point x="100" y="257"/>
      <point x="112" y="239"/>
      <point x="131" y="239" type="curve" smooth="yes"/>
      <point x="151" y="239" type="line"/>
      <point x="151" y="181" type="line"/>
      <point x="131" y="181" type="line" smooth="yes"/>
      <point x="112" y="181"/>
      <point x="100" y="169"/>
      <point x="100" y="145" type="curve" smooth="yes"/>
      <point x="100" y="107"/>
      <point x="129" y="85"/>
      <point x="183" y="85" type="curve" smooth="yes"/>
      <point x="277" y="85"/>
      <point x="313" y="146"/>
      <point x="313" y="192" type="curve" smooth="yes"/>
      <point x="313" y="208" type="line" smooth="yes"/>
      <point x="313" y="234"/>
      <point x="306" y="247"/>
      <point x="283" y="247" type="curve" smooth="yes"/>
      <point x="267" y="247"/>
      <point x="258" y="240"/>
      <point x="258" y="225" type="curve" smooth="yes"/>
      <point x="258" y="211" type="line"/>
      <point x="199" y="211" type="line" smooth="yes"/>
      <point x="198" y="214"/>
      <point x="196" y="222"/>
      <point x="196" y="232" type="curve" smooth="yes"/>
      <point x="196" y="262"/>
      <point x="215" y="286"/>
    </contour>
  </outline>
</glyph>
<glyph name="uni091F" format="1">
  <advance width="273"/>
  <unicode hex="091F"/>
  <outline>
    <contour>
      <point x="136" y="28" type="move" name="Anchor-7"/>
    </contour>
    <contour>
      <point x="0" y="0" type="move" name="Anchor-6"/>
    </contour>
    <contour>
      <point x="136" y="28" type="move" name="Anchor-5"/>
    </contour>
    <contour>
      <point x="192" y="399" type="move" name="Anchor-3"/>
    </contour>
    <contour>
      <point x="136" y="399" type="move" name="Anchor-2"/>
    </contour>
    <contour>
      <point x="142" y="240" type="line" smooth="yes"/>
      <point x="106" y="240"/>
      <point x="93" y="217"/>
      <point x="93" y="174" type="curve" smooth="yes"/>
      <point x="93" y="153" type="line" smooth="yes"/>
      <point x="93" y="110"/>
      <point x="104" y="87"/>
      <point x="136" y="87" type="curve" smooth="yes"/>
      <point x="167" y="87"/>
      <point x="179" y="104"/>
      <point x="179" y="136" type="curve" smooth="yes"/>
      <point x="179" y="150" type="line"/>
      <point x="250" y="150" type="line"/>
      <point x="251" y="146"/>
      <point x="252" y="139"/>
      <point x="252" y="133" type="curve" smooth="yes"/>
      <point x="252" y="61"/>
      <point x="213" y="28"/>
      <point x="136" y="28" type="curve" smooth="yes"/>
      <point x="59" y="28"/>
      <point x="20" y="71"/>
      <point x="20" y="163" type="curve" smooth="yes"/>
      <point x="20" y="256"/>
      <point x="61" y="299"/>
      <point x="142" y="299" type="curve" smooth="yes"/>
      <point x="157" y="299" type="line"/>
      <point x="157" y="338" type="line"/>
      <point x="-7" y="338" type="line"/>
      <point x="-7" y="399" type="line"/>
      <point x="280" y="399" type="line"/>
      <point x="280" y="338" type="line"/>
      <point x="227" y="338" type="line"/>
      <point x="227" y="240" type="line"/>
    </contour>
  </outline>
</glyph>
<glyph name="uni0923" format="1">
  <advance width="460"/>
  <unicode hex="0923"/>
  <outline>
    <contour>
      <point x="375" y="0" type="move" name="Anchor-7"/>
    </contour>
    <contour>
      <point x="0" y="0" type="move" name="Anchor-6"/>
    </contour>
    <contour>
      <point x="149" y="28" type="move" name="Anchor-5"/>
    </contour>
    <contour>
      <point x="375" y="399" type="move" name="Anchor-3"/>
    </contour>
    <contour>
      <point x="230" y="399" type="move" name="Anchor-2"/>
    </contour>
    <contour>
      <point x="467" y="399" type="line"/>
      <point x="467" y="338" type="line"/>
      <point x="410" y="338" type="line"/>
      <point x="410" y="0" type="line"/>
      <point x="340" y="0" type="line"/>
      <point x="340" y="338" type="line"/>
      <point x="263" y="338" type="line"/>
      <point x="263" y="149" type="line" smooth="yes"/>
      <point x="263" y="84"/>
      <point x="218" y="48"/>
      <point x="149" y="48" type="curve" smooth="yes"/>
      <point x="80" y="48"/>
      <point x="36" y="84"/>
      <point x="36" y="149" type="curve" smooth="yes"/>
      <point x="36" y="338" type="line"/>
      <point x="-7" y="338" type="line"/>
      <point x="-7" y="399" type="line"/>
    </contour>
    <contour>
      <point x="193" y="151" type="curve" smooth="yes"/>
      <point x="193" y="338" type="line"/>
      <point x="105" y="338" type="line"/>
      <point x="105" y="151" type="line" smooth="yes"/>
      <point x="105" y="125"/>
      <point x="123" y="107"/>
      <point x="149" y="107" type="curve" smooth="yes"/>
      <point x="175" y="107"/>
      <point x="193" y="125"/>
    </contour>
  </outline>
</glyph>
<glyph name="uni092A" format="1">
  <advance width="311"/>
  <unicode hex="092A"/>
  <outline>
    <contour>
      <point x="226" y="0" type="move" name="Anchor-7"/>
    </contour>
    <contour>
      <point x="0" y="0" type="move" name="Anchor-6"/>
    </contour>
    <contour>
      <point x="28" y="90" type="move" name="Anchor-5"/>
    </contour>
    <contour>
      <point x="226" y="399" type="move" name="Anchor-3"/>
    </contour>
    <contour>
      <point x="147" y="399" type="move" name="Anchor-2"/>
    </contour>
    <contour>
      <point x="318" y="399" type="line"/>
      <point x="318" y="338" type="line"/>
      <point x="261" y="338" type="line"/>
      <point x="261" y="0" type="line"/>
      <point x="191" y="0" type="line"/>
      <point x="191" y="107" type="line"/>
      <point x="175" y="96"/>
      <point x="154" y="90"/>
      <point x="130" y="90" type="curve" smooth="yes"/>
      <point x="71" y="90"/>
      <point x="33" y="127"/>
      <point x="33" y="191" type="curve" smooth="yes"/>
      <point x="33" y="338" type="line"/>
      <point x="-7" y="338" type="line"/>
      <point x="-7" y="399" type="line"/>
    </contour>
    <contour>
      <point x="148" y="150" type="curve" smooth="yes"/>
      <point x="173" y="150"/>
      <point x="191" y="167"/>
      <point x="191" y="193" type="curve" smooth="yes"/>
      <point x="191" y="338" type="line"/>
      <point x="103" y="338" type="line"/>
      <point x="103" y="199" type="line" smooth="yes"/>
      <point x="103" y="169"/>
      <point x="121" y="150"/>
    </contour>
  </outline>
</glyph>
<glyph name="uni092B" format="1">
  <advance width="460"/>
  <unicode hex="092B"/>
  <outline>
    <contour>
      <point x="226" y="0" type="move" name="Anchor-7"/>
    </contour>
    <contour>
      <point x="0" y="0" type="move" name="Anchor-6"/>
    </contour>
    <contour>
      <point x="28" y="90" type="move" name="Anchor-5"/>
    </contour>
    <contour>
      <point x="226" y="399" type="move" name="Anchor-3"/>
    </contour>
    <contour>
      <point x="230" y="399" type="move" name="Anchor-2"/>
    </contour>
    <contour>
      <point x="261" y="338" type="line"/>
      <point x="261" y="262" type="line"/>
      <point x="264" y="262" type="line"/>
      <point x="277" y="280"/>
      <point x="298" y="293"/>
      <point x="330" y="293" type="curve" smooth="yes"/>
      <point x="390" y="293"/>
      <point x="427" y="246"/>
      <point x="427" y="173" type="curve" smooth="yes"/>
      <point x="427" y="94"/>
      <point x="385" y="48"/>
      <point x="318" y="48" type="curve" smooth="yes"/>
      <point x="313" y="48"/>
      <point x="310" y="48"/>
      <point x="307" y="49" type="curve" smooth="yes"/>
      <point x="305" y="49"/>
      <point x="304" y="49"/>
      <point x="302" y="49" type="curve" smooth="yes"/>
      <point x="302" y="112" type="line"/>
      <point x="308" y="112" type="line" smooth="yes"/>
      <point x="341" y="112"/>
      <point x="354" y="130"/>
      <point x="354" y="163" type="curve" smooth="yes"/>
      <point x="354" y="178" type="line" smooth="yes"/>
      <point x="354" y="211"/>
      <point x="341" y="229"/>
      <point x="308" y="229" type="curve" smooth="yes"/>
      <point x="274" y="229"/>
      <point x="261" y="211"/>
      <point x="261" y="178" type="curve" smooth="yes"/>
      <point x="261" y="0" type="line"/>
      <point x="191" y="0" type="line"/>
      <point x="191" y="107" type="line"/>
      <point x="175" y="96"/>
      <point x="154" y="90"/>
      <point x="130" y="90" type="curve" smooth="yes"/>
      <point x="71" y="90"/>
      <point x="33" y="127"/>
      <point x="33" y="191" type="curve" smooth="yes"/>
      <point x="33" y="338" type="line"/>
      <point x="-7" y="338" type="line"/>
      <point x="-7" y="399" type="line"/>
      <point x="467" y="399" type="line"/>
      <point x="467" y="338" type="line"/>
    </contour>
    <contour>
      <point x="191" y="338" type="line"/>
      <point x="103" y="338" type="line"/>
      <point x="103" y="199" type="line" smooth="yes"/>
      <point x="103" y="169"/>
      <point x="121" y="150"/>
      <point x="148" y="150" type="curve" smooth="yes"/>
      <point x="173" y="150"/>
      <point x="191" y="167"/>
      <point x="191" y="193" type="curve" smooth="yes"/>
    </contour>
  </outline>
</glyph>
